<?xml version="1.0" standalone="no"?>
<!DOCTYPE svg PUBLIC "-//W3C//DTD SVG 1.1//EN" "http://www.w3.org/Graphics/SVG/1.1/DTD/svg11.dtd" >
<svg xmlns="http://www.w3.org/2000/svg" xmlns:xlink="http://www.w3.org/1999/xlink" version="1.1">
<metadata>
Created by FontForge 20170812 at Fri Oct  2 03:25:17 2015
 By www-data
Asphalts Typeface (Brush Script) (c) The Branded Quotes 2015. All Rights Reserved
</metadata>
<defs>
<font id="AsphaltsBrush" horiz-adv-x="1014" >
  <font-face 
    font-family="Asphalts Brush"
    font-weight="400"
    font-stretch="normal"
    units-per-em="2048"
    panose-1="2 0 5 0 0 0 0 0 0 0"
    ascent="1638"
    descent="-410"
    x-height="566"
    cap-height="1110"
    bbox="-7939 -1693 2463 1815"
    underline-thickness="150"
    underline-position="-292"
    unicode-range="U+001D-F002"
  />
<missing-glyph horiz-adv-x="1024" 
 />
    <glyph glyph-name=".notdef" horiz-adv-x="1024" 
 />
    <glyph glyph-name="uni001D" horiz-adv-x="0" 
 />
    <glyph glyph-name="uni001D" horiz-adv-x="0" 
 />
    <glyph glyph-name="glyph2" horiz-adv-x="508" 
 />
    <glyph glyph-name="space" unicode=" " horiz-adv-x="508" 
 />
    <glyph glyph-name="space" unicode="&#xa0;" horiz-adv-x="508" 
 />
    <glyph glyph-name="exclam" unicode="!" horiz-adv-x="753" 
d="M668 1309v-17l17 9h7l-7 -17q13 0 24 -16q0 -12 -17 -66q10 -15 10 -32q-10 -17 -10 -24h10q0 -12 -94 -138q-20 -130 -66 -210h-16l9 -17q-31 -35 -34 -73h7q-25 -61 -49 -154q9 0 9 -8q-22 0 -51 -155q-13 0 -49 -97q-52 -41 -60 -41q-84 25 -84 49q-58 18 -101 89
q0 187 161 584q180 341 251 341l-9 18q8 0 58 40q84 -43 84 -65zM267 67q49 -35 49 -73v-65q0 -8 9 -8q-60 -122 -125 -122l-17 8h-8l-17 -8q-13 12 -116 48q-18 0 -42 122q18 57 84 114q0 40 57 40q0 -45 126 -56z" />
    <glyph glyph-name="quotedbl" unicode="&#x22;" horiz-adv-x="522" 
d="M132 1095q30 -3 72 -106q24 -143 35 -143h27q-45 -35 -54 -132q9 -13 9 -36h-9q0 -9 9 -9q-17 -168 -70 -168h-19q0 16 -96 81l-36 203q10 27 17 27q-7 17 -7 25q0 9 7 9l-7 45q0 9 7 53h-17v9h17q0 9 -7 27q20 85 61 115h61zM496 980q0 -135 26 -222v-8q0 -47 -17 -135
q7 -44 7 -87q-52 -24 -52 -43q-44 55 -150 140l-9 53v80l-9 18h9l-9 17q0 10 9 10q0 9 -9 9l9 43v36q0 50 9 132l62 45q25 9 25 18q58 0 99 -106z" />
    <glyph glyph-name="numbersign" unicode="#" horiz-adv-x="1170" 
d="M566 923q17 -30 17 -45l-35 -18l18 -133h61q81 0 81 124q38 106 61 106q10 0 44 28q89 -13 89 -89v-71q0 -9 10 -9q-9 -33 -28 -61v-18h89q22 0 79 -17q4 17 18 17l35 -10l62 10q89 0 89 -98q-45 -34 -62 -34l9 -18v-10q-3 0 -54 10l-61 -10q0 10 -9 10v-10
q-33 18 -71 18h-142q-13 0 -35 -36q18 -1 18 -17v-18q0 -18 -18 -89q27 -26 195 -26h17q45 0 45 18q89 -20 89 -89v-8q0 -10 -10 -10l10 -17q0 -18 -72 -36q-8 0 -8 10l-45 -10h-150l-89 10l-34 -46l8 -16v-27q0 -9 -8 -9l8 -17q-6 -53 -18 -53q10 -19 10 -26l-10 -20
l10 -16q-18 -44 -36 -116h-9q-80 12 -80 45h-35q-66 0 -80 115l-9 18q18 0 18 17l-9 18q9 17 9 26l-9 18q9 17 9 35v18h-18l18 26v18q-11 0 -26 -8l-53 8h-10q0 -21 -16 -44q0 -10 8 -10q0 -7 -36 -52l8 -17q-13 -25 -26 -151q-34 -80 -53 -80q-69 16 -69 53q-89 33 -89 99
v43q0 36 17 72l-10 17q19 31 19 70v9q-127 9 -177 9h-9q0 14 -26 35q67 71 176 71l17 -8q72 0 72 97q18 45 18 61q-12 10 -115 18q0 -8 -9 -8l-72 61l10 18q-10 17 -10 36q53 36 89 36h151q24 0 35 61h-8l43 61v28q0 8 -7 8q0 47 96 115q80 0 80 -70zM566 577h-36
q-13 -66 -35 -96v-10q6 -27 71 -27h9q18 0 26 72q12 0 26 53q-16 0 -16 18z" />
    <glyph glyph-name="dollar" unicode="$" horiz-adv-x="716" 
d="M505 1322v-17l-18 -27v-9q0 -62 18 -97q-9 0 -9 -9h16v-17h-34q34 -105 34 -195q18 -1 18 -18q0 -87 -158 -202l-28 -36q-39 -112 -61 -152q-12 0 -36 -34v-9q46 0 204 43h97q118 0 168 -79q-8 0 -8 -8h8q-8 -81 -18 -81l10 -16v-18q-16 0 -107 -142q-42 -49 -105 -79
q0 -24 -89 -99q-15 -30 -27 -123q10 -48 10 -79v-106q0 -34 -10 -98l27 -44l-27 -18l10 -18q-16 -72 -36 -72q-107 35 -107 72h-43q-37 44 -53 44q0 19 9 19l-18 300h9l-9 18q9 80 9 123h-9l9 18v10h-19v17q18 0 125 186q21 0 26 43h-44q-100 0 -124 54q-86 46 -89 61
q10 0 10 10q-24 0 -36 105q48 138 124 196q0 18 106 107q62 78 62 96l-17 9l17 35q-10 144 -17 151q14 0 26 62l-9 16q22 135 52 135q71 14 71 26q43 -12 90 -54zM583 207q18 0 18 18v10q-18 -4 -18 -18v-10z" />
    <glyph glyph-name="percent" unicode="%" horiz-adv-x="1062" 
d="M761 949h36q53 -28 53 -79q0 -24 -63 -133q0 -21 -71 -275q0 -31 -52 -115q0 -12 -89 -168q0 -32 -53 -63v-53q-46 -34 -79 -168q-17 -8 -28 -8q-107 47 -123 89v18q0 117 80 221l-10 16q32 28 116 204q20 40 62 89v10l-10 17q24 0 53 88q91 197 107 274zM319 842
q9 0 9 9q81 -20 87 -62q0 -8 10 -8q-9 -138 -28 -204l10 -18q-57 -78 -150 -78l-18 -28q-193 0 -239 134q8 115 26 133q0 6 -26 25q13 36 26 36l10 -18q32 0 88 44q110 44 151 44q13 -9 44 -9zM186 720q-26 -61 -26 -90q16 0 16 -25h36q0 16 18 43l-9 44q9 0 9 10zM1054 251
l8 -20l-36 -132h8q-8 -66 -33 -98q7 0 7 -7q-17 -4 -17 -18q10 0 10 -9q-33 0 -125 -36l-115 53q0 -8 -10 -8l-53 71q-22 16 -43 158q11 0 43 89q72 29 72 62h17q10 0 10 -9q8 10 105 19q111 -33 152 -115zM858 231q-19 -87 -35 -87q9 -16 9 -35h18q0 28 36 61v45
q0 16 -20 16h-8z" />
    <glyph glyph-name="ampersand" unicode="&#x26;" horiz-adv-x="903" 
d="M578 819l19 10q110 -100 110 -148h-9l9 -18q0 -103 -83 -240q-46 -22 -46 -73q49 -104 74 -110q162 153 248 203l47 -10q0 -30 -47 -83q0 -25 -27 -56q0 -9 9 -9q0 -15 -37 -37q-49 -49 -101 -203q46 -60 46 -73q28 -150 110 -212v-9q0 -43 -82 -110q-126 56 -176 128
l-45 -9q0 20 -65 83v9q-46 0 -46 -37l-19 10q-120 -80 -201 -102l-57 19v-10q-108 31 -165 101q-18 0 -18 38q9 0 9 9h-9q0 -9 -10 -9q-30 101 -47 101q13 83 28 83l-18 37q19 0 65 82q74 74 102 74q14 23 128 84q10 17 10 27q-35 70 -57 194q0 88 65 174q77 134 185 176
q61 -25 101 -84zM504 783q-21 -76 -55 -139q27 -156 65 -156q64 89 64 175v38q-50 81 -64 82h-10zM173 -28q0 -19 27 -19q9 0 9 10l47 -10h55q0 13 111 102q8 17 8 28l-73 120q-19 9 -28 9q-20 0 -73 -65q-49 -13 -83 -102v-73z" />
    <glyph glyph-name="quotesingle" unicode="'" horiz-adv-x="279" 
d="M244 1028q-3 -50 -6 -86q-2 -30 -2 -37q0 -35 26 -132v-28q0 -62 -18 -97q10 -17 10 -36q-5 -61 -27 -61q-19 13 -79 26l-18 -8h-9q-88 40 -88 176q0 29 -10 44q10 10 18 134q0 26 -18 70q14 0 28 53q62 24 106 54q39 0 87 -72z" />
    <glyph glyph-name="parenleft" unicode="(" horiz-adv-x="2298" 
d="M1556 600l33 6q14 -6 19 -6v6q35 -15 46 -15v9q32 -15 32 -21l13 6q87 -27 111 -46q33 0 33 -14l12 6q21 0 21 -26q10 7 19 7l32 -20q0 6 6 6q21 -17 21 -27h6l13 6q77 -52 149 -87q0 -10 26 -25q0 6 7 6q0 -15 130 -94q0 -6 85 -66q2 -22 72 -48q2 -13 12 -13
q-11 -33 -53 -53v-7h-6v13h-5q0 -8 -8 -20l-12 7l-20 -15q0 8 -6 8q0 -9 -21 -20h-6q-98 81 -131 81l-69 59q-87 42 -111 67l-14 -5q0 36 -130 86q-57 44 -194 101q0 -8 -7 -8q-1 23 -118 41l-45 13v-13h-26l-13 7q0 -6 -6 -21q19 0 31 -39q39 -17 39 -47h8q6 0 6 5
q9 0 47 -46q50 -68 96 -101v-7l14 7q18 -52 39 -52v-8l-7 -13h7q0 7 5 7l7 -27q-7 0 -7 -6q33 0 33 -148h7q-40 -134 -130 -134q-3 -6 -78 -53q-16 13 -144 25q-82 33 -98 48q0 13 -13 13l-38 -7q-84 61 -112 61q-6 15 -6 21h-6l-12 -7q0 13 -79 46q0 -8 -6 -8q0 16 -66 35
q0 -6 -6 -6q-16 33 -65 33v6l7 14h-7q0 -14 -13 -14h-6q-6 24 -118 47q-24 21 -45 21l-52 33v-7q-71 24 -71 40l-14 -5q-62 25 -91 25h-13q0 17 -71 28v14h-7l-14 -8l-6 13l-13 -5q-55 7 -78 25q-24 -6 -25 -6q-11 0 -60 40v-13h-18q-16 0 -20 33h-6l-15 -6q0 6 -5 6
q-7 -12 -7 -20l-19 14q-7 0 -7 -7q-27 13 -39 13l8 15h-15v-15h-12q-14 0 -14 15l-12 -8q-10 0 -40 14q0 -6 -6 -6q0 12 -13 12h-13q-6 0 -6 -6q-123 32 -123 79l-73 48v6q3 14 12 14h9q34 0 247 -68q21 0 97 -25q0 4 6 4q0 -4 7 -4q0 4 6 4l7 -10l14 6q38 -6 58 -6h5v-15
l59 6l7 -14l13 8q21 -13 33 -13v5q9 0 32 -19q6 0 6 7q57 -7 72 -19h6q7 0 7 6l34 -21q5 0 5 7q49 -12 97 -40q14 0 26 -6v6q8 0 72 -27q6 0 6 6q38 -11 53 -33l12 8q96 -35 203 -88h6l12 6q41 -26 41 -39h5v13q70 -25 150 -74l13 7h6q14 0 14 -21h18l15 6l6 -26l13 6
q117 -53 117 -59v-6q6 0 6 6q22 0 149 -54l35 7q-13 75 -41 75v6l6 14q-32 0 -65 53l8 12h-8q0 -6 -6 -6l-57 67q0 21 -21 21q-42 38 -46 52q8 0 8 8l-13 -8h-7q0 22 -27 22v12h13q-51 30 -51 67q-19 7 -19 15v31q-6 0 -6 8q0 34 12 34l-6 12q38 75 129 122l13 -8q0 9 64 33
v-6q20 6 20 15l14 -9q25 15 45 15zM1588 469l-6 -12v-6h6q0 4 6 18h-6zM1520 457v-6h18v6h-18zM1668 451v-13h6v13h-6zM1564 444q1 -12 12 -12v12h-12zM1686 438v-6q4 0 18 -6v6l-12 6h-6zM1392 420l-7 -12h7l5 12h-5zM1495 420l-6 -12h6l7 12h-7zM1735 420v-12h6v12h-6z
M1846 420v-6l18 -13v7zM1895 420v-12h6v12h-6zM1686 408v-13h6v13h-6zM1710 401v-6h13v6h-13zM1464 395v-12h7v12h-7zM1336 390v-7l18 -12v6zM163 371v-6l11 -6v6zM1802 365v-14h8v14h-8zM1950 351v-4l13 -8v8zM2042 351v-4h12v4h-12zM1489 339v-6l13 -6v6zM2074 339v-6
l12 -6v6zM1403 315q13 0 13 12v6q-13 -2 -13 -12v-6zM1520 333v-12h6v12h-6zM1981 333v-12h6v12h-6zM1550 327v-12q20 0 20 -18h6v11q-20 0 -20 19h-6zM1471 321v-6h12v6h-12zM1361 303v12q-12 -1 -12 -12h12zM1379 308v-18l13 -6q-7 11 -7 24h-6zM1440 308v-5l13 -6v6z
M1471 308v-5l12 -6v6zM432 297v-13h7v13h-7zM1550 284q6 -14 6 -18q14 0 14 12l-14 6h-6zM1520 278v-6h12v6h-12zM389 254h25v6q-11 0 -25 6v-12zM1607 266v-12h6v12h-6zM1495 260v-6q19 0 19 -25h6v12zM1582 260v-6l18 -13v6zM1570 254v-18l12 -7q-6 12 -6 25h-6zM396 247
v-6h12v6h-12zM1538 247l-6 -11h6l8 11h-8zM1546 236l4 -13q-4 0 -4 -6h4l6 12v7h-10zM1453 223v-6h11v6h-11zM1570 223v-12h6v12h-6zM1618 211v-13q13 0 13 13h-13zM1532 198v-12h6v12h-6zM1570 186q0 7 6 7q0 -7 6 -7v12h-6q-12 0 -12 -12h6zM642 193v-13h6v13h-6z
M1483 168q11 0 19 18q-14 -6 -19 -6v-12zM1668 150v-13h6v13h-6zM1576 137q1 -12 12 -12v6q0 13 -12 13v-7zM1747 137v-12h6v12h-6zM1028 119l-6 -12h6l6 12h-6zM1704 113v-12h6v12h-6zM1613 107v-14l12 -6q-7 14 -7 20h-5zM1003 69v-6q5 0 19 -6v6l-12 6h-7zM1280 -4v-13h6
v13h-6zM1710 -78v-6h13v6h-13zM1306 -84l-6 -12h6l4 12h-4zM1397 -114v-7l13 -6v6z" />
    <glyph glyph-name="parenright" unicode=")" horiz-adv-x="2540" 
d="M2218 507h18q11 0 25 6l172 -37h18q0 -24 12 -43q-10 0 -61 -48q0 5 -6 5l-6 -12l-31 7q-6 0 -6 -7q-29 12 -44 12l-12 -5q-31 6 -31 12q-12 -7 -18 -7l-12 7q-11 -7 -25 -7v7q-12 -7 -18 -7l-13 7q-18 -7 -18 -12l-12 5l-12 -5l-12 5q-11 -5 -18 -5q0 5 -7 5
q0 -18 -12 -18l-12 6q-9 -6 -32 -6v6h-12l6 -12q-43 -5 -43 -12l-12 6h-6l6 -13l-197 -54q0 6 -6 6v-14h-31q-18 -13 -103 -42v6q-50 -12 -50 -31l-12 6q0 -12 -12 -12q-8 0 -8 6q-19 -12 -30 -12q0 6 -6 6q0 -24 -25 -24v5q-41 -18 -49 -18h-18q0 -20 -49 -30
q0 -19 -12 -19h-6v6l6 13q-6 14 -6 18h-6v-24q-16 -22 -63 -37v6q-62 -25 -79 -49l-12 6h-13l7 -12l-18 -14h-7q-6 0 -6 8q-11 0 -55 -38h-13l-18 12v-6h7q-19 -22 -19 -37l-24 19l6 -12v-7q-40 0 -93 -42h-6q0 6 -7 6l-18 -25q-12 7 -18 7q-55 -18 -55 -31v-7h-12
q-7 0 -7 7q-38 -26 -62 -31q0 6 -6 6q0 -5 -12 -24l-18 12l-7 -24q7 0 7 -7l-13 -6l-5 13q5 0 5 6l-12 6q0 -19 -18 -19l6 -11v-13q-18 0 -37 -12q0 12 -12 12l-6 -12q6 0 6 -6h-13l-11 6l-50 -26q-6 0 -6 8l-24 -8q-87 8 -87 26l-12 -6q-61 34 -110 79h-12v13l5 11h-5
q0 -11 -13 -11l-18 24q-12 23 -12 49v6q0 18 12 55q-6 0 -6 6q8 0 49 99h6l12 -6q-6 14 -6 18l80 129q0 12 12 12v12q-8 0 -98 -24q0 6 -6 6v-6q6 0 6 -6q-82 -24 -85 -43h-20q-24 0 -104 -55q-14 -16 -80 -49l-36 -31q4 0 4 -6q-24 0 -24 -18h-18q-94 18 -104 43l-25 18
q7 6 7 49h6v-12h5v12h-5l48 55q92 42 130 67q0 -4 6 -4q0 8 18 24l13 -6h6q0 13 86 49q1 12 12 12q7 -7 31 -7q18 16 18 25l12 -6q18 0 56 19v-7q43 19 49 19q13 -7 19 -7q0 13 12 13l12 -6q1 12 12 12q7 0 7 -6q19 12 30 12q0 -6 6 -6q6 14 6 19h12q42 -27 118 -56
q29 -11 36 -36q37 0 43 -75l-12 -6q0 -6 6 -6q-5 -37 -12 -37l6 -12l-6 -31h-7v19q-9 0 -18 -25h18q-7 -18 -54 -98l-18 13v-13q0 -6 5 -6q-2 -22 -68 -111v-12h24l26 18v-6l43 19q0 -7 6 -7q0 13 36 25q0 -7 7 -7q0 13 74 37v6l36 -12q27 32 80 56l13 -6l189 92q20 0 20 12
h31q32 36 207 92q0 8 63 38q0 -8 6 -8q5 12 159 62v7l12 -7h14q0 15 30 19v6l12 -6l135 49v-6q31 18 61 24v-5l50 18h19v6l30 -6q0 17 116 36q0 7 7 7v-7q36 7 36 13q6 0 6 -6l32 6q6 0 6 -6q32 18 85 18v-7q25 6 25 13zM1309 139q2 -13 12 -13h6q0 13 -12 13h-6zM644 -181
v-5h13v5h-13z" />
    <glyph glyph-name="asterisk" unicode="*" horiz-adv-x="797" 
d="M433 1091l-8 -36q44 -130 44 -150h18q150 133 229 133l45 -53q0 -10 -10 -10l10 -18q-41 -97 -88 -97q-41 0 -45 -62l-35 -25q-45 -15 -45 -28v-25q11 0 80 -72q24 0 142 -97h27v-9q0 -80 -63 -80q-58 0 -194 107q-14 36 -62 36q-18 -30 -18 -54v-70q-23 -54 -35 -54
q0 8 -10 8l-8 -16v-28q0 -8 8 -8q-6 -32 -53 -53h-18q-44 21 -69 79h-9l9 44l-18 -9h-18v18h18l-10 19q13 0 28 25v28q0 45 -28 53q-13 0 -123 -63q-65 -18 -71 -18q0 13 -43 28q-10 15 -10 35l10 18q-10 0 -10 8l17 10l19 -10q0 41 176 125q0 12 63 53v8q-59 31 -99 70
q-15 -9 -25 -9q0 19 -89 99v8q23 44 70 44q106 -42 125 -80h53l-9 44v98q31 79 79 79q42 -43 53 -43z" />
    <glyph glyph-name="plus" unicode="+" horiz-adv-x="1018" 
d="M475 955h67q9 0 66 -66l-10 -23l21 -33q-21 -2 -21 -21l21 -12l-21 -55q21 -1 21 -23l-21 -55h33q0 -11 -12 -11q13 -121 55 -121q89 7 89 22l22 -11l122 44h11v-12q0 -11 -11 -11q0 -19 111 -87v-45q-51 0 -68 -78l-132 -21q-21 11 -33 11l-55 -23l-56 12q-27 0 -55 -57
q12 -19 12 -32h-12l12 -23v-65q0 -111 -23 -111q9 -45 23 -45q-23 -34 -23 -55l11 -55q-33 0 -33 -22l-209 144q-12 66 -57 66q12 59 12 88q0 5 -2 28q-4 25 -10 62q20 0 34 77q0 48 -155 66q0 17 -99 33v11l-22 -11h-12q-52 45 -66 45v32l22 34l22 -11l45 32q11 0 11 -10
l21 10h11q38 0 56 -10q144 16 144 33l22 -12h23q32 157 32 234q-12 19 -12 43q23 0 23 22v23l-11 23z" />
    <glyph glyph-name="comma" unicode="," horiz-adv-x="388" 
d="M239 159l14 9h6q0 -13 40 -84q13 -23 25 -83q-6 -16 -6 -24q12 -1 12 -14v-32q0 -175 -115 -213h-20q-65 9 -65 30v99q0 77 12 77l-7 16q7 14 7 23q-7 0 -7 7q-11 -7 -20 -7q-103 0 -116 129v6q0 19 38 85v6l14 -6q10 18 111 22q71 -25 77 -46zM201 -297h19
q0 -15 -13 -15h-6v15z" />
    <glyph glyph-name="hyphen" unicode="-" horiz-adv-x="594" 
d="M155 528q0 -51 37 -51l37 27q34 -27 96 -27h30q16 0 16 39q28 -25 28 -39l15 14l110 -38q4 24 15 24q67 -78 67 -162q-29 -21 -29 -50q-10 0 -23 13q-99 0 -132 -63h-15q-16 0 -16 37h-6l-38 -12v25h-51q-63 0 -296 86v15q30 61 30 99h37l22 26h43q0 37 15 37h8z" />
    <glyph glyph-name="hyphen" unicode="&#xad;" horiz-adv-x="594" 
d="M155 528q0 -51 37 -51l37 27q34 -27 96 -27h30q16 0 16 39q28 -25 28 -39l15 14l110 -38q4 24 15 24q67 -78 67 -162q-29 -21 -29 -50q-10 0 -23 13q-99 0 -132 -63h-15q-16 0 -16 37h-6l-38 -12v25h-51q-63 0 -296 86v15q30 61 30 99h37l22 26h43q0 37 15 37h8z" />
    <glyph glyph-name="period" unicode="." horiz-adv-x="354" 
d="M186 251q71 -46 158 -46q0 -18 10 -35h-18v-8q0 -155 -106 -231q-9 0 -9 9l-35 -9q-150 28 -150 63q-36 36 -36 89q0 8 10 8l-10 18q47 74 115 122h9l27 -16h9q16 0 16 36h10z" />
    <glyph glyph-name="slash" unicode="/" horiz-adv-x="1138" 
d="M773 1244v-6q15 0 15 -11h-5l5 -12v-9q-47 -127 -60 -127q-96 -88 -123 -88l-33 -38q0 -17 -6 -50q6 -12 6 -16q-7 0 -17 -17l6 -10q-16 -6 -16 -33v-39l-6 -11q12 -6 16 -6q17 14 83 22q72 -5 72 -38v-16q13 0 23 -38q0 -8 -5 -17l5 -22q0 -2 -11 -47q-13 -51 -33 -134
q7 0 27 -28h12q40 0 66 62q24 13 28 26q-9 22 -16 22l16 93q-6 10 -6 22q0 18 67 121q76 32 89 32q89 -7 89 -38q0 -17 6 -26l-40 -66l-5 -11q5 0 5 -6q-43 -52 -43 -93q0 -10 -23 -22q0 -11 -34 -50v-16q0 -39 39 -39q42 0 123 71q45 86 66 100q32 46 50 115q7 0 22 43h40
v-38q0 -6 10 -54q-23 -95 -50 -116v-6l6 -10q-73 -116 -105 -116q-55 -87 -139 -87q-34 11 -34 15l-11 -4q-84 38 -95 38q0 -5 -38 -34v12h-23q-11 -18 -11 -22l-10 6q-34 -6 -45 -6q-89 16 -89 55q-34 0 -44 104v5q0 35 34 176v5l-23 6q-55 -48 -55 -66q6 0 6 -5
q-52 0 -52 -132q-10 0 -10 -27v-11l5 -11q-11 -1 -11 -12v-15l6 -28q-6 0 -39 -88q-28 -22 -39 -22h-12q-44 0 -66 50q0 7 28 115h-6q14 23 34 121l-5 10v6l11 17v11q0 4 -6 4q9 51 22 51q-6 12 -6 17q12 46 12 70h5l11 -6l-6 12v22l6 11h-6q14 44 18 44q-6 10 -6 16l11 23
q-5 0 -5 4q5 0 5 5l-11 6h-28l-22 -15q-5 0 -5 4q-72 -22 -72 -33q5 0 5 -5h-5q5 -4 5 -38h-5l5 -11l-5 -28q5 -9 5 -17h-5l5 -10l-5 -33q5 0 5 -6q-11 0 -17 -49q6 -12 6 -17q-12 -20 -12 -32h6q-9 -45 -22 -61l5 -10h-5l5 -12q-12 -23 -22 -65l-21 -44l5 -12q-5 0 -34 -49
q5 0 5 -5q-7 0 -88 -88q-79 -75 -173 -99h-4q-74 4 -74 22q-9 0 -26 33q-12 0 -12 6q10 49 34 49q0 -14 21 -28h11v11h6q0 -17 12 -17h10q28 0 117 68q0 14 17 20q72 96 72 133h11q0 5 -6 5q18 53 39 197l28 72q0 5 -5 5q4 67 10 67q-7 21 -16 21h-12v-12l-21 6
q-36 -10 -51 -10h-11l-10 4v-9h-6q-11 0 -51 15v28q0 6 57 34l10 -6q45 15 45 27h17q61 17 61 27q6 0 6 -5l121 33v-6q112 35 112 50q10 40 27 81q-5 10 -5 17q18 4 28 94q-6 0 -6 4h22v6h-10q13 17 22 45q10 0 66 38q48 21 90 27q72 0 72 -87zM623 1227q-40 -44 -40 -82
v-11q0 -5 6 -5l-6 -12v-38h6q36 0 83 88q17 30 17 44q-11 0 -11 21h-17q-16 0 -32 -11q0 6 -6 6zM661 783v-12h6v12h-6zM955 767l-34 -56q-27 -24 -38 -87l11 -6q43 35 72 93q18 0 33 44l-15 12h-29zM1027 251q0 -56 -38 -56q-114 -22 -128 -38v-6h-12v18h-4
q-39 -17 -39 -23q-6 0 -6 5q-50 -5 -50 -16q-7 0 -17 5q-28 -5 -50 -5h-11v5h11v6h-11q0 -7 -28 -21h-11q-4 0 -4 6l-74 -23l-10 5h-6l-16 -11v6l-12 -6h-12l-10 6v-11q-99 -6 -122 -17l-12 6l-8 -2l-8 -3q-4 -1 -6 -1l-12 6q-32 -17 -72 -27q-4 0 -4 4q-72 -6 -123 -15
l-12 6q-25 -5 -38 -18q-25 18 -34 18l6 9v29q21 24 150 39q18 0 145 32q28 0 50 6v-6l10 6h6q6 0 6 -6q15 7 50 16q6 -10 6 -16h6q0 16 4 16l12 -5q66 23 183 38q0 6 23 11l10 -6h5q139 25 139 38q0 -4 6 -4l6 10q28 -10 39 -10q47 6 66 33q61 -29 61 -33z" />
    <glyph glyph-name="zero" unicode="0" horiz-adv-x="836" 
d="M706 845q31 0 50 -81q24 -60 41 -60l-11 -21q50 -90 50 -221q-20 -3 -20 -21h11l-11 -20l11 -40q0 -33 -91 -171q-80 -139 -202 -273q-107 -110 -161 -110q0 10 -11 10q-8 -30 -60 -30q-152 0 -261 181q-33 86 -41 222q16 164 41 181q0 10 -11 10q72 244 102 253v-21
l19 10l-9 20v30q2 21 19 21q0 -10 9 -10q0 60 63 100l-11 20q0 49 151 101q276 -36 333 -80zM413 734q0 -24 -81 -152q-54 -165 -70 -181l9 -20q-32 -50 -38 -50q9 -13 9 -50l-20 -21l11 -20l-31 -181q20 -39 20 -81h40q62 0 201 172q0 20 61 101q0 22 50 90q0 25 10 40
q-25 141 -39 141l9 21q-55 191 -110 191h-31z" />
    <glyph glyph-name="one" unicode="1" horiz-adv-x="584" 
d="M485 900q10 0 10 -10l20 10h32q0 -23 69 -49q0 -15 21 -41v-51q-56 -34 -122 -302q-15 -12 -70 -271q-64 -225 -90 -273q0 -10 -11 -10l11 -21q-45 -191 -92 -251q-9 0 -9 10l-72 -10h-19q0 26 -71 71q0 27 -40 59v11q22 29 49 171q0 10 -9 10l90 343q-10 0 -10 10
q37 0 61 171q-13 0 -141 -39q-55 0 -161 59h-10q0 13 150 70q87 110 273 233l11 19v51q60 0 60 30h70zM616 780v-21h11v21h-11zM153 115v-20h10v20h-10z" />
    <glyph glyph-name="two" unicode="2" horiz-adv-x="749" 
d="M697 780h10v-21l-10 -20q17 0 30 -71l-30 -91q10 0 10 -10q-19 -1 -19 -19v-9l9 -21q-45 -35 -90 -152l-111 -180q-12 0 -71 -81q-33 0 -101 -122h31l40 31q9 0 9 -11q32 0 32 60l69 -9h22q102 20 110 20v-11l21 11l30 -20l19 9q31 -31 31 -90q-50 -12 -50 -39h-11
l-30 19l-10 -19l10 -21q-23 0 -40 -10q0 31 -21 31q-38 0 -40 -82h-10q-20 21 -70 21q-10 -17 -10 -51l-52 11h-30q-9 0 -39 -41q-22 10 -31 10q-60 -39 -60 -51q0 -19 -21 -19h-60l-30 -50q-9 0 -9 9l-52 -9h-10q-115 90 -141 90v11q41 0 41 60q0 58 50 91h11l-11 19
q16 41 41 41l-10 20q12 0 70 131q65 101 101 101v9l-10 21q25 0 40 41q30 4 40 39l20 -9h10v9h-20q50 64 50 91l21 -9l30 80l20 -9l-11 19v20q26 0 52 81q44 91 60 91l-20 49q-74 -23 -131 -90q-57 -42 -131 -212q-65 -9 -91 -20q-22 10 -30 10q0 -10 -10 -10q0 26 -91 40
v10q20 0 20 21q-9 17 -9 40q31 0 49 71q40 56 151 151q42 61 91 61q24 28 90 40q18 -11 42 -11q3 20 20 20q157 0 231 -110zM415 306v-10h31v10h-31zM658 -87h9v-20h-9v20z" />
    <glyph glyph-name="three" unicode="3" horiz-adv-x="786" 
d="M504 921h121v-21h11l19 11q28 -51 91 -51q20 -33 20 -60v-20q-20 0 -71 -30l11 -21v-9q-11 0 -152 -153v-49q40 0 111 -41v10q110 -68 110 -221q11 0 11 -20q-11 -18 -11 -41q11 0 11 -10h-20v-31q0 -20 -10 -39q10 -22 10 -30l-30 -51v-9q0 -10 10 -10
q-56 -145 -110 -203q0 -21 -42 -80q-91 -82 -170 -82h-62v-29q-33 29 -80 29l-11 42h-19l-19 -11q0 24 -82 81q0 56 -61 110q-29 64 -70 223l-20 10q0 22 90 59h11q113 0 141 -49l40 -62q-11 -90 -20 -90l20 -60q128 0 252 112q0 19 11 19l-11 19v11q6 61 30 61l-10 20
q20 130 20 171q0 25 -29 81q-115 -22 -132 -51l-19 10q-34 -19 -51 -19q-32 0 -141 60v9q10 41 40 41q0 10 -9 10l9 20q-9 60 -9 90l150 192q-52 20 -70 20l-20 -9q-58 20 -112 61q0 -11 -11 -11l-9 51q0 26 81 40h182q20 0 39 10q22 -10 41 -10zM614 -167v-20h11v20h-11z
" />
    <glyph glyph-name="four" unicode="4" horiz-adv-x="836" 
d="M706 915q19 10 30 10q100 -65 100 -90v-20q-39 -116 -61 -243q0 -9 11 -9q-11 -78 -30 -101l10 -61l-20 -10l10 -20q0 -36 -50 -231v-72q-24 -35 -41 -110h9q-38 -172 -49 -172h-11q22 -25 22 -39q0 -52 -22 -52l11 -20l-31 -60v-21l11 -49q-12 0 -31 -41l10 -20v-10h-20
v-60q-50 -3 -50 -31h20q0 -14 -30 -30v10l-20 -10h-10q0 10 10 10q0 21 -111 70l-20 -9q0 23 -10 39q0 11 10 11l-10 101v61l51 271q-11 21 -11 30q-81 -4 -81 -20q-66 13 -121 31v-11q-181 81 -181 252q0 54 142 273q12 27 120 151q57 138 111 161l-11 20q93 71 183 71
q25 0 120 60q21 0 41 -10zM282 78h31l30 20q21 0 40 -9q71 20 71 80h-10l49 192l-9 20l9 51q-19 0 -60 -91q-98 -119 -171 -252z" />
    <glyph glyph-name="five" unicode="5" horiz-adv-x="716" 
d="M594 980q0 -49 20 -49h11v-10q-26 0 -41 -40q-201 -81 -291 -81v-41q0 -50 -22 -50l11 -20q-49 -95 -49 -131q21 -10 29 -10q18 0 182 91l49 10q213 -47 213 -131q-11 -21 -11 -31q21 -1 21 -20v-10q-85 -212 -192 -352q0 -30 -242 -434q-53 -127 -80 -222
q-35 -60 -51 -60q-17 -10 -50 -10h-11q-90 54 -90 111q10 77 10 80q-10 19 -10 41h20v20l-20 29q41 0 101 222q9 0 9 11q-9 0 -9 10q60 50 60 100l121 202l31 71q22 8 81 152h-21q-73 -51 -91 -51q-181 0 -241 132q0 24 -31 110q0 59 31 101l-11 49q0 34 30 82v9
q0 21 -30 21q0 24 131 50q21 -10 30 -10q180 59 383 59h20z" />
    <glyph glyph-name="six" unicode="6" horiz-adv-x="706" 
d="M534 845v-21l20 11q0 -11 10 -11q0 -33 -71 -151q-54 0 -99 -172q9 -21 9 -30q19 0 41 10q154 -49 181 -100q81 -37 81 -121v-50q-41 -1 -41 -41l20 -10q0 -138 -211 -342l-112 -51l-19 9h-11q-19 0 -19 -19q-103 0 -293 252q10 0 10 10l-20 11l10 49q0 42 -20 42
q8 204 71 372h9l-9 20v21q177 372 231 372q71 10 111 10q23 -16 121 -70zM181 714v-21q21 0 21 21h-21zM282 -52q18 -11 41 -11q107 42 201 252q0 76 -141 92q-95 0 -121 -232q9 -101 20 -101zM242 18v-21h10v21h-10z" />
    <glyph glyph-name="seven" unicode="7" horiz-adv-x="727" 
d="M681 911q14 0 30 -30q-27 -68 -90 -142q-21 -72 -21 -80q126 0 242 -101v-10q0 -13 -51 -51h-69l-21 12q0 -12 -11 -12q0 12 -9 12q0 -12 -11 -12v12l-20 -12q-10 0 -29 12q-108 0 -132 -173q0 -40 -30 -40v-71q-47 -76 -81 -211h-10l10 -20q-21 0 -70 -202v-31
q-24 0 -40 -19l10 -21q-30 -90 -90 -90h-12q-72 0 -150 161q18 0 39 101h11l-11 20q0 50 30 50l-9 20v31h31v11h-31q90 355 90 372l-69 10h-31q-11 0 -11 -10q-80 19 -120 50q0 68 162 101q29 24 149 51l52 151l-21 9q-19 -3 -19 -20l-71 11h-80q-47 60 -101 60l40 50
l-11 21q243 49 263 80l20 -10q125 40 151 40q202 -30 202 -80z" />
    <glyph glyph-name="eight" unicode="8" horiz-adv-x="797" 
d="M424 1032h9v-21l51 11q46 -11 100 -101q191 -84 191 -152h-9l9 -19v-41q-18 -50 -59 -50v-10h20v-10q0 -20 -20 -20q-21 10 -31 10l10 -21l-21 -31h11q0 11 10 11v-21l-90 -58v-22q80 -73 80 -121l21 11q50 -38 50 -51l41 -110q-31 -222 -81 -222q-55 -137 -142 -192
l-20 11h-9l-31 -21h-10q0 23 -60 30q0 15 -41 30l10 21l-10 20q25 73 121 222q6 82 40 90l-10 41l10 71q0 9 -60 69q-84 -23 -142 -101q-43 -75 -110 -130q-19 -70 -19 -81v-30q-21 0 -42 -71l11 -50q-11 0 -11 -10h11l-11 -20q0 -80 61 -80h10q7 0 100 9q0 -13 32 -30
l19 10v-10q-75 -110 -171 -110q-34 20 -61 20l-20 -11q-151 118 -151 222l-10 21l20 129v32l21 10l-11 20v20q92 208 121 232l131 151q-25 0 -49 161h-11l20 40h-20v10l40 91q0 11 -10 11q50 90 121 120q0 31 51 50v21zM444 739q14 0 40 41v20h-21q-19 -3 -19 -20v-41z" />
    <glyph glyph-name="nine" unicode="9" horiz-adv-x="766" 
d="M413 971v9q353 -144 353 -351l-10 -21q10 -19 10 -41q0 -40 -111 -241q0 -24 -71 -101q0 -39 -39 -39l9 -22h-20v-9l11 -20q-17 0 -121 -152q-11 0 -11 -30l-30 20q0 -10 -10 -10l10 -20l-10 -20l-20 11h-10l10 -21q-16 -64 -101 -162q-76 -160 -120 -160v-11h-52
q-50 19 -80 132q19 155 71 222h-11q50 117 50 140q32 0 60 81l32 19q0 -10 10 -10q0 9 10 31l-20 -9h-11q0 30 31 30l-10 20l30 40q-93 93 -171 121l9 50l-39 130q9 22 9 31v41h10q0 10 -10 10q21 34 21 61q-11 0 -11 9q50 81 72 81q0 -10 10 -10q0 67 110 142q0 29 19 29
q22 -10 31 -10v10l21 -10h30q0 8 9 30zM252 567q-19 -31 -19 -58q9 0 9 -12h-9q0 -35 99 -59q64 59 122 201q16 60 30 60l-10 21q10 21 10 30q-40 9 -40 50h-82q-48 -67 -91 -101q-29 -86 -29 -132h10zM716 659h20q0 20 -20 20v-20zM110 25v-31h11v31h-11z" />
    <glyph glyph-name="colon" unicode=":" horiz-adv-x="336" 
d="M328 666q0 -54 -116 -150l-18 8l-18 -8q-97 21 -97 35h-8l-18 -9q-43 150 -43 178q15 0 96 61q15 -8 26 -8q0 27 107 34q49 0 89 -141zM328 109q8 0 8 -10q-28 -168 -168 -168q-90 28 -142 89q0 30 -26 71q0 53 62 53q0 21 106 54q0 30 71 43q57 0 89 -132z" />
    <glyph glyph-name="semicolon" unicode=";" horiz-adv-x="478" 
d="M301 846h-26v19q11 0 26 8v-27zM212 812l18 7h36q9 0 9 -7q17 7 26 7l43 -26q-43 -88 -43 -168q-114 -71 -141 -71q-47 0 -143 54q0 33 -17 53v17q24 0 36 80q82 71 124 71q52 -6 52 -17zM212 183l18 10q167 -41 167 -98q16 0 36 -53h-8q3 -24 44 -36q-6 -35 -18 -35
q17 -23 27 -124q-24 0 -63 -106q-87 -12 -87 -45h-27q-19 0 -35 10q-20 -10 -80 -18l-10 18q45 126 45 150v44q-124 0 -150 178q32 0 44 69q28 46 97 46v-10z" />
    <glyph glyph-name="semicolon" unicode="&#x37e;" horiz-adv-x="478" 
d="M301 846h-26v19q11 0 26 8v-27zM212 812l18 7h36q9 0 9 -7q17 7 26 7l43 -26q-43 -88 -43 -168q-114 -71 -141 -71q-47 0 -143 54q0 33 -17 53v17q24 0 36 80q82 71 124 71q52 -6 52 -17zM212 183l18 10q167 -41 167 -98q16 0 36 -53h-8q3 -24 44 -36q-6 -35 -18 -35
q17 -23 27 -124q-24 0 -63 -106q-87 -12 -87 -45h-27q-19 0 -35 10q-20 -10 -80 -18l-10 18q45 126 45 150v44q-124 0 -150 178q32 0 44 69q28 46 97 46v-10z" />
    <glyph glyph-name="less" unicode="&#x3c;" horiz-adv-x="950" 
d="M708 828q0 -22 11 -22q13 0 32 11l46 -11q61 11 89 11l64 -77q-21 0 -110 -78l-155 -55q-11 -22 -11 -34q11 -21 11 -32h-21v44h-23q0 -25 -154 -56q-60 -44 -122 -77v-11h-33l-78 -22v-34q15 -30 189 -110l231 -177q221 -73 221 -144q12 -19 12 -44h-12l12 -22v-21
l-78 -23h-11q-321 92 -331 144q-162 84 -299 221q-52 0 -78 66q-110 42 -110 122q0 84 55 89q0 14 66 33l-11 22v11l22 -11h24q168 79 221 121q132 35 132 55v11h33q155 39 155 100h11z" />
    <glyph glyph-name="equal" unicode="=" horiz-adv-x="903" 
d="M672 707q0 -41 66 -56l10 -99q-21 -4 -21 -23q11 0 11 -10l-38 -22q0 32 -18 32l-20 -10l-20 10l-48 -10v10l-18 -10q-22 0 -38 10q-56 -10 -87 -10q-21 0 -38 10q-72 -14 -106 -55q0 36 -125 45l-134 66v33q16 0 38 44q33 0 48 11l106 -34q106 23 106 34l38 -11
q145 11 154 23l56 -12h40q18 0 18 34h20zM394 409l-10 -24l19 -10h19q10 0 10 10q22 -10 28 -10q8 0 30 10l48 -10l86 10q143 0 143 -54l18 -78q-18 -11 -27 -11v-11h18q0 -22 -18 -22h-86q-10 0 -10 12q-37 -23 -76 -23h-135q-67 -6 -67 -23l-106 34q-19 -11 -104 -22
l-20 11q-16 -11 -39 -11h-9q0 19 -28 34l-20 -12q-17 0 -58 76q0 17 78 78l18 -10h19q35 0 87 10q9 0 9 -10q82 12 106 22q15 -12 38 -12q19 0 19 46h20z" />
    <glyph glyph-name="greater" unicode="&#x3e;" horiz-adv-x="1006" 
d="M188 705q27 -21 88 -49l23 12l33 -23l22 11h32v12h23q17 -133 112 -133q102 -73 187 -73q0 12 11 12v-12l23 12h9l78 -35q27 -37 78 -37h11l22 12q61 -58 66 -109q-75 -95 -221 -182q-172 -134 -288 -134q0 -23 -10 -23q-21 11 -33 11q-3 -17 -298 -133v12l-24 -12h-11
q-121 0 -121 61v12q328 199 487 253q0 18 99 87q45 24 45 36q-253 129 -475 218q-1 12 -124 97v37q11 60 134 60h22zM188 781q32 -25 88 -53l23 12l33 -24l22 12h32v12h23q17 -144 112 -144q103 -79 187 -79q0 14 11 14v-14l23 14h9l78 -40q28 -40 78 -40h11l22 13
q60 -62 66 -119q-72 -99 -221 -198q-172 -145 -288 -145q0 -26 -10 -26q-23 13 -33 13q-2 -18 -298 -145v13l-24 -13h-11q-121 0 -121 66v13q330 218 487 277q0 17 99 93q45 27 45 39q-264 147 -475 238q-1 14 -124 107v39q11 65 134 65h22z" />
    <glyph glyph-name="question" unicode="?" horiz-adv-x="709" 
d="M442 1081q17 7 26 7q158 -41 158 -104q25 -33 42 -89q-8 -80 -17 -80q9 -16 9 -26q0 -64 -42 -64v-9q25 0 25 -24q-11 0 -51 -80q-54 -33 -82 -33l-58 8q-52 -72 -67 -72v-9h7q-17 -26 -17 -49v-48h25q59 0 59 -48q-7 -106 -101 -106h-16q-21 0 -117 65q-33 66 -33 113
l67 220q42 44 165 145l10 32h18l16 -8l-9 15v33l17 25q0 89 -91 89l-43 -9q0 9 -9 9q0 -41 -74 -65q-85 -60 -108 -154v-73q-35 0 -77 -32q0 18 -49 18v14q0 9 8 9q-33 48 -33 73q0 133 208 266q46 25 192 57zM250 93l17 9q23 0 58 -57l17 -9l-9 -16v-15q0 -9 9 -9
q-17 -43 -17 -65q17 0 17 -40q-10 0 -41 -32q0 8 -10 8q0 -24 -15 -24q-21 3 -34 6q-13 2 -17 2l-42 -8q-61 13 -125 81h-8v7q41 101 67 105l-9 18v7h9q17 -7 24 -7q10 17 10 24q-10 17 -10 24l42 -16q0 33 17 33q32 -26 50 -26zM351 54h7v-18h-7v18z" />
    <glyph glyph-name="at" unicode="@" horiz-adv-x="1086" 
d="M767 923q18 -4 18 -18h-18v18zM688 905q0 -17 115 -27l53 -44q176 -65 176 -132q23 -33 45 -151q-59 -346 -125 -346q0 -12 -25 -26h-10v19h-8q-32 -28 -150 -28h-36q-58 48 -116 71q-91 -115 -150 -115v9l-18 -9l-44 18v-18h-8q0 21 -134 97q-26 62 -43 62
q37 221 53 221q13 0 79 63q16 -10 36 -10q10 28 53 28q7 0 26 -10l53 10l186 -53h17q0 -15 36 -72l-18 -88q0 -80 72 -80q34 0 71 115v10l-10 43q27 0 27 36q-16 129 -53 186q8 0 8 8q-159 97 -203 97l-18 -8q-15 7 -80 17q-234 -43 -308 -132q-57 -72 -81 -160l-17 -8
q0 -9 9 -9q-10 -68 -27 -88l9 -18q-18 -30 -18 -70v-10l27 -88q-9 -17 -9 -27q103 -133 141 -133l-8 -17q107 -71 194 -71v9l18 -9h9q151 0 151 34l43 -7h18q67 0 107 61q25 0 185 44v-8l18 8h44q53 -42 53 -61q0 -55 -79 -90q0 -25 -18 -25v25q-27 0 -168 -87
q-181 -62 -328 -62h-26q-63 0 -63 18l-16 -9q-206 74 -240 105q9 0 9 10h-9v-10q-108 56 -185 196l8 17q-35 0 -53 159q0 54 45 106l-18 44q25 0 35 46v25q32 40 80 178q73 123 176 123q50 44 152 44q0 9 16 9q0 -9 10 -9v19h44q28 0 70 26q52 -9 80 -9v9l18 -9zM387 267
q56 0 168 152q0 13 -27 25q0 -9 -8 -9q0 27 -18 27h-18q-9 0 -9 -9l-18 9q-69 0 -115 -132q45 -33 45 -63z" />
    <glyph glyph-name="A" unicode="A" horiz-adv-x="823" 
d="M637 739q8 -34 20 -34l36 5l29 -47q15 9 21 9l6 -13l-6 -96l6 -34q-6 0 -6 -6q17 0 22 -84l-16 -4l16 -63l-7 -39v-33q0 -21 14 -41q-6 -28 -14 -28l7 -33v-75l16 -21v-12q0 -17 -9 -27l9 -14q0 -7 -9 -7q28 -129 43 -143q15 0 15 -26l-29 -21q-13 9 -20 9
q-23 -12 -81 -22q-135 0 -171 149q13 0 13 13q-13 0 -21 67l8 15q-8 14 -8 19l8 14q-16 27 -16 75v7h-14q-52 -115 -86 -115q0 -74 -72 -108q0 -27 -80 -60l-72 -21h-6q-7 0 -7 5l-15 -5h-57q-37 0 -79 60q-34 36 -51 101v35q0 7 7 7q0 5 -7 5q0 138 165 427q13 0 37 53
q43 56 72 115h20l15 -5v13h-15v12l15 -7q0 18 43 55l37 -6q14 6 28 6v-6q39 15 58 15q0 -9 8 -9q1 12 13 12h29v-12q81 20 94 20q21 -46 44 -46zM183 75q60 60 71 60l-6 12q98 144 179 339l51 89q-11 27 -21 27h-8q-243 -308 -273 -527h7zM319 47q1 -12 15 -12h16v12h-31z
" />
    <glyph glyph-name="B" unicode="B" horiz-adv-x="701" 
d="M514 1291q9 0 9 -8v-23l-17 8v-8q8 0 8 -7q-8 0 -8 -9q17 -2 17 -14h-9q-15 7 -25 7l34 -38v-8l-17 8h-17v-16h25v-23l-25 -84l-17 9q-17 -4 -17 -16h17v-16q-25 0 -25 -7l8 -15q0 -8 -49 -93q-36 -90 -158 -212q0 -10 7 -24q-16 -138 -41 -231l7 -14v-8q0 -8 -7 -8
q6 -28 16 -28l-9 -39v-54h9q146 144 293 144l16 -7q17 7 26 7q0 -9 74 -31q92 -74 92 -82q-7 0 -7 -8q24 0 24 -54h-9v-7q20 0 26 -46l-50 -77h-9l9 -15v-16q-42 -42 -42 -75q-28 0 -34 -47q-25 0 -25 -23q0 -7 -133 -100q0 -36 -150 -61q0 -9 -24 -23q-111 0 -111 23
l-15 -8q-24 15 -66 15l7 16l-17 -7q-52 18 -52 30q10 0 10 8h-10q0 -8 -7 -8q-50 65 -50 99v92q0 19 -7 31l7 15q-16 39 -16 54h9l-9 15q5 239 24 239q0 7 -8 7l50 229l17 -8q-10 16 -10 22q35 142 35 168h-7q16 21 34 138l99 338q-9 0 -9 7q7 0 84 131l58 15q0 -8 8 -8
q0 15 33 38q49 0 126 -199zM321 1237q0 -14 -14 -61l7 -46v-7q0 -16 -17 -16l10 -15v-16l-18 9q9 -18 18 -77q14 0 14 15v39h17v23q35 93 35 129q-27 30 -52 30v-7zM397 1076h16q0 16 -16 16v-16zM230 1069v-7h18v7h-18zM422 1062v-16h8v16h-8zM280 831v-8l17 -7v7zM214 611
v-24h16v24h-16zM38 449q0 -16 25 -16h8v8zM13 381v-7h16v7h-16zM71 289h17q0 16 -17 16v-16zM273 97q7 0 7 -7q-14 0 -42 -60q-32 0 -42 -24q11 -53 25 -53q59 0 100 84q24 0 76 91h9q0 -7 7 -7v7q-7 0 -7 7q24 0 100 131v23q-94 0 -168 -130q-28 -38 -49 -38zM724 243h7
q0 16 17 16v7q-11 0 -24 9v-32zM29 53v-23h9v23h-9zM105 14q1 -15 17 -15v15h-17zM129 -109h17q0 15 -17 15v-15zM273 -101v-16h7v16h-7zM289 -117v-15h8v15h-8zM181 -132v-16h7v16h-7z" />
    <glyph glyph-name="C" unicode="C" horiz-adv-x="837" 
d="M544 620v-23l-20 -30h20q-11 -80 -39 -115v-32q-29 -22 -45 -22q-87 11 -100 22q-83 -61 -83 -145q-74 -195 -74 -294v-33h-18v-11h18v11l56 -19l183 124q0 21 9 21q18 -11 28 -11q65 96 73 96v-22h10v22q-10 0 -10 9q64 31 166 188q78 93 129 115q0 22 37 22
q92 -44 92 -103q9 0 9 -12q-57 0 -101 -73q-7 0 -139 -168l-27 22h-9v-12h18v-31l-18 10v-10q9 0 9 -9q-23 0 -64 -63l-19 -12q0 12 -10 12q0 -43 -81 -107q-2 -26 -84 -61l-18 -32l-18 11h-10q0 -22 -72 -53q0 12 -10 12v-12q10 0 10 -11l-92 -11h-47q-77 0 -174 106
q-39 125 -47 125l10 21v94q49 272 183 461q67 62 185 136q17 -10 28 -10q1 22 16 22q66 -6 140 -115z" />
    <glyph glyph-name="D" unicode="D" horiz-adv-x="944" 
d="M903 1403q38 8 61 8q36 -50 36 -74q0 -22 -7 -53q7 -37 7 -73v-15q0 -7 -7 -7l7 -16v-13h-15v-15h15v-15q-18 0 -23 -30l8 -14v-43l-8 -90q11 0 23 -22l-15 -22q12 0 24 -22q0 -14 -32 -14l8 -15q-5 -66 -14 -66l14 -61q-35 0 -51 -250q-6 0 -31 -235q-20 0 -20 -82v-192
q0 -125 20 -125q-13 -36 -13 -67l-37 9h-29q0 28 -31 28q0 -8 -5 -8v8l-16 -8q-21 0 -59 31h-15l-22 -15q0 8 -8 8q0 -8 -7 -8l-8 15v22q-19 0 -81 37q-12 7 -37 7q-45 -66 -124 -66q0 -24 -97 -31h-79q-105 0 -105 31q7 0 7 7q-79 26 -124 59q-60 71 -60 111q-8 0 -8 8
q0 19 32 22v21l-16 23v59q25 59 36 59l-7 14v8q18 0 37 66q65 96 65 111q33 73 61 73q29 67 29 82v28q59 44 59 75q43 0 43 29h38l23 -14h79v14q71 0 126 -51h7q34 45 52 45q16 22 16 42v142l66 242l-9 15v30q0 51 24 51q0 73 21 73v31l-8 14q12 0 30 74q32 16 39 37
q48 0 115 -37zM860 1345v-16q14 0 14 16h-14zM235 -6q48 0 110 60q22 0 110 74q28 12 44 45q21 0 30 28h6v184q-6 0 -51 23q-66 0 -96 -95q-41 -14 -104 -112q-10 -43 -36 -73q0 -53 -29 -127zM137 385v14q-14 -1 -14 -14h14z" />
    <glyph glyph-name="E" unicode="E" horiz-adv-x="647" 
d="M434 750q38 5 47 -5q54 -17 84 -35q40 -11 67 -59v-16q0 -17 7 -30v-66q-55 -83 -91 -192q-124 -149 -249 -149l-15 -23v-16q-23 -50 84 -111q121 45 189 191l53 27l19 -32q5 -41 -22 -106q-10 -37 -93 -143q-20 -52 -31 -56l7 -16v-15q-37 0 -56 -41q-15 0 -94 -38
q-134 20 -138 24q-35 21 -105 56q-16 8 -77 78q-36 88 -21 92l-10 16l-4 17v48q-16 26 -6 45q-17 188 148 410q124 150 248 150q41 0 59 -5zM334 342q23 0 108 71q11 25 7 79q-87 43 -115 -118v-32z" />
    <glyph glyph-name="F" unicode="F" horiz-adv-x="654" 
d="M378 859l7 16l16 -9l50 9v-9q9 0 9 9q102 -9 102 -29l-7 -16l22 -37v-8q0 -14 -22 -14v-7h15q0 7 7 7v-7q-13 -53 -28 -53l6 -14q-14 0 -14 -7v-23q-18 -52 -30 -52v-7l8 -15l-15 -6l-15 6v-6q14 -8 22 -8q0 -15 -15 -15q0 8 -7 8l7 -15q0 -14 -16 -14q0 8 -5 8l5 -16
v-44q0 -15 -13 -15l-16 6q0 -6 9 -6q-22 -116 -156 -229h-7v-16q25 0 37 -7q74 7 74 16l15 -9q8 0 8 9l13 -9q12 9 31 9v-9q111 32 111 62v6l-9 14q35 0 52 16l-6 14q1 16 13 16q0 -30 52 -30q14 7 23 7l-9 -37v-6l16 -23v-9q0 -31 -37 -50q0 -22 -95 -52q0 -8 -106 -38v8
l-29 -15l-13 7q-32 -20 -134 -29v-21q0 -8 8 -8l-8 -15q0 -51 61 -111q29 -74 43 -74v-49l36 -97l23 -75l-16 9v-9q33 0 45 -147q15 0 15 -45h-7q7 -13 15 -87h-15l7 -15v-51l-22 -30h15l-8 -38h-7v16q-14 -2 -14 -16h14v-6h-14q2 -15 14 -15q0 7 7 7v-23h-16q6 -13 16 -13
l-21 -90h5l-13 -36h8q-31 -35 -60 -103q-73 -73 -88 -73q-44 0 -44 -23l-28 14v-7q-113 40 -185 60q-45 50 -60 102h14q-23 19 -36 74q13 0 13 16q-6 0 -6 5h15q-15 35 -15 97q0 14 22 14v9h-16q0 -9 -6 -9v9l6 36h-6q22 228 44 339l-6 16q30 104 30 116q-9 16 -9 23
q25 27 37 222q15 0 15 36v37q0 58 -111 58l-7 16q7 0 7 8h-7v-8q-35 12 -60 30q0 -16 -6 -16q-24 16 -44 16q31 64 44 64q0 -7 6 -7q5 37 60 37q3 -14 13 -14h32q102 25 102 74q0 8 -8 8l22 153q-6 16 -6 31v6q22 33 43 142q46 85 89 110q0 22 22 22v44q26 38 52 38z
M370 851v-5h15v5h-15zM533 851v-5h16v5h-16zM431 846v-16l13 7l16 -7v16h-29zM504 830v-15h7v15h-7zM451 822q4 -15 16 -15v15h-16zM415 756v-16h8v16h-8zM423 727v-7h15v7h-15zM511 727v-7l30 -16v7zM370 720v-16h8v16h-8zM480 711v-7h16v7h-16zM511 667v-13h8v13h-8z
M334 593q7 -12 7 -21q-8 0 -22 -21v-16h15q0 29 15 44v8q0 14 -15 14v-8zM385 593v-14h9v14h-9zM431 587l-8 -15h8l7 15h-7zM460 587v-8h15v8h-15zM385 572v-15h9v15h-9zM460 564v-13q15 0 15 13h-15zM291 557v-6h13v6h-13zM297 513v-8q7 -12 7 -23q-13 -2 -13 -13v-16
q15 0 28 60h-22zM275 423q16 0 16 16v7q-16 -1 -16 -14v-9zM259 -394q24 0 24 -8l14 8l15 -8q37 11 37 24v7q-22 0 -22 13q-68 -13 -68 -29v-7zM451 -417v-7h24v7h-24zM259 -445l9 -15v-8l-13 -22v-66l-9 -37h9q-15 -35 -24 -155q8 -35 8 -73h-8l8 -16v-30l-16 9
q0 -24 -14 -24v-5q37 0 37 -134h13q30 0 53 147q7 0 7 7q0 9 -7 9q15 101 15 198l-8 15q8 14 8 22q-36 112 -36 125h6q-8 20 -14 67zM460 -527v14q-16 -1 -16 -14h16zM480 -586v-7h16v7h-16zM202 -697v-14h7v14h-7zM444 -748v-7h16v7h-16zM1 -801v-7h16v7h-16z" />
    <glyph glyph-name="G" unicode="G" horiz-adv-x="691" 
d="M303 534l73 7q10 0 22 -7l46 7h7q21 0 21 -31h36q8 0 8 8l14 -8l37 8q0 -18 45 -51v-8h-15v-7h15q0 7 8 7v-7q-23 -27 -23 -67q30 -94 30 -118l-7 -15h7q0 8 9 8v-8q0 -17 -9 -29q13 -36 13 -73h-4q13 -25 20 -82l-16 -6q0 6 -4 6q4 -13 4 -21l16 7l16 -53v-20l-8 -16
q20 0 29 -103q15 0 15 -66q-8 0 -8 -7h8q0 7 7 7q0 -45 15 -45l-15 -37q15 -23 15 -44h-8q8 -12 16 -66l-16 -7l8 -14v-8l-8 -16h16v-44h-23q0 -13 31 -13l-8 -16l8 -14q-8 0 -8 -9h8q-8 -22 -16 -22l21 -42l-13 -23l8 -37q0 -15 -16 -45h16v16h5v-23h-5l5 -16v-14
q0 -37 -13 -37l8 -13v-23q-24 0 -24 -15v-15h16q-6 -43 -23 -66h7l-7 -16v-6h23l-16 -23q0 -7 8 -7l-8 -14v-7q0 -8 8 -8q-8 -13 -8 -22h-7q0 18 -7 30q7 0 7 7l-15 8v-8q0 -12 15 -45q-11 0 -22 -28h7q15 0 15 20h7v-20q-11 0 -37 -66q-7 0 -7 -9l15 -7q-8 -26 -8 -52h-7
v15h-6v-22h13q-6 -30 -36 -60q7 0 7 -7q-20 0 -20 -7q4 -9 4 -36q-20 0 -20 -16v-7q16 0 16 -8q0 -29 -39 -29v-7h15q-38 -63 -38 -81q-13 -31 -20 -31l7 -13q-25 -66 -45 -66v14q-15 -1 -15 -14v-16h15l-8 -36l-15 7q-9 0 -21 -22q8 0 8 -8q-45 -22 -60 -22v-8h24v-6
l-68 -22q0 14 -14 14l-8 -14q-34 8 -38 28q16 0 16 15h-16l-7 -29h-14q-7 0 -7 8l-16 -8q-36 0 -36 22l-14 -8h-9q0 11 -29 45q9 12 9 29q-28 0 -46 97q-7 0 -7 7h7q0 6 -7 6q7 89 7 127v29q23 0 23 23q-4 18 -6 30q-2 9 -2 13q44 89 44 104q-7 14 -7 22l37 59l-7 14v22
q27 0 37 81q8 0 50 118q11 0 46 110q43 71 43 96l15 -6q0 47 31 88q5 56 21 73v46q0 7 -8 7q8 0 8 88h-8q8 15 8 22q-8 22 -15 22q15 24 15 44q-16 0 -37 111l9 15v14q-30 48 -30 81h6q-20 59 -29 59q-47 -24 -96 -88q-93 -44 -118 -44q-49 0 -126 44v-14h-6q0 10 -37 36
q0 7 -23 7v9q3 13 16 13v-13h7v7q-7 13 -7 21l-16 -8q-14 49 -14 61q5 102 14 102q23 0 23 15h-7q0 -6 -9 -6l-7 28q23 38 23 51q-7 0 -7 8q47 30 66 118q89 140 110 140h7l-7 16q22 0 22 13zM280 385v-7h15v7h-15zM259 289q-29 0 -66 -73q-30 0 -61 -141l15 -21q-7 0 -7 -7
q7 0 7 -8q12 0 30 29q36 0 59 45q53 60 80 133q12 0 30 37v6q0 8 -7 8l7 16q0 53 -22 58q-29 -6 -72 -66zM612 91q8 0 24 -8q0 8 4 8q-4 13 -4 22q-16 -8 -24 -8v-14zM627 -233v-7h13v7h-13zM693 -270v-16h7v16h-7zM480 -293v-13h7v13h-7zM685 -432v-9h15v9h-15zM708 -595
v-6h30v6h-30zM738 -736l-16 -29v-15h8q0 21 16 44h-8zM457 -743v-14h7v14h-7zM435 -765q-25 -97 -59 -156q-24 -112 -37 -130h7q-37 -83 -66 -274h8q-16 -59 -22 -59q6 -8 6 -60h8q0 24 23 24q1 -15 13 -15h8q0 22 -21 22q16 59 29 59v-15h7v7q-7 17 -7 24l37 65h7
q-7 38 -7 45q35 83 66 294q3 0 29 13v9h-20l7 15h-7q20 54 20 66q-7 0 -7 8h7l-7 14v29l7 15h-29zM693 -780q4 -13 15 -13v13h-15zM700 -809v-7h22v7h-22zM656 -839v-14h8v14h-8zM685 -868v-14h8v14h-8zM620 -897q1 -15 16 -15v15h-16zM649 -912l-9 -16h9l7 16h-7zM627 -941
q9 -12 9 -29h4v21zM700 -941v-8h15v8h-15zM604 -949v-15h8v15h-8zM524 -964v-6l14 -8v8zM656 -970v-8l16 -7v7zM678 -1015q0 -5 -6 -23h6l7 15v8h-7zM627 -1044l-7 -16q12 9 20 9v7h-13zM640 -1074v-7l16 -8v8zM664 -1074v-15h8v15h-8zM664 -1141v15q-15 -1 -15 -15h15z
M583 -1170v-7h14v7h-14zM636 -1223h13q-11 31 -22 31q9 -12 9 -31zM493 -1199v-16h15v16h-15zM604 -1228v-15h8v15h-8zM554 -1236q0 -7 -8 -23h8q0 16 29 16v7h-29zM561 -1302h13q0 13 -13 13v-13zM530 -1309v-16q16 0 16 16h-16zM554 -1338v-31h13v31h-13zM597 -1338v-9h15
v9h-15zM346 -1362v-22h8q0 9 8 22h-16zM391 -1384v22q-15 -1 -15 -15zM487 -1377v-7h14v7h-14zM546 -1384q8 -12 8 -29h13q-6 15 -6 29h-15zM516 -1407v-13h8v13h-8zM524 -1428v-22h6v22h-6zM501 -1510q23 0 23 -13h6l8 36q-8 0 -8 -7l-14 7q-15 -1 -15 -14v-9zM398 -1530
v-9l16 -7v7zM480 -1591v-6h21v6h-21z" />
    <glyph glyph-name="H" unicode="H" horiz-adv-x="747" 
d="M388 1182v-29h-15q7 -82 15 -82q-5 -44 -30 -44v-14l15 7h7l-22 -89v-22h-9l9 -36v-15q0 -19 -14 -46l5 -13q-13 -32 -13 -44l8 -16q-9 -72 -31 -88h16v-7h-16v-15q0 -9 7 -9q-8 -41 -21 -57v-9q14 0 14 -7q-14 -23 -14 -42v-8q0 -8 7 -8q-11 -45 -23 -45l9 -13
q-16 -24 -16 -38h16q0 36 44 74q0 33 52 74q22 34 22 43q14 7 21 7l29 -14q38 0 38 23q46 0 104 -95l6 -31q0 -7 -6 -7l6 -36v-8q0 -52 -21 -52q17 -28 21 -132q-28 -54 -28 -60h7q0 7 7 7q-14 -105 -23 -118q9 -12 9 -29v-8l-15 -22q6 -28 15 -28l-9 -16q4 -13 16 -13
q36 13 36 20l15 -7h6l-6 16q154 154 170 154q28 -3 58 -73v-8q0 -30 -51 -73q0 -38 -36 -38q0 9 -7 9v-16h14q-7 -14 -7 -21h-7l-16 6l-14 -22h14v-16h-14l-16 8q0 -21 -22 -21v-8q0 -7 9 -7q-12 -30 -23 -30v15l-14 -7l6 -16v-8q-17 0 -30 -13q-12 8 -21 8l7 -15h-15l-15 7
v-16h-21l-37 29v-13h-29l-16 8q0 -8 -7 -8q0 13 -14 13l-38 -5q0 16 -28 21q-28 13 -45 66q7 0 7 8h-7l7 16q0 14 -22 14v14l7 15h-16v7l9 16q-14 0 -22 44q0 6 8 6l-8 37l8 37q-8 12 -8 30h-16l-28 -67h-9l-13 7q6 -21 13 -21l-7 -15q7 -14 7 -22q-23 -36 -36 -36l7 -16
h-20v-7h13v-6l-29 -23l-22 -30q7 0 7 -8l-15 -8q0 8 -7 8v-8h7q-15 -22 -15 -43q-7 0 -7 7q-12 -7 -22 -7l-30 15l-14 -8q-87 26 -88 44q6 0 6 8l-14 -8q-12 8 -23 8q0 -8 -6 -8q0 12 -23 45h16q-23 27 -23 52h15v6h-15v23h15v14h-15l15 23l-15 8q15 95 23 95l-8 16v13h15
v15l-15 -8v8q14 104 36 104l-15 21l15 36q-7 0 -7 9q23 0 23 28l-8 16q32 119 58 192l-7 13v31q23 0 36 104q9 0 9 7t-9 7q46 218 97 346q8 78 15 90l-7 14q7 11 7 36h15q33 0 58 8q83 0 112 -81zM336 938v-7h13v7h-13zM587 497v-16h7v16h-7zM608 -57h15l8 15q-14 -6 -23 -6
v-9zM173 -64q3 -15 15 -15v15h-15zM395 -64v-7h15v7h-15zM660 -123v-15h16v15h-16z" />
    <glyph glyph-name="I" unicode="I" horiz-adv-x="519" 
d="M459 1110q15 -1 15 -15q65 10 65 15q23 -1 53 -52q22 0 22 -15q-8 -12 -8 -21l-14 7l6 -15q0 -45 -88 -111q-96 -73 -170 -73v16h-88q0 17 -22 36v14l15 23v6q0 16 -29 16v7q0 57 82 81q0 -7 6 -7q0 21 14 21h16l13 -8v8q-7 0 -7 8q91 26 104 53q-7 0 -7 6h22zM474 1058
v-15h8v15h-8zM437 1035v-13h7v13h-7zM311 1014v-7l16 -8v8zM539 1014v-15h9v15h-9zM334 683h22l52 7q0 -16 29 -45v-7h-15q2 -14 15 -14q-5 -81 -15 -81q10 -81 22 -90l-15 -7q0 7 -7 7v-7q15 -1 15 -14h-8l8 -16q0 -7 -8 -7l8 -14l-23 -29q15 -4 15 -15v-22h-29v-8h29v-37
h-15v-14h23v-15q-14 0 -29 6h-8v-6q26 0 37 -44h-8l8 -16v-13l-8 -15h8l-8 -16q0 -37 23 -37q0 -10 -30 -51v-8h7l15 8q0 -37 8 -37l-8 -15q15 -26 15 -58q-17 0 -30 7h-7v-7q22 0 22 -24l15 8h8q0 -56 29 -66q0 8 7 8v-16l16 8q43 -26 43 -37q-7 0 -7 -7h7q0 7 7 7
q0 -21 23 -59h-7l13 -43l-29 -30v6l9 16h-16q0 -30 -43 -30l-75 -23h-7l-15 8l-8 -14q-58 5 -58 22l-16 -8h-13q0 29 -23 29q0 -6 -6 -6q0 11 -37 66q-11 37 -31 37v9l15 20h-8l-13 -7q0 29 -16 44v8q22 0 22 14h-6l-16 -7q-6 44 -22 67q15 0 15 14h-7q0 -7 -8 -7v22h15v8
q0 7 -7 7l14 29q-7 13 -7 22l-15 -9h-15v9l8 15q-8 0 -8 8q8 0 8 7q-15 0 -15 14v9h22v7q-15 0 -31 6l9 15l-9 38h-13q-72 -78 -163 -119q-7 0 -7 7q-23 -16 -38 -16v9q0 38 98 147l44 66q0 45 66 111q0 37 44 110v23h-15q3 14 15 14q0 -6 8 -6q0 6 7 6q-7 17 -7 24
q0 9 7 21l-7 44v22q0 31 73 31l-6 13q37 0 37 16zM356 674v-7q6 0 21 -6l9 13h-30zM347 476v-7h24v7h-24zM386 453v-7h14v7h-14zM150 403v-8q9 0 21 -8h8v8q-8 0 -24 8h-5zM237 224v-6h15v6h-15zM230 203v-15q13 7 37 7v8h-37zM393 188v-14h7v14h-7zM194 174v-7h14v7h-14z
M327 145v-8h13v8h-13zM-6 78v-7h15v7h-15zM356 48l-9 -13h9l7 13h-7zM179 35q15 -4 15 -16h-15v16zM377 11h23l8 15h-8q-14 -7 -23 -7v-8zM408 -3v-7l14 -8v8zM201 -47v-8h15v8h-15zM422 -71v-13h7v13h-7zM252 -107v-22q15 0 15 15zM290 -186v-16h8v16h-8zM548 -210v-15h7
v15h-7zM555 -232v-15h7v15h-7zM569 -232q9 -12 9 -23h7v16zM467 -239v-16h7v16h-7zM422 -261v-7h15v7h-15zM510 -268q2 -15 15 -15v15h-15zM334 -292h13q16 9 24 9v7h-15q-12 -7 -22 -7v-9zM539 -276v-16h9v16h-9z" />
    <glyph glyph-name="J" unicode="J" horiz-adv-x="377" 
d="M273 1068q0 -16 9 -16l28 16l74 -66v-7q0 -42 -38 -53l9 -15v-7l-37 7h-8l-37 -30q-116 5 -116 23l6 15h-15v-15q-43 0 -58 59q87 48 87 59q82 6 82 30h14zM134 492l36 8h53q44 -23 44 -38q-15 -7 -23 -7v-6h8q15 6 21 6q21 -35 31 -36l-7 -38v-43q0 -62 21 -89v-28
q0 -9 -8 -9q20 -61 30 -66l-7 -15v-29q1 -16 13 -16l-6 -13v-24q0 -30 15 -58l-15 -28q20 0 29 -68q0 -7 -7 -7l7 -36v-53l9 -14q-9 0 -9 -7h9q-10 -53 -16 -53q16 -30 22 -88h-6q0 -7 6 -7l-6 -37v-14l6 -15q-15 -3 -15 -15h9l-9 -16q3 -13 15 -13l-6 -16l6 -36h-15l9 -14
v-16q0 -8 -9 -8l9 -13v-16l-16 -22v-15h16v-29q-23 0 -23 -16h23l-9 -13q1 -15 15 -15q-15 -23 -15 -38l-14 9v-9q7 -12 7 -20v-8h-7v13q-15 0 -15 -13l15 -8l-9 -15l9 -43l-15 6v-14l-22 14q0 -16 -8 -29q18 0 30 -9v16h6v-20q-6 0 -6 -9h6q-6 -15 -6 -23h-14v16l-22 -16
h-7q0 18 -8 32h15v13q-12 0 -22 -22l-38 13q8 -28 45 -28l-7 -15l7 -14h-7l7 -16q0 -21 -37 -21l7 -16q-29 0 -29 -37h-14l7 15h-16v-7l9 -14l-16 -7q0 7 -7 7q0 -7 -7 -7v28q-9 0 -9 16h-7q-24 0 -44 -89h-14v16l14 21q-23 -15 -36 -15l7 -13h-7l-23 13v-6q15 -4 15 -16
l-15 -7h-7l7 16q-30 0 -58 28v15l15 -7l14 7q0 -7 8 -7v13h-15l-16 -6q0 6 -6 6v-6q-37 29 -53 29q0 8 9 8l-9 14v8l9 15h-9q0 -7 -7 -7l-7 13v16l14 -9h9q-37 34 -37 82h8l13 -7l-7 15v8h14q0 13 -14 13q0 -29 -22 -29v37l-15 -8q-11 21 -30 90q9 51 15 66l-15 51
q8 0 24 30q0 8 -9 8q9 81 23 103q-14 0 -14 13q25 0 43 119h14l-7 15q16 0 16 14q0 8 -9 8q83 170 104 170h22q-7 14 -7 22l22 -16v8q-15 0 -15 15q0 7 8 7l-8 15q0 19 15 44h-7q0 -7 -8 -7v29h15q-15 31 -15 53q8 0 8 7q-10 0 -30 103q0 7 7 7q-9 70 -21 340q8 0 80 14
q8 0 8 -8zM90 375v-8h15v8h-15zM193 93v-13h7v13h-7zM148 86l-7 -13h7l9 13h-9zM157 -17v-13h6v13h-6zM112 -127v-36h8v36h-8zM193 -141q7 -15 7 -22h7v15zM157 -163v-30h6v30h-6zM31 -245q11 0 21 -23h-14l8 -36l-15 -7q7 -14 7 -22l-7 -37h7q-7 -12 -7 -23l-16 8l9 -14v-8
h-15v-14l15 7v-95h-9v20q-14 -1 -14 -14q14 -1 14 -14v-8l-21 -37q15 -1 15 -15q-8 -12 -8 -22q9 -22 14 -22q0 -7 -21 -60q7 0 7 -7h-16l16 -43q-7 -16 -7 -23q7 0 7 -8h-7l7 -13l-7 -16q15 0 15 -22l15 8h7v-15h21q14 82 30 82l-7 14v15q9 0 22 8q0 -8 8 -8q0 9 7 21v7h-7
q0 -20 -30 -20q7 13 7 20l15 -7v16h-15q0 17 8 29q-8 16 -8 22l15 30q-7 14 -7 29h15l15 -8q0 6 6 24l-14 6h-7v-15h-8v23h15v15h-22q7 14 7 21h8v-13h7v20h-15v16l15 -7l-7 13l7 16q-15 0 -15 15v29h15v14h-15v23q0 18 8 30q-9 30 -23 52l23 29h-15v44q0 6 -8 6l8 16v7
q0 14 -15 14q0 -11 -44 -73zM112 -193v21q-15 -1 -15 -14zM346 -193v-22h9v22h-9zM141 -201v-8h22v8h-22zM112 -215q0 -6 -7 -23h7l8 16v7h-8zM15 -222v-16h9v16h-9zM134 -222l-8 -16v-7h8q0 8 7 23h-7zM9 -259v-9h15v9h-15zM148 -275h15q0 16 -15 16v-16zM267 -275v-13h6
v13h-6zM112 -297l-7 -14h7l8 14h-8zM-22 -304q4 -15 16 -15l7 15h-23zM148 -319l-7 -14q7 0 7 -7q-7 0 -7 -8h7l9 15h-9l9 14q0 15 -16 15zM177 -325h16q0 14 -16 14v-14zM120 -333v-7h14v7h-14zM-28 -348v-15h6v15h-6zM15 -348v-15h9v15h-9zM-22 -385q0 -6 -6 -22l13 -7v29
h-7zM157 -385v-8h13v8h-13zM148 -414l22 -16h7v9q-11 0 -29 14v-7zM-64 -436q13 0 13 15v7q-13 -3 -13 -16v-6zM230 -414l-7 -16h7l6 16h-6zM-22 -421v-9l16 -6v6zM200 -430v-14h7v14h-7zM223 -451h13q0 15 -13 15v-15zM163 -444v-16h7v16h-7zM252 -444v-7l15 -9v9z
M230 -460v-7h22v7h-22zM318 -467l-8 -13q2 -16 16 -16l-8 16l8 13h-8zM126 -489h15q0 16 -15 16v-16zM170 -496v23q-11 0 -29 -30q13 7 29 7zM193 -489l-7 -14v-6h7q0 11 14 36h-7q-14 -1 -14 -16h7zM230 -480v-16h6v16h-6zM333 -496v-13h7v13h-7zM163 -503v-14h7v14h-7z
M223 -509q7 0 7 -8q-14 0 -44 -74h14v29h16v-8l-9 -13v-8h9l7 29h-7q0 17 28 53q-7 0 -21 6v-6zM304 -503v-14h6v14h-6zM-22 -509v-16l16 -7q-9 13 -9 23h-7zM120 -525h14q0 16 -14 16v-16zM273 -532v23q-14 -4 -14 -16zM200 -517v-15h7v15h-7zM-51 -546q11 0 23 21
q-30 -12 -30 -21h7zM148 -555v23q-14 -1 -14 -14zM186 -532l-9 -30v-8h9l7 30v8h-7zM333 -532v-14h7v14h-7zM157 -570q2 -13 13 -13v6l-7 15q7 15 7 22q-13 -3 -13 -15v-15zM259 -540l-7 -30l21 -13v6q-14 0 -14 15l8 16v6h-8zM346 -546v-16q16 0 16 16h-16zM-22 -562v-29
h16q-9 12 -9 29h-7zM304 -570l-7 -13v-8h7q0 14 14 14v7h-14zM326 -570q0 -13 -16 -13v-8h16l7 14v7h-7zM236 -577q8 -12 8 -22q-8 -13 -8 -22h16l7 30zM82 -583h8v-16h-8v16zM148 -591q0 -8 -7 -22q22 0 22 -15h-15v-8h15q7 13 7 30l16 -7l7 14q-10 0 -23 8v-15h-13v15h-9z
M340 -591v-15l-14 7v-7q7 -15 7 -22h7q0 15 15 15v22h-15zM-72 -599v-14h8v14h-8zM120 -613v14q-15 -1 -15 -14h15zM126 -599v-29l-14 7h-7v-7q15 0 15 -15h6l8 30v14h-8zM223 -672h7v15q0 21 -23 21v23l16 -8v22h-7q-10 0 -23 -29q30 -12 30 -44zM297 -599v-7h13v7h-13z
M267 -613l15 -23q-9 0 -9 -7l-14 7h-7q0 -11 21 -21q16 0 24 44l-15 -8q0 15 -15 15v-7zM-87 -621v-15h7v15h-7zM105 -643v-22h7v22h-7zM163 -643q0 -11 -15 -29h15q0 8 7 20v9h-7zM326 -643l-8 -14h8l7 14h-7zM126 -652v-20h8v20h-8zM200 -652q0 -13 -30 -36l16 7h14
l-30 -36l16 8h7v-15h7v15h-7l23 37h-16l7 15v5h-7zM340 -652q3 -13 15 -13v13h-15zM289 -672q18 0 37 -16l7 16v7l-15 -7l-8 15q-12 -8 -21 -8v-7zM236 -688q16 0 16 16v7q-16 -1 -16 -16v-7zM-101 -672q0 -10 -9 -22h9l6 13v9h-6zM-44 -688v-6h16v6h-16zM223 -688v-13
q7 0 7 -8q-7 0 -7 -8h7q6 0 6 8l16 -8q15 0 15 16h-8q0 -8 -7 -8v15l-16 -7h-6v13h-7zM267 -688q3 -13 15 -13h7v13h-22zM310 -694v-15h8v15h-8zM-22 -701v-16h7v16h-7zM157 -701v-16h6v16h-6zM-44 -709v-15h16v15h-16zM267 -717q0 -8 -8 -21h8l6 14v7h-6zM333 -717l-7 -14
h7l7 14h-7zM97 -738h15q0 14 -15 14v-14zM216 -738v14q-16 -1 -16 -14h16zM236 -724v-23q16 0 16 16zM282 -724v-14h22v14h-22zM-28 -731v-16h6v16h-6zM273 -747v-7h16v7h-16zM310 -747v-7h16v7h-16zM-35 -783q-9 12 -9 29q-14 -1 -14 -13zM105 -754q7 -12 7 -29h8v21z
M-95 -767v-31l15 7q-7 17 -7 24h-8zM207 -775q4 -16 16 -16v8q0 16 -16 16v-8zM75 -805h15q0 14 -15 14v-14zM297 -791v-14h7v14h-7zM112 -820q14 7 22 7q0 15 -14 15q0 -7 -8 -22zM216 -798v-15h7v15h-7zM-132 -798h15v-7h-15v7zM170 -805v-15h7v15h-7zM310 -805v-23
q16 8 23 8q0 15 -15 15h-8zM105 -828v15q-12 0 -23 -22q15 7 23 7zM60 -820v-8h15v8h-15zM134 -835v-14h7v14h-7zM244 -835v-14h8v14h-8zM289 -849v14q-16 -2 -16 -14h16zM297 -835v-6h13v6h-13zM120 -841v-16h6v16h-6zM24 -849q1 -15 14 -15h8q0 15 -15 15h-7zM90 -849v-8
q1 -16 15 -16v24h-15zM236 -857v-7h16v7h-16zM52 -864v-9l15 -4v4zM-28 -877v-9l13 -7v7zM177 -877v-16l23 -16v16q-14 0 -14 16h-9zM207 -893h16l7 16q-13 -9 -23 -9v-7zM82 -886v-7h15v7h-15zM126 -893v-8h15v8h-15zM90 -916h7q13 7 23 7v8h-8q-15 -8 -22 -8v-7zM157 -923
h6q0 7 7 7q0 -7 7 -7v7q0 15 -14 15q0 -6 -6 -22zM-15 -909l-7 -14q17 7 23 7v7h-16zM38 -930h14q0 9 -21 21q7 -14 7 -21zM259 -916v-7h14v7h-14zM223 -923l-7 -16q0 -13 14 -13l-7 13l7 16h-7zM236 -923v-7h16v7h-16zM82 -946h15l8 16q-13 -9 -23 -9v-7zM120 -952h6v6
q32 -13 44 -13q0 13 -44 20zM75 -1012l-23 37h-14q2 -14 14 -14l-6 -16v-7h6v15q5 0 45 -44l-7 15v6q1 15 15 15q0 -7 7 -7v7q-7 0 -7 8q29 0 29 22v8q-44 -18 -44 -45h-15zM9 -983v-6h15v6h-15zM200 -983v-6h16v6h-16zM-15 -989q5 -16 16 -16v16h-16zM52 -1020
q3 -13 15 -13v13h-15zM112 -1020v-6h14v6h-14zM148 -1012h15q0 -14 -15 -14v14z" />
    <glyph glyph-name="K" unicode="K" horiz-adv-x="697" 
d="M265 1621l37 7h14v-14l37 7q23 -58 23 -74q-8 -12 -8 -23q-15 0 -15 15q15 0 15 16l-15 -8h-7v14h-8v-6l23 -37l-8 -15h8q-9 -38 -15 -38q0 -7 7 -7l-7 -88v-23l7 -36l-15 8l-7 -16h15v-66l-15 -22v-8h15v-16q-20 -36 -59 -36l-30 32q14 0 14 13v7h-21q0 -7 7 -7l-7 -13
l15 -24v-8l-15 8h-9v-8q6 0 24 -6q3 14 15 14l14 -21h-14v-15l36 7l-8 -15q23 0 23 -14h-37l8 14l-15 -7l-30 15q0 -12 30 -30v-8h7l37 8v-16q-12 0 -29 -13v13h-15l-16 -5q0 5 -6 5v-13h-31v21l-13 -8h-16v16h-7q0 -15 -6 -29l13 8h7v-15l16 7q13 -7 29 -7q0 -23 -29 -23
v-7q10 0 22 -8v8l15 -8h6v15h9l14 -7v7l-14 7l-15 -7l-8 14l14 9q0 -9 9 -9v9q-9 0 -9 7l16 8q0 -14 29 -38q-9 -149 -22 -192h8l-8 -15q0 -8 8 -8q-8 -10 -15 -65l7 -45q-14 -26 -14 -59v-7q0 -16 7 -29q-6 -11 -16 -75q16 -19 16 -51q27 6 110 97q120 73 156 73h7
q51 -37 51 -66q-76 -45 -178 -141q-7 0 -7 -6q8 0 46 -45q-9 0 -9 -7q29 -12 29 -22q-6 0 -6 -8q59 -25 59 -73q37 -23 37 -60q20 0 73 -118q11 0 22 -23q-13 -2 -13 -13q12 0 57 -81l16 -8q18 38 57 38q10 -44 66 -90q-14 -74 -36 -74l-50 8q0 -14 -16 -14q-205 14 -205 58
h-8v-16q-97 80 -132 128v36q-18 0 -52 58q-50 111 -59 111h-15l-7 -36v-43q1 -16 14 -16q-5 -30 -23 -30v-7q23 0 23 -16l-14 -21h22q0 -17 -8 -29q8 -13 8 -23h-8q11 -30 22 -30l-8 -13q23 -91 23 -133h-8l-43 7h-111q-48 0 -96 66q7 0 7 7q-16 0 -31 66q-5 0 -5 8t5 8
q-36 201 -36 222h16v13q-22 0 -22 7q0 42 -7 140l7 68l-7 13q13 75 13 149q0 4 -6 22q4 29 22 29l-9 15v7q0 45 24 213v16h29v7h-15v59q3 16 15 16l-8 13l8 15q-8 14 -8 22q15 0 15 -22h8q24 22 36 22v7l-6 16q6 0 6 8l-29 5v8q33 0 44 8q-8 13 -8 22h-7v-22h-14v22h-8
q0 -22 -14 -22h-8v66h8q14 -8 22 -8v16l-15 -8q0 24 -7 24l7 13l-7 15q16 0 43 198q-7 17 -7 23q7 29 7 52l15 -7v7q-15 0 -15 15v15q0 6 8 6l-8 15v8q15 0 15 28l15 -7l-6 16v7l14 -7v7q-8 0 -8 7h15l-7 16v7q11 0 23 -30q-16 -1 -16 -16v-7h8q14 0 14 16h-6q6 14 6 30h14
l-7 -39q7 0 23 -7v7q-16 0 -16 16q3 20 45 37q8 0 8 -7zM294 1621q0 -6 -7 -23h7l14 23h-14zM257 1605q8 0 8 -7h-15q7 -14 7 -23h8q0 23 15 23v7q-10 0 -23 9v-9zM228 1605v-14h6v14h-6zM308 1605v-14q8 0 8 -7h-14l6 -16v-7l-14 7q-14 -1 -14 -13l14 6l14 -6q6 29 15 29
q-7 14 -7 21h-8zM198 1568v-7h14v7h-14zM169 1561v-6h15v6h-15zM176 1547v-15h16v15h-16zM198 1547v-8h14v8h-14zM228 1547v-8h13v8h-13zM280 1503q-9 0 -9 -8h9l7 16h-7l7 13v8q-17 0 -30 7zM221 1511v-16h7v16h-7zM294 1495h22q0 8 7 8v-15h8v15q-8 0 -8 8q-12 -8 -29 -8
v-8zM155 1488q2 -15 14 -15v15h-14zM302 1473h14q0 15 -14 15v-15zM184 1481v-16h8v16h-8zM265 1465v-7h15v7h-15zM316 1451v-15h7v15h-7zM169 1413q3 -14 15 -14v8q0 15 -15 15v-9zM205 1407h16q0 15 -16 15v-15zM192 1383q8 0 20 -7v16q-7 0 -20 7v-16zM308 1399v-23h8v23
h-8zM176 1376v-6h16v6h-16zM146 1363v-8h15v8h-15zM308 1363v-16h8v16h-8zM294 1334q8 0 8 -8q-8 0 -8 -7h14l-6 -16h21q-19 37 -29 37v-6zM205 1334v-15h16v15h-16zM221 1311q2 -14 13 -14v14h-13zM308 1230q3 -15 15 -15v8q0 14 -15 14v-7zM184 1223q0 -23 -23 -23v-9h23
q0 11 8 24v8h-8zM155 1187v-9l14 -7v7zM192 1178q1 -15 13 -15v15h-13zM146 1142h15q0 13 -15 13v-13zM118 1149v-7q9 0 21 -8v8l-15 7h-6zM184 1134v15q-15 -3 -15 -15h15zM221 1097h7v8h-16v14q29 15 45 15l-7 15q-33 -12 -45 -37q1 -15 16 -15zM331 1155h7v-13h-7v13z
M192 1119q12 0 20 23q-12 -8 -20 -8v-15zM331 1134h15v-7h-15v7zM250 1097v15q-16 -1 -16 -15h16zM169 1105v-8q7 0 23 -8v8l-16 8h-7zM257 1097v-8h14v8h-14zM73 1089h15q0 -13 -15 -13v13zM161 1081v-5h15v5h-15zM241 1081v-5h16v5h-16zM110 1061q0 -11 -22 -23
q-15 0 -15 14q7 17 7 24q16 -15 30 -15zM176 1068v-7q8 0 8 -9q-15 -1 -15 -14q7 0 23 -7h6v7h-14v7h21v-14q16 0 16 14zM331 1076v-15q0 -16 -15 -16l-8 16q2 15 15 15h8zM146 1052v-7q9 -13 9 -22h6v22zM80 1015v-13q15 0 15 13h-15zM131 1015v-13h8q16 0 16 13h-24z
M241 1015v-7l16 -6v6zM118 1008v-13h6v13h-6zM80 986l-7 -15h7l8 15h-8zM88 971v-14h7v14h-7zM118 957v14q-16 -2 -16 -14h16zM250 966v-16h7v16h-7zM257 611v-9h14v9h-14zM456 6v-7h16v7h-16z" />
    <glyph glyph-name="L" unicode="L" horiz-adv-x="520" 
d="M540 1652h7q0 39 14 39q28 -10 45 -59q-8 -12 -8 -22q23 -7 23 -44h-7l7 -16v-103q-38 -29 -53 -132l-73 -162q-7 0 -7 -8q7 0 7 -8h-15v16h-6v-8l6 -30q-34 -81 -51 -81v-7q0 -7 7 -7l-37 -118l-15 7q8 -15 8 -22q0 -22 -37 -36v-23l-7 -36h7l-15 -46q15 -23 15 -44v-7
l-7 -14h7l-7 -15v-15h15q-8 -36 -15 -36q7 -90 15 -90l-8 -15v-29l8 -14q-15 -2 -15 -15q7 -128 15 -132l-15 -60q7 -14 7 -21q0 -10 -15 -66h8l-8 -16v-29q0 -7 8 -7l-8 -16v-37q0 -177 29 -177v-8h-14l8 -36h13q0 14 53 59q0 41 45 46q0 29 21 29l37 -23l-58 -198
q-9 0 -32 -30l9 -16v-7q-29 0 -59 -44l-80 -30q-12 0 -53 30h-37q-131 0 -177 81q0 52 -14 52l7 13q0 19 -7 31v22q-6 0 -23 81l7 15q-7 14 -7 23h7q-15 32 -15 66q8 0 8 7q-8 0 -8 8h8q0 6 -8 6l8 37v16l-8 14h15v15l-7 51h16l-16 22l7 16q-15 0 -15 13q0 9 24 23
q-9 22 -16 22l16 36q-9 12 -9 29v16l16 -7v7q-7 13 -7 30q7 0 7 7q-7 0 -7 8h14v8q0 13 -14 13q13 74 28 74v16h-14q13 51 23 147q-9 0 -9 8q16 0 16 13l-7 37q7 0 7 7h-7q9 46 20 59h-13q24 154 37 179q0 6 -8 6q8 25 8 67l15 -7h7v21l-16 -8q0 106 81 318q68 114 97 148
q6 0 51 81q29 0 29 29l15 -7q90 45 90 59q2 14 14 14q52 -25 52 -53zM561 1652v-5h15v5h-15zM355 1315q-15 -66 -15 -80q8 0 8 -9q-16 -1 -16 -15l8 -15q-14 -23 -14 -43l6 -30v-8h-6v15h-7v-7q12 -32 21 -80q-8 -12 -8 -30q30 0 82 192q0 37 28 66q-6 14 -6 21q6 29 29 29
l-7 16v8l16 -8h6v8q-22 0 -22 13q7 0 7 7q-7 0 -7 9q7 0 7 7h-7q7 22 16 22q0 8 -9 8q7 73 15 73q-15 29 -15 53q-72 0 -110 -208q-15 -1 -15 -14h15zM319 1358q2 -13 13 -13v7q0 13 -13 13v-7zM480 1358v-6h15v6h-15zM319 1321q13 0 13 16h-6q-14 -2 -14 -16h7zM142 1071
v-14h21v14h-21zM282 947v-9h14v9h-14zM326 938v-7h14v7h-14zM192 858v-22h8v22h-8zM326 710v-8h14v8h-14z" />
    <glyph glyph-name="M" unicode="M" horiz-adv-x="1162" 
d="M1185 625q11 0 36 -118l-7 -15v-22q0 -8 7 -8l-59 -257q-8 0 -8 -7q8 -13 8 -23q-10 0 -29 -66h-15v-7h15v-9l-8 -13h8q-24 -84 -45 -126h8q-28 -80 -37 -89l8 -13l-53 -111l15 7v-7q-9 -74 -23 -74q-12 8 -20 8v-15l14 7q0 -22 6 -22q-35 -118 -42 -118v-7q6 0 6 -9
q-50 -20 -66 -20q0 10 -37 29q-7 0 -7 -9q-66 0 -88 141l13 66q-6 32 -6 60q6 0 6 7h-6q1 22 37 52h-15l7 36h-7q7 22 15 22l-8 15v23h14q0 73 38 132q0 21 7 21l-7 16q0 13 15 44q-8 0 -8 9q21 9 60 146h-9q59 139 59 191v31q-6 0 -44 -61l8 -13q-41 0 -119 -184
q-37 -37 -37 -97q-11 0 -20 -22l7 -15q0 -10 -53 -66l16 -8l-9 -13l9 -15q-11 -30 -23 -30q0 7 -6 7q0 -15 -23 -15l7 -15v-6q-21 0 -21 -46h-9q0 15 -7 15q-6 -2 -12 -3l-5 -1l-3 -1l-9 -1q-18 6 -22 6q-23 -15 -44 -15q-118 39 -118 82l-16 23v57h-29q0 -17 -53 -95l-13 8
v-8h9l-16 -28l-16 7h-7v-7q7 -15 7 -24l-30 -22v16h-13l6 -16l-13 -7l7 -15q-7 -14 -7 -22l-37 8q-16 -8 -23 -8q0 15 -7 15h-23v7h-7q0 -4 -6 -22l-16 8h-7l-14 -8q0 12 -96 28q0 29 -30 98l7 45q-15 0 -15 13q0 8 8 8l-8 15v29q0 89 23 89v14l-15 -7q0 47 -8 73
q17 0 23 60q0 6 -8 6q11 156 59 156v7l-8 16l23 13q7 0 7 -7q15 0 59 14q15 0 59 -14l16 7q57 -18 57 -44q-6 0 -6 -6q9 0 43 -53l-43 -52q-15 -92 -23 -213l16 -9q67 119 82 119h4l-4 16q25 25 73 147q39 21 95 29l8 16q29 -4 52 -9q19 -3 30 -7q13 7 20 7v-7l-7 -15l15 -6
v13q12 0 21 -58q-10 -44 -21 -60v-29l8 -14l-16 -7q16 -55 16 -89q48 29 110 176q14 4 88 134q70 102 103 103l-6 15v6q87 53 140 53q118 -27 118 -67zM11 360v-16h9v16h-9zM78 351v-7h15v7h-15zM329 20v-7h13v7h-13zM196 -105h16l7 15q-16 -9 -23 -9v-6zM1037 -90v-22
q15 0 15 13v9h-15zM948 -489v16q-15 -1 -15 -16h15z" />
    <glyph glyph-name="N" unicode="N" horiz-adv-x="738" 
d="M66 505q54 -16 103 -16v16h15q7 0 7 -8l15 8q45 0 45 -61q-9 0 -9 -7q29 0 29 -44h9v15l14 -9q-11 -37 -36 -37v-6q0 -89 -16 -89q0 -7 9 -7l-9 -37v-73h9q27 15 155 206q57 47 57 75q82 16 82 28l14 -7q142 0 142 -29v-110q0 -8 -9 -8q9 -14 9 -22q-9 -16 -9 -23h9
l-9 -14l9 -15q0 -7 -31 -118q0 -9 8 -22q-8 -73 -23 -97q9 -1 9 -65h-24v-8q6 0 24 -6l-24 -45l8 -15l-8 -15l8 -31q-10 -20 -16 -20q0 -9 8 -9q0 -23 -21 -57q0 -9 7 -9q-7 -66 -15 -66q17 -89 29 -89h15q16 0 141 140h21q15 0 15 -14q0 -139 -44 -170q0 7 -8 7l8 -13v-7
l-14 7q-23 -19 -53 -68h-7q-74 -3 -74 -14q-72 0 -177 51l9 15q-29 0 -29 16q-60 151 -60 161l7 15q-5 29 -14 29l7 16v43q0 7 -7 7l7 16v44h15l-8 15v44l37 176q-8 0 -8 8q8 0 8 8h-21q-21 -17 -89 -148q-12 0 -53 -66h-22v-7h16v-8h-23l-21 15h-16v-15q-7 0 -7 8l-15 -8
h-15q-7 0 -7 8l-14 -8h-8q-35 0 -102 29l7 15v9h-7q-13 -9 -24 -9q-13 13 -37 75q15 0 15 13h-15v23q18 0 23 30q-17 0 -23 28h15q-7 17 -7 23l7 15q-7 13 -7 28q0 16 29 16v7q-29 0 -29 52h7l-7 15v52q0 26 23 50q0 9 -8 9l8 36v15l-8 51q4 0 51 53q13 -8 30 -8zM37 474
v-15h13v15h-13zM-8 289q14 0 14 16h-6q-16 -2 -16 -16h8zM6 141v-6h16v6h-16zM406 135v-7h13v7h-13zM406 121v-16h21v16h-21zM198 91v-16h8v16h-8zM14 -19q16 0 16 13v7q-16 0 -16 -13v-7zM626 -153v-14h6v14h-6zM390 -175v-8h16v8h-16zM553 -306v-9h15v9h-15zM582 -306v-9
h22v9h-22zM582 -337v-15q14 0 14 15h-14zM590 -359v-8h14v8h-14zM427 -432q1 -16 16 -16v7q0 16 -16 16v-7zM516 -491v-16h13v16h-13z" />
    <glyph glyph-name="O" unicode="O" horiz-adv-x="612" 
d="M343 869l74 -46q19 -56 60 -88q49 -88 111 -88q0 -20 36 -51q17 -81 29 -81l-7 -38q0 -15 7 -80l-7 -16v-21q-15 -1 -15 -16l15 7h7v-7q0 -1 -7 -29l7 -14q0 -73 -44 -73q0 6 -8 6v-22q11 0 23 -7q0 7 7 7v-14l-30 -82q0 -7 -6 -7q0 7 -7 7v-7q7 -12 7 -23q-12 0 -31 -66
l-50 -81l-16 8h-14l7 -37q-22 -4 -37 -29q-15 0 -15 -16h-22l8 16h-14q0 -41 -38 -53q-81 0 -81 -21h-7l-16 7v-15l-13 8v-8l-37 15q-15 -7 -29 -7h-16v21h-8q0 -11 -13 -21l-38 15q-15 -8 -22 -8q-77 59 -111 156l7 13l-20 37v16h13q0 13 -21 13v37q0 89 -16 89q8 13 8 23
l-8 14q34 49 53 139q-9 16 -9 24h16l-7 38q14 0 21 87q-7 13 -7 29l15 23v66q20 0 21 36q30 9 67 111h8q0 17 -8 29q24 60 112 60q0 -8 6 -8l7 14q65 -5 89 -21zM366 647q0 -14 -8 -14l8 -15v-7h-23v-38l-6 -14h6q0 -7 -6 -7l6 -37v-82q0 -31 23 -82q-8 0 -8 -7q30 0 30 -59
q-7 -12 -7 -20l15 5q15 -72 36 -72l-7 -15v-8q1 -16 14 -16h9q36 124 43 185l-7 16q6 53 14 53l-7 36v13q0 18 7 30q-7 17 -7 23q-7 0 -7 -8q-16 8 -23 8v8l7 13q-20 0 -43 66q-44 22 -44 45h-15zM484 536h14q0 16 -14 16v-16zM564 455v-6h16v6h-16zM609 397v-16h8v16h-8z
M624 301q7 -16 7 -23h6v23h-13zM521 294v-9h14v9h-14zM-31 139v-16h5v16h-5zM292 109h14q0 14 -14 14v-14zM174 116v-7h16v7h-16zM211 109l8 -16v-13q0 -15 -15 -15l7 -16l-7 -13h7q0 8 8 8q0 -77 66 -105h7q74 38 74 97q-108 0 -133 80h-6zM-31 93v-13h5v13h-5zM351 -24
v-13h7v13h-7zM263 -172v-6h13v6h-13z" />
    <glyph glyph-name="P" unicode="P" horiz-adv-x="589" 
d="M181 681l16 8l44 -8q0 8 7 8l22 -74l-7 -15q0 -9 7 -9q0 -14 -15 -57q8 0 8 -9q-15 -1 -15 -15l7 -43q114 76 207 80l8 -13l13 7q141 -30 141 -82q-7 0 -7 -7q37 0 37 -67q-7 -12 -7 -29q13 -2 13 -14q-31 -67 -43 -67h-8q0 -8 8 -8q-30 -58 -36 -66q13 -3 13 -15
q-30 -3 -139 -132q0 -23 -38 -45q-8 -12 -8 -21h-13l6 13h-13q0 -20 -23 -20v-9h23v-7q-16 0 -16 -7l-36 14v-7q14 -1 14 -13l-14 -9h-8l8 15q-16 -6 -23 -6v-9h15v-7h-22l7 -15q-51 0 -51 -125l-8 -118l-14 7v-7q6 -74 14 -74q-7 -52 -14 -52l7 -14v-82l7 -51h-7
q6 -29 15 -29l-8 -15v-22q23 -69 23 -104h-8l8 -15l-8 -13q15 -4 15 -16l-30 -22h-7q-17 0 -31 8l-13 -8l-29 8l-30 -23q-73 17 -112 53q0 13 -13 13v8h13v15q-37 0 -37 44q-5 0 -5 7v67l5 15l16 -9h8q-35 32 -37 32q22 96 22 116q-14 0 -14 16v14q0 14 14 14l-9 16v73
q0 7 -5 7l5 15q0 8 -5 8q5 11 5 21q18 285 31 376l-7 16l7 14q0 8 -7 8l7 37l-7 51q13 8 21 8v7h-21q0 23 7 23l-7 36v14l7 44l-7 16q0 7 7 7l-7 37q0 11 13 44l-13 37q6 60 13 60l-13 29h13v7h-13v7q18 0 21 38q-14 24 -14 36v8h6v-15h8v15h8q7 0 7 -8q24 15 37 15l14 -7
h24v-8h7q0 18 43 38v-8zM470 525v-7h13v7h-13zM344 385q0 8 -7 8q0 -19 -59 -73q0 -31 -15 -31l-15 8v-14q30 0 30 -52q9 0 73 74h-7q22 80 45 80v30h-9zM581 239v-16h6v16h-6zM439 91l-6 -16q14 8 22 8v8h-16zM351 47v-8h15v8h-15zM33 -191v-5h16v5h-16zM225 -277v-9h16v9
h-16zM248 -330h7v-22h-7v22zM225 -375v-13h8v13h-8zM12 -381v-15h8v15h-8zM-4 -559v-14h9v14h-9zM175 -573v-15h6v15h-6zM12 -670v-13h8v13h-8zM181 -780v-6l16 -7v7zM93 -816v-7h14v7h-14z" />
    <glyph glyph-name="Q" unicode="Q" horiz-adv-x="676" 
d="M257 659q0 14 5 14q24 -7 24 -14l37 7h95q7 0 7 -7q42 14 82 14q72 0 119 -89q0 -7 13 -7v-7h-13v-7q20 0 36 -38q30 -26 30 -66q0 -13 -38 -110q0 -17 -8 -29q8 -15 8 -23l-22 -37l14 -8q-10 -18 -20 -95v-22h-9v-14q0 -8 9 -8q-16 -30 -16 -82v-14q0 -8 7 -8
q-14 -34 -29 -110q0 -8 6 -8l-6 -51v-31q0 -13 6 -29q-3 -11 -13 -86q7 0 7 -9h-7l7 -15v-7l-7 -15h7l-7 -15v-50l7 -15l-14 -9l7 -37v-36h-7v16h-16q16 -19 16 -30q0 -9 -8 -9l8 -36q0 -33 -30 -81q14 -7 22 -7v-9q0 -6 -8 -6q6 -18 23 -96h-15v-8q15 -51 22 -125l-14 -7
q0 15 -82 30q0 -15 -22 -15q-102 15 -102 66v15l-16 -7q-8 22 -16 22q0 8 8 8q-9 32 -21 154h7l-7 15l7 15h-15v14q0 7 8 7q-8 15 -8 23q0 6 8 6l-8 31l8 103h-8q15 80 21 80l-6 15l6 15q0 8 -6 22q14 126 14 155h-8l8 15v6q0 16 -14 16l-44 -29l-16 7v-7q8 0 8 -8
q-64 -9 -81 -15l-14 8l-16 -8q-121 23 -126 30q-24 18 -36 81q-14 0 -14 30h7q-14 27 -14 59v51l14 23v14q0 6 -7 6q14 45 21 45l-7 15v15q23 24 31 89q15 0 36 94h6l-6 16v16l29 6l-7 15q35 148 66 148q0 11 53 81zM368 584v-14h6v14h-6zM152 510l-5 -13q12 8 20 8v5h-15z
M226 216l-13 7l-9 -14h22q-43 -156 -43 -192l14 -8q19 0 147 184q-8 0 -8 8q12 0 60 119q-7 13 -7 22q29 7 29 43v14l-7 16q14 0 14 16v21h-7q-118 -57 -118 -119q-14 0 -67 -117h-7zM94 385l-8 -14h8l7 14h-7zM204 246q4 -15 16 -15v15h-16zM566 -654h-15q1 15 15 15v-15z
" />
    <glyph glyph-name="R" unicode="R" horiz-adv-x="637" 
d="M523 812q9 0 20 -30h-7l-13 7l-9 -15q52 -52 52 -66h23v14q-16 0 -46 37h9q37 0 37 -14q42 37 51 37h15v-8q-18 0 -46 -36h-5q0 -11 21 -22h8l29 22q0 -7 8 -7l8 14q-20 14 -30 14v8h36q0 -14 15 -14v-8q0 -7 -8 -7q8 -5 8 -53q-5 0 -21 -36v-37q-21 0 -53 -43h-16
q9 -16 9 -23q-17 -46 -29 -46q0 9 -9 9v-9q0 -5 9 -5q-9 -52 -30 -74q14 -1 14 -16v-15q-50 -100 -66 -168h7l-28 -111q0 -15 -8 -15l8 -13q0 -16 -16 -16l8 -37l-8 -29h8l-8 -16v-66q4 -14 16 -14q55 55 94 139q10 0 29 30q46 -17 46 -59l-22 -37q7 -15 7 -23
q-14 0 -31 -110q-20 -11 -20 -66h7l-23 -29v-23l-79 -67l-53 9q-8 -9 -37 -9v9q-94 0 -140 66v36h-15q0 8 7 24l-7 28l7 15v7h-7v-13h-8v29q0 102 -13 183l7 15l-7 15l7 37v44h14l-14 22q5 45 14 45l-8 14q0 21 23 96h-15q-44 -26 -44 -57h-52q-41 32 -110 42l-7 15l-16 -8
q-25 37 -37 37l7 16l-7 13q0 14 60 45q38 11 51 29q32 0 147 105l15 6q0 -6 8 -6q1 34 103 87q41 55 59 133q16 -7 22 -7v-29h-22v-15h7q74 54 74 74h16zM604 797v-23h-15q-9 0 -9 8l-14 -8h-23v8q21 0 46 30q15 -1 15 -15zM463 782h-15q3 15 15 15v-15zM499 759v-14h15v14
h-15zM456 745q0 -14 -15 -14v-15h7q11 0 22 22v7h-14zM420 692v-13h6v13h-6zM559 487v-7h14v7h-14zM530 398v-13h6v13h-6zM264 243q2 -14 14 -14h16q0 14 -16 14h-14zM278 222v-16h8v16h-8z" />
    <glyph glyph-name="S" unicode="S" horiz-adv-x="560" 
d="M297 611q3 13 16 13h14q0 -12 41 -28q0 -26 16 -42h-9l9 -15v-14q-73 -97 -172 -97q-79 -59 -79 -105v-20h-23v-14q10 0 39 -43l15 -6q105 50 195 68h25l15 -5v14q8 0 23 -9l47 9q95 0 118 -119l-9 -15v-42h-15l8 -13h-8q8 -13 8 -21q-16 -20 -23 -106q-91 -110 -96 -125
l-14 7v-7h7q0 -18 -61 -49v7q-16 -7 -25 -7l9 -13q-17 0 -48 -36q-39 0 -101 -70l-15 9h-17q-8 0 -8 -9l-15 9l-79 -44q0 14 -16 14q-154 -41 -178 -41q-78 32 -78 91l-16 13q10 64 31 64l39 -15q91 0 164 63q25 0 109 62q15 0 72 72q17 3 61 90l16 -8h8l-8 14l54 106h-30
q-40 -25 -126 -57h-8q-36 0 -53 22l-16 -8h-9l-39 28q0 -6 -8 -6q0 14 -23 14v7l8 14q-16 0 -39 63l7 14v6h-16v13l16 -5h8v5h-15q7 66 15 77h-8q0 -5 -7 -5v13q60 69 69 69l-7 14q19 0 30 29q0 16 34 34v8l14 -8q0 36 87 76l38 -4q4 13 17 13q2 -13 15 -13zM204 525v-13h15
v13h-15zM289 337v-6h16v6h-16z" />
    <glyph glyph-name="T" unicode="T" horiz-adv-x="479" 
d="M152 1331q15 0 31 -6q14 6 29 6q132 -40 132 -104q7 0 22 -36q-18 -22 -30 -22v-8h15v-8h-15q0 -7 8 -7q-8 -22 -14 -22l6 -14v-43q36 0 207 37q156 15 156 36l13 -7q12 15 156 36h36q8 0 8 8q12 -8 21 -8l15 8q46 -31 59 -31v-42q23 0 23 -46q-44 -5 -89 -44l-15 8h-6
v-23h-23l-214 -58q-37 0 -73 -16v7q-58 -12 -82 -29l-14 9l-104 -30v7q-80 -19 -80 -52q-15 -36 -15 -133l7 -37l-14 -6l7 -16q0 -7 -7 -7l7 -14q0 -16 -16 -16q9 -12 9 -21l-9 -15q4 -29 23 -29q-12 -46 -23 -67h16v-7q-16 -19 -22 -74q6 0 6 -8l-14 -7q0 7 -7 7l7 -15v-36
l-7 -15h7q0 8 8 8v-36h-15v-9h15l-8 -14v-9q0 -6 8 -6l-15 -31l7 -13q0 -8 -7 -8l7 -52v-50h-7v13l-16 -6q7 -41 7 -60q-7 -52 -7 -58h7l-7 -15v-15q17 0 31 -7v7h-8l95 141h-8l89 192h9q16 0 30 -82q-14 -110 -30 -110q7 -15 7 -23q0 -21 -23 -52v-23l-36 -74l7 -13
q-15 -17 -15 -37l-15 7l9 -15v-15l-16 7v-7h7q-33 -73 -80 -73v-15l7 -15q-24 -14 -44 -14h-9v14l-43 -36h-14l-24 15v-15l-14 7h-36q-8 0 -8 -7q-14 7 -22 7l8 15l-15 -7h-8q0 21 -52 43q-18 22 -37 81l7 15v29q-11 0 -20 24l7 13v8l-7 15h7l13 -7h9v7l-29 7v8l7 15
q-7 0 -7 7q7 0 7 6q-7 0 -7 8h13v8q0 7 -6 7q0 9 6 9q-4 57 -13 57q6 29 13 29l-13 46q7 36 13 36l-6 15v22h13q-11 17 -20 73l13 8l-6 15v23l6 87h-6q13 33 13 45q-7 0 -7 7q7 0 7 7q-7 0 -7 8h7q0 6 -7 6q23 155 23 258v8l7 37h-14q-26 0 -38 8l-44 -8h-7q-17 0 -30 8
q-7 0 -7 -8q-88 8 -104 15l-13 -7q-19 0 -141 52q-15 -7 -22 -7v7q0 13 52 21q14 -7 22 -7v29h-30v16q0 13 30 28h8q-8 -28 -30 -28v-9h30q0 29 21 37l15 -8q14 0 14 16h-14v8q128 16 250 44l16 -7l13 7q15 -7 30 -7q13 13 36 184q-5 11 -5 29q14 0 14 15l-9 15q16 0 16 15
q-21 0 -21 13v16zM-304 977h13v-8h-13v8zM-217 961q3 -13 16 -13h7q0 13 -16 13h-7zM-357 912q-12 7 -22 7v6q10 0 22 7v-20zM-120 866v-7h14v7h-14zM293 740v-5h15v5h-15zM203 409v-14h9v14h-9zM249 387v-7l13 -8v8zM174 261v-6h22v6h-22zM233 255v-15h7v15h-7zM34 231
q2 -13 14 -13v13h-14zM425 203v-15h7v15h-7zM20 101v-38h7v38h-7zM226 85l-7 -14v-16h7q0 18 7 30h-7zM226 39l-7 -13h7l7 13h-7zM425 19v-8h16v8h-16zM34 -107v-14h7v14h-7zM20 -150h14v21q-14 -1 -14 -15v-6z" />
    <glyph glyph-name="U" unicode="U" horiz-adv-x="662" 
d="M214 762q13 7 20 7q17 -7 24 -7q0 7 7 7q0 -8 8 -23l-15 -29q7 -12 7 -22l15 7v-7l-37 -88l7 -16q-7 -37 -16 -37l9 -13l-9 -16q9 -12 9 -28h-9l9 -16l-9 -14q9 -14 9 -23q-14 -3 -14 -13q5 -14 5 -32q-5 0 -5 -6q5 0 5 -8h-5l5 -14v-22q0 -18 -5 -29q5 -11 5 -37l-5 -67
q5 -13 5 -23q-13 0 -13 -14h22q19 22 30 22l-8 15q12 0 66 104q29 78 46 95l-8 16q14 24 14 43h-6l13 51q-7 0 -7 9q11 0 30 66l13 15l-7 14v22l23 44q-7 16 -7 22l15 9h73v5l-7 15h7q8 0 8 -7q7 0 7 7l139 -15l-6 -14v-7l14 7h8l-8 -15l8 -36h-8q0 -22 23 -22v-24l-23 16
q0 -9 -8 -21h31q-15 -36 -44 -52l13 -38l-20 -51h7q-16 -30 -16 -43q9 0 9 -8q-16 -3 -16 -15q0 -9 7 -9l-14 -86q7 0 7 -8q-14 -8 -23 -8v-8q6 -14 16 -14q-4 -52 -30 -52v-14h14v-59q0 -9 -7 -9l7 -13q0 -7 -7 -7l7 -16l-7 -14h7q-7 -12 -7 -23l7 -14q-7 -15 -7 -29l7 -37
h-7l16 -36q-9 -29 -9 -53q9 -12 9 -22l-29 -22h-9q-16 15 -28 15q-23 -15 -45 -15h-37q-40 0 -125 81h-8v7q31 0 31 29q-8 0 -8 9l-15 -9q-30 9 -30 37q13 8 37 8v8l-45 6q-29 -1 -29 -22h-58v16h-8q0 -24 -23 -24q-169 20 -169 156q-17 16 -29 16l13 20v23q0 17 -4 30
q6 21 13 21q0 9 -9 22q10 184 16 216q-7 20 -16 20q9 12 9 22q0 11 -9 23q0 45 24 45l-8 14v30l8 14q-24 0 -24 22q9 12 9 31l15 -9h8v9h-16v5q59 0 103 31q15 -7 30 -7q0 14 23 14zM450 710v-8h15v8h-15zM700 666h14q0 -15 -14 -15v15zM148 209v-16h7v16h-7zM66 83v-8h15v8
h-15zM354 1v-7h15v7h-15z" />
    <glyph glyph-name="V" unicode="V" horiz-adv-x="711" 
d="M697 887q15 -8 23 -8q13 8 20 8q6 -29 16 -29q0 -9 -23 -59q11 0 23 -37h8v-16q-48 0 -60 -80q-28 -57 -88 -369h7l-7 -14v-8q0 -8 7 -8q-15 -30 -15 -44l15 -7q-15 -23 -15 -43q8 -16 8 -23q-18 -15 -30 -15v-7h15v-30q-21 -54 -44 -81l7 -16q-13 0 -73 -86
q-37 -24 -53 -24l8 -14q-45 -22 -66 -22q-24 10 -44 28l-14 -6h-9l-23 14h-28q-8 0 -8 -8q-86 30 -140 164q7 0 7 7q-14 0 -29 44q9 0 9 7q-13 0 -23 36h7l-21 45v30l6 15q-15 0 -15 15q9 0 9 6h-16v8q0 7 7 7q-7 22 -15 22q8 16 8 24q0 20 -22 20q0 17 6 29q-4 97 -13 97
q0 8 7 8l-7 74v29l7 14q-12 0 -30 82l8 15q0 21 -22 21v24q34 29 37 50q7 0 7 -7q95 7 95 14l16 -7q15 0 30 7q77 0 95 -73v-15h-22v-6q22 0 22 -38q-8 0 -8 -7q12 0 23 -53h7l-7 -37v-13q0 -7 7 -7l-7 -16q7 -12 7 -21l-7 -16q13 -40 13 -50l-6 -16q5 -44 15 -44l-9 -15
q16 -26 16 -59h-7q23 -54 23 -81h-9q15 -23 15 -52h15q0 15 9 15l-9 14v38h16q0 8 -7 8q43 132 43 146q9 0 14 30q-8 0 -8 8q6 0 23 21q-8 17 -8 23q0 22 22 22l-6 16q14 0 14 13l-8 16l53 102q21 119 53 119q0 7 -9 7q24 65 81 89q22 0 22 22l16 -8zM520 -6l-8 -13v-9h8
q0 10 8 22h-8z" />
    <glyph glyph-name="W" unicode="W" horiz-adv-x="1010" 
d="M993 1050q0 -28 29 -37l15 7l15 -30l-22 -43h7l-23 -82l8 -14q-15 -56 -15 -68h7q-4 -28 -13 -28q6 -60 13 -60l-13 -29h6q0 7 7 7l-13 -58q6 -33 6 -52q-14 -2 -14 -16v-42l-15 -134q0 -9 8 -9q0 -23 -29 -234q7 0 7 -7l-14 -8l7 -15l-30 -67h7q0 -17 -43 -73h13v-6
l-44 -16v-7h22q-86 -110 -102 -112q-24 16 -90 30v-7l-14 7h-7l-16 -7v7l-15 -7h-5q-13 0 -45 43q-15 0 -15 8q7 16 7 24l-14 -9h-8q0 11 -74 169q-19 0 -59 -110q-5 0 -29 -29q8 0 8 -7q-38 -19 -38 -52l-15 6v-6q8 0 8 -7l-37 -8q-55 29 -89 29v-8q-87 22 -87 89v22
q7 0 7 7q-23 0 -23 61h16q-12 22 -23 66q7 13 7 29h-7l15 29q-15 24 -15 37q11 0 23 23q-23 0 -23 14v29q0 25 7 37l-7 45v44l-7 16h7l-7 13v15l7 46q-7 11 -7 36h7q-15 29 -15 43h-15q-58 -41 -58 -147q-81 -39 -81 -52q0 -14 -16 -14q-66 44 -66 52v21q17 119 44 119v37
q15 7 82 110q7 0 7 7l15 -7h8l-8 16q0 18 51 29q13 -9 22 -9v9l15 -9l66 16q0 -7 8 -7v7q22 -7 22 -16l16 9h7q0 -20 22 -38v-7l-16 7v-7q12 -8 30 -8v-7h-14v-14l14 8q15 -4 15 -16h-15v-7q22 0 22 -46h7q14 0 14 24q16 -3 16 -15l-16 -22v-7h16v-23q0 -16 -7 -30
q7 -12 7 -29v-8l-16 -21q24 0 24 -22l-8 -36h8l-15 -69h7l-7 -13v-110h-15v-8h15v-8l-9 -14h9l-9 -16v-20h16q8 0 59 116q17 67 60 67q9 29 66 29l29 8q0 -8 7 -8q0 23 37 23v-23h-7l-15 8v-22h15l23 14q0 -7 6 -7v7q-6 0 -6 8h21q30 -22 45 -67l-16 -6q32 -156 44 -170
q-7 0 -7 -9q11 0 23 -43l13 -7q0 32 9 44q-9 0 -9 6q16 0 16 16q0 7 -7 59q7 6 7 51h-7v8q0 26 7 67q-7 13 -7 20q16 33 21 90v29h9q0 8 -9 24l23 131l-7 15q7 15 7 22h-7q7 96 36 96v23l-29 7v6l14 23h-14v8l14 22h-6q30 113 88 155v7h23q86 30 95 30h7zM772 783h14v-7h-14
v7zM285 710q15 -1 15 -15v-22q-14 0 -22 37h7zM-18 659v-8h16v8h-16zM-54 607v-16q17 0 29 -7v7zM5 481v-22h7v22h-7zM153 223v-14h6v14h-6zM558 209v-16h8v16h-8zM596 173v-23h6v23h-6zM633 173q0 -16 20 -16h9v7zM461 105h16q0 16 -16 16v-16zM256 105v-14h7v14h-7zM580 1
v-7h16v7h-16zM159 -71h15q0 14 -15 14v-14zM204 -85v-9l16 -7v7z" />
    <glyph glyph-name="X" unicode="X" horiz-adv-x="716" 
d="M641 755q13 7 29 7v-7l-15 -24v-42q-14 0 -67 -105q-5 0 -43 -79q-28 0 -82 -106q-22 0 -22 -21q18 -57 31 -73q-9 0 -9 -8q27 0 39 -37q12 -8 20 -8v-6q0 -7 -7 -7l23 -46l-7 -14q24 0 36 -51h7v-7l-7 -16h21q0 -14 -29 -14v-8q45 0 45 -21q-7 -15 -7 -23l15 8
q13 -3 13 -16q-6 0 -6 -6q6 0 6 -8q-6 0 -6 -8q22 -8 59 -8l7 16v22q14 0 14 36q-14 0 -14 23q22 31 22 43h7q21 0 82 -36q0 -28 13 -51l-5 -29q13 -24 13 -44q-45 -122 -94 -134l-38 8q0 -14 -111 -38h-52q-29 17 -29 23l-15 -7q-34 29 -51 29l8 15q-53 10 -53 66h15
q0 15 -15 15q0 -15 -15 -15l-21 38q7 0 7 7h-7q0 -7 -7 -7q0 16 -29 36q7 14 7 22q-30 12 -46 52q9 0 9 7l-37 7l-15 -30q7 0 7 -7q-7 0 -81 -110h7q-32 -81 -102 -81q0 -15 -16 -15h-7l-14 8q0 -5 -37 -37l-36 14q0 -7 -9 -7q-14 35 -14 75q33 4 80 132q45 44 73 103
q20 0 53 59q13 36 37 51q-45 119 -118 199q-20 88 -66 88v16q0 18 13 44q-5 35 -5 66l13 8l16 -8q84 19 103 53q12 -9 22 -9q2 14 14 14h29v-29h8v15q19 0 45 -88q-8 0 -8 -9q22 0 22 -29l14 9q36 -66 68 -90h7q75 101 95 163q22 0 52 66l16 -8h13q84 38 90 38zM390 98v-15
h7v15h-7zM531 83v-8l14 -7v7zM397 68l-7 -14h7l8 14h-8zM103 -19v-9l22 -14v7zM412 -48v-16h8v16h-8z" />
    <glyph glyph-name="Y" unicode="Y" horiz-adv-x="749" 
d="M129 710h8l20 16q9 0 9 -9q13 9 21 9q23 -9 23 -16l13 7q53 -27 53 -36l-8 -15q19 0 53 -15v-7h-16v-24h16l-38 -79h8q-8 -16 -8 -23h-7q0 36 -15 36q0 -7 -9 -7q9 -66 24 -66h7v8h-15v16q20 0 30 -46l-15 -7q0 7 -7 7v-22h22q-15 -124 -30 -170q21 -51 45 -139
q-8 0 -8 -7h16v-16q-16 -30 -23 -30q11 -28 23 -28h21q0 18 30 51q11 25 17 43q4 8 5 11l1 5q-8 0 -8 7q10 0 21 22v23q18 0 23 37q-7 0 -7 6q7 0 20 31q-7 7 -7 43q42 7 68 7h29q0 29 59 29l59 16q59 -16 59 -52q-8 -48 -8 -80q8 0 8 -7h-16q0 -16 23 -16l-7 -44
q7 -92 7 -96h-7q15 -35 15 -52q-8 -13 -8 -22q14 0 23 -51h-15v-6h15q0 -19 -9 -31q9 -12 9 -30v-8h-15q22 -26 22 -66v-28h-16q16 -18 37 -111q-6 -15 -6 -23h6l-13 -30q21 0 21 -13v-8h-14q5 -11 29 -102h-23v-9h16v-15h-22q0 -22 29 -22v-21q0 -15 -23 -15q16 -24 16 -44
h-8l8 -15v-37h-8v15h-21q21 -17 21 -52h-14v-7h22v-29h-22v-37h14v-89h-21v-7q13 0 13 -9q0 -6 -6 -21l6 -45q-28 -33 -28 -50q15 -23 15 -37q-13 -34 -45 -171l-29 -21l-16 -23q9 -12 9 -30h-23v-13h14q-35 -106 -87 -192q6 0 6 -7q-11 0 -29 -22h-7v36h-8v-43q8 0 8 -9
q-28 -34 -81 -44l15 -22l-23 -15h-16v15h24v8h-24l9 14h-9l-7 -14q7 0 7 -8l-49 -15v8q-24 -15 -46 -15q-22 7 -22 15l-14 -8h-8q0 8 8 8q-8 12 -8 21h-14l7 -14v-7q0 -15 -15 -15q0 15 -31 36q0 42 -29 61l9 13q-11 42 -37 110q8 38 15 38l-7 15q0 7 7 7l-7 14q13 30 13 60
h-6q13 26 13 45l-7 13q5 38 23 38l-23 36q31 0 31 52q-8 0 -8 8q22 0 29 37h-7q36 113 118 287q11 67 36 67l-7 36q16 0 45 59q-9 15 -9 22q27 27 75 206q-12 273 -45 273q-41 0 -87 -36v7q-23 -15 -38 -15l-15 8q-12 -8 -29 -8v15h-7l-22 -15q-24 20 -24 29l-20 -14
q-55 29 -75 29q0 25 -36 37q0 14 -22 38h7q-52 112 -75 198q9 0 9 7h-9q0 -7 -4 -7q0 40 -39 214l15 6q-8 17 -8 24q8 14 8 21h-8q6 15 16 74h-8q9 88 37 111q-13 26 -13 37l13 -7h7q0 24 37 43q0 19 29 24q4 -16 16 -16zM18 474h13l9 15q-12 -8 -22 -8v-7zM27 431v-16
l13 -7q-9 15 -9 23h-4zM276 423v-8h15v8h-15zM460 320v-15h8v15h-8zM166 252v-6l14 -7v7zM247 246v-15h5v15h-5zM675 75l14 -7h6v7q-7 0 -20 8v-8zM223 -101v-8h16v8h-16zM334 -117v-6h24v6h-24zM327 -138h15v-7h-15v7zM732 -455v-14h9v14h-9zM511 -580q-37 -152 -67 -200
l9 -13v-16l-9 -14q9 0 9 -8q-22 0 -22 -15q6 -15 6 -22q-43 -42 -103 -258h-7l15 -36q-17 0 -44 -74v-60q-15 -52 -15 -58v-23q0 -45 51 -81q0 12 38 30q-8 12 -8 21l15 -6h8v6q-23 0 -23 16q23 7 23 44l14 -7v7q0 9 -6 9q2 36 20 36v21q32 126 53 126q-8 12 -8 22
q35 118 51 118l-14 22l29 88q0 8 -7 8q7 74 15 74l-8 14v8l8 72h-8l8 16q-8 13 -8 23q8 12 8 20h-8l8 16q0 3 -2 15q-3 12 -6 30q8 12 8 21l-15 8h-8zM741 -683v-23h7v23h-7zM748 -846v-22h8v22h-8zM756 -985h7v-16h-7v16zM675 -1252h7v-14h-7v14zM444 -1318l16 -7h8v7
q-8 0 -24 9v-9zM511 -1377v-14h8v14h-8zM541 -1450h15v22q-15 -1 -15 -16v-6zM534 -1458l-8 -15h8l7 15h-7z" />
    <glyph glyph-name="Z" unicode="Z" horiz-adv-x="645" 
d="M81 636l15 8l125 -29v5l15 -5q96 10 96 29q43 -21 119 -37v13q90 -14 95 -66v-20q0 -19 -9 -29q9 -16 9 -24q-37 -50 -45 -50q8 -16 8 -23q0 -13 -15 -46l15 -6h88l51 -7v-7l-5 -16l20 -13q0 -61 -66 -61q-12 8 -22 8l-38 -8v8q-20 0 -20 -21l-16 7q-88 0 -88 -53
q-45 -64 -72 -154q-57 -74 -75 -169q7 0 7 -8l15 8h7v-15h22q8 0 8 7q7 0 7 -7q107 16 201 81q0 11 20 22h16q10 0 21 -22q0 -103 -57 -127l4 -13q-206 -89 -264 -89v7l-14 -7h-16q-32 0 -94 16l7 14l-16 -7q-80 15 -125 95q0 14 -15 30q0 7 8 7l-8 15v22q36 59 67 169
q13 0 29 30h7l-7 15l30 51h7v29l-37 8q-10 0 -22 -8q-12 8 -30 8l-15 -8l-21 38l36 44q39 14 52 14v-6q117 32 117 59h-7q54 108 67 147q-30 0 -30 8l-14 -8q-170 12 -170 45q-12 0 -44 20q-15 0 -15 16q18 0 29 21v9l15 -9h9v24h-32v14q15 0 38 15q15 -8 22 -8zM458 600v-9
h13v9h-13zM517 525v-7h16v7h-16zM110 283v-8h16v8h-16zM59 -167v-16h15v16h-15z" />
    <glyph glyph-name="bracketleft" unicode="[" horiz-adv-x="690" 
d="M186 1404h26q9 0 9 8q17 -7 133 -17l36 9q158 0 203 -70v-36q0 -33 -310 -54l-8 -43v-80l-18 -26l9 -54l-9 -52q9 -106 9 -177v-19l-19 -62l10 -17l-10 -17l10 -36l-10 -18q10 -16 10 -35v-9l-10 -17l19 -10l-9 -18q0 -8 9 -8q0 -9 -9 -9q9 -50 9 -52l-9 -46l18 -115
l-9 -35l9 -43q-9 -17 -9 -28l17 -44l-17 -43l35 -125l-18 9v-9q0 -71 132 -71l18 8l72 -16q3 0 11 2q10 2 24 6q96 -6 96 -18q46 -6 46 -35h8l-8 -18q8 -15 8 -26l-17 -35q9 -16 9 -28l-27 20q-17 0 -54 -20q-8 0 -8 10l-35 -10q-122 0 -257 28q-21 0 -62 -28q-33 0 -107 53
q-47 0 -96 125h8l-8 18v79l8 53q-9 71 -18 71q10 21 10 27l-10 45h18v8h-18l10 35q-19 30 -19 53v27q0 9 9 9l-9 17v62q0 10 9 10l-9 18v61q0 8 9 8q-9 19 -9 28l-17 -10l17 142l-7 44l7 88q-7 20 -7 27q7 18 7 27h-7l7 18v79q0 22 -7 36q7 17 7 25q-7 18 -7 28q14 0 26 62
q-10 17 -10 25h10q0 10 -10 10q32 212 106 212q36 11 36 17zM44 281v-10h35v10h-35z" />
    <glyph glyph-name="backslash" unicode="\" horiz-adv-x="419" 
d="M-3199 -282q0 27 55 27q28 0 75 -18q26 9 26 18l46 -8l38 8l36 -18l55 10q10 0 10 -10l46 10h64l28 -19v9l19 -9q1 0 36 9l18 -9q17 9 39 9q1 -19 18 -19q10 0 73 19h9q21 0 38 -9q8 0 8 9l166 -19l19 10q27 0 27 -28q94 18 129 18q9 0 9 -9l46 9q30 0 212 -27
q28 0 75 18q266 -34 266 -54q17 8 28 8q31 -18 55 -18h19q9 0 9 10q100 -28 120 -28q16 8 27 8q37 -12 37 -27q-8 0 -8 -10h18v19l46 -9h92v-19l18 9h28l19 -9v9l18 -9h45l28 19q47 -12 47 -37h9q18 0 18 18q101 -9 101 -18l19 9h9v-18h84q86 0 138 -37l18 10q47 0 47 -18
l18 8h55q25 0 55 -18q31 18 55 18h9q60 -40 120 -47q3 19 19 19l27 -19q10 0 10 10l174 -37l19 9q49 -36 295 -83q65 -55 65 -64v-18q-2 -15 -47 -38h-55q-109 0 -147 20v-20h-56q-9 0 -9 10l-18 -10q-166 38 -397 56v9l-18 -9h-9q0 15 -19 27l-36 -18q-67 10 -102 10h-37
l-18 8v-8l-18 8h-10q-9 0 -9 -8q-30 18 -56 18l-45 -28l-37 28q0 -10 -9 -10v10l-19 -10q-10 0 -10 10q-9 0 -9 -10q-91 9 -91 18q-83 -8 -83 -18l-213 47v18l10 19h-37l19 -27v-10q-19 10 -28 10q-21 -10 -28 -10v10l9 18q-95 -18 -120 -18q-17 8 -27 8v-8l-64 18
q-22 -10 -29 -10l-9 19q-9 0 -9 -9l-193 27l-19 -9l-18 9l-46 -9q-9 19 -9 27h-9v-18q-19 0 -66 18q0 -11 -8 -27q-37 7 -37 18l-47 -9h-72l-29 18q-37 -18 -55 -18l-46 18q0 -18 -19 -18l-82 9q-32 -9 -38 -9q-34 18 -73 18h-83q-10 0 -10 10l-18 -10h-55q-9 0 -9 10
q-20 -10 -28 -10q-72 0 -185 28q-17 -10 -36 -10q-30 0 -45 10l-57 -10h-36q-20 0 -37 10q-19 -10 -28 -10v10q-9 0 -9 -10q-87 13 -102 19q-87 -16 -202 -27l-55 8h-55l-29 -18q-36 10 -36 18l-18 -8h-19q-9 0 -9 8q-25 -14 -110 -27q0 9 -10 9q0 -18 -19 -18h-110
q-21 0 -37 -9q-17 9 -36 9q-177 -37 -443 -45q0 -10 -10 -10l-18 10q-39 -16 -110 -29q-19 9 -28 9l-37 -19q-10 0 -10 10q-253 -27 -496 -91l-47 9q-120 -41 -451 -102q-28 -9 -28 -18l-19 9l-27 -18h-74q-20 0 -37 9q-30 -19 -46 -19l10 19l-19 -9h-10q-18 0 -18 18
l-18 -9q-30 18 -46 18q-21 -9 -28 -9l-36 37q4 53 184 120l452 146l18 -8q0 14 73 37l19 -10l156 46h19q9 0 9 -8q34 18 157 36q0 -9 9 -9q0 18 92 27l56 -9l36 28l65 -10q0 16 63 29q22 -10 29 -10q31 18 55 18q9 0 9 -8q176 36 185 36q16 -8 27 -8q45 26 75 26h18
q21 0 37 -8q83 13 83 27l45 -9q13 0 83 18q0 -9 10 -9q0 24 110 37v-9l18 9h19q18 -3 18 -19q106 10 193 29v-10l20 10h8l29 -19q0 13 27 27q0 -18 83 -27zM-1384 -577l19 -9h9v9q-7 0 -28 9v-9zM-1236 -577v-18h10v18h-10zM-1042 -577v-9h27v9h-27zM-1052 -595
q4 -18 18 -18h10q0 18 -18 18h-10zM-5762 -790v-18h10v18h-10z" />
    <glyph glyph-name="bracketright" unicode="]" horiz-adv-x="601" 
d="M548 1377v-36h-26l36 -34q-18 -62 -18 -106v-10l8 -43h-8l8 -18v-18q0 -33 -8 -79q8 -17 8 -28q0 -8 -8 -8q18 -73 18 -194l-10 -125l18 -9l-8 -16q0 -10 8 -10l-8 -18v-26q2 -62 17 -62q0 -9 -9 -9q0 -30 35 -204l-18 -7l10 -18v-36l-18 -27v-8l8 -18h-8l8 -17v-54
q0 -29 10 -80q0 -9 -10 -9l10 -53q-3 -24 -4 -48l-2 -19l-1 -17q-3 -28 -3 -31h10q-27 -80 -27 -97h-18v26q-57 -18 -194 -26q0 -10 -10 -10q0 17 -105 36h-71q-8 0 -8 -8q-160 25 -160 53h10l-10 18v8l10 18q-10 0 -10 10q214 53 283 53h53q18 0 18 26q-10 17 -10 26l18 10
q-9 60 -26 96l8 44l-8 18q18 39 18 141v143q0 32 -10 96q10 21 10 27h-18v35l8 18h-8q0 -8 -8 -8q0 60 -9 132l9 18l-18 133q9 0 9 9h-9l9 17v36q0 9 -9 9l9 16v10q0 18 -18 18l9 35q0 11 -9 27q9 44 9 78q-4 48 -6 84q-2 14 -3 22v10h-9l-17 -9v9q-17 -9 -28 -9
q-71 0 -71 18q-16 -9 -25 -9q-62 22 -62 62q9 0 9 8q-9 0 -9 10q35 0 97 43l18 -8q13 8 35 8v-8l18 8h9l17 -8v8q9 0 9 -8q45 8 70 8l18 -8q35 18 63 18q49 -45 105 -45z" />
    <glyph glyph-name="asciicircum" unicode="^" horiz-adv-x="852" 
d="M487 1309l77 -12h22q0 -48 55 -77q-10 -21 -10 -33q24 0 33 -77h-11q17 -67 66 -67q0 -10 -11 -10l11 -23q0 -11 -11 -11q8 -44 22 -44l-11 -23q0 -30 110 -187q23 -86 23 -110v-34l-55 -11q0 17 -78 34q-45 -9 -45 -23q-70 0 -177 133q-64 157 -88 177
q-143 -249 -210 -276q-138 21 -167 21q0 -11 -10 -11q-22 40 -22 100q0 28 110 155l66 99q0 28 57 34q0 48 77 110q0 15 55 56q0 54 110 88z" />
    <glyph glyph-name="underscore" unicode="_" horiz-adv-x="321" 
d="M-5432 -109q37 -9 37 -18l36 13v-7l13 7h24q16 0 24 -7l14 7q6 0 18 -7q42 7 68 7h24v-19h6q0 15 24 19q13 -7 19 -7v7q29 -13 99 -13q25 0 61 6q174 -17 240 -32v14q9 0 73 -14v8l25 -12v4q6 0 6 -4l30 4q16 0 25 -4q6 0 6 4q60 -10 69 -10l24 10q30 -4 30 -10q7 0 7 6
q66 -10 73 -14q11 8 24 8q0 -14 7 -14l62 6q26 -6 42 -6v6l13 -6l12 6l13 -6l12 6q36 0 36 -18h6v12h25l18 -12v12q25 -12 61 -12v6q20 -4 20 -12q28 12 91 12q20 0 43 -12l31 6l31 -6q0 6 6 6q2 -12 12 -12q20 5 20 12l30 -6h24q7 0 7 6q24 -2 24 -18h7v18h30q26 0 49 -12
l36 6q13 0 39 -12q12 6 18 6l6 -13q13 7 18 7q13 -7 19 -7q0 12 54 19q19 -12 31 -12v6q18 -4 18 -13l13 7h12q12 -1 12 -13l31 6l24 -6q15 6 20 6v-6l24 13q2 -13 12 -13h6l13 6q2 -11 12 -11v5q11 -5 18 -5h18v-7h7v12h31v-12l12 7h42q13 -2 13 -13q-6 0 -6 -6
q29 12 68 12v-6q18 7 55 13q0 -13 31 -13v6q31 -11 49 -24q1 12 12 12l36 -19v7q-5 0 -5 6h12q10 0 36 -13v7q-4 0 -4 6h4q20 -5 20 -13l12 7h12v-12q28 12 43 12q1 -12 12 -12h7l18 12h6v-12h6l13 5l11 -43h7l12 7q0 -7 6 -7q3 31 12 31q6 0 6 -6l31 6q20 0 44 -12
q1 12 12 12q6 0 6 -6q6 0 18 6q86 0 86 -24q16 12 25 12l24 -12q0 6 7 6v-6q12 6 18 6q70 -13 74 -13q0 7 6 7q0 -8 18 -18h7l18 11q18 0 18 -24h13v13h12v-13h24q13 0 13 13q55 -8 55 -25l12 6h12l32 -6v6q58 -10 79 -31l37 7l18 -13h6q7 0 7 6q15 -6 18 -6l12 6
q49 -11 49 -24q20 0 32 6q61 -5 128 -32q7 0 7 8l12 -8h31v-12h11q7 0 7 8l12 -8l32 8q0 -10 73 -26l12 6l37 -12v6q35 -18 55 -18q1 12 12 12q10 0 43 -25l6 13q15 0 62 -19q6 0 18 6q92 -7 92 -18l13 6l24 -18q6 0 6 6q99 -6 111 -25h19q12 0 24 6q25 -4 25 -11l12 5
q31 0 31 -12l12 7l30 -13q15 6 19 6q2 -12 12 -12v6l130 -18l12 6q10 0 42 -13v7l13 -7q6 0 18 7q35 -7 55 -7q6 0 50 7v-7l13 7h24q17 0 55 6q14 -6 18 -6q14 6 19 6q6 0 6 -6q105 11 105 18q6 0 6 -6q46 5 61 12v-12l43 12q0 -6 6 -6q0 17 50 18q0 -5 5 -5v5q-5 0 -5 6
q52 0 129 61q7 21 86 82q29 42 36 42v-12h6v6q-6 14 -6 18q15 6 37 80q36 12 50 12l12 -18v-6h-12v-7h12v-18l6 -30h6l13 5v-11q-5 -19 -13 -19q-18 0 -18 19h-6v-19q14 -6 18 -6v-12q0 -13 -18 -13l6 -11l-6 -31l-12 6l6 -14v-4h-20q32 -26 32 -32q-20 -18 -36 -18v-7
q0 -6 4 -6q0 -30 -36 -30l6 -13q-48 -61 -74 -61q-7 -43 -24 -43l-12 7q0 -21 -37 -43v-8h-12l-12 8q0 -33 -197 -100l-13 7h-6v-12q-6 0 -6 5q-24 -4 -24 -11l-13 6h-5l-19 -13h-12q-8 0 -8 7q-7 -7 -61 -13v6l-12 -6h-37v-12l-12 6q-4 0 -18 -6l-37 6q0 -6 -6 -6q0 6 -6 6
q0 -6 -7 -6v6l-36 -12l-12 6q-15 0 -24 -6q-48 6 -69 6h-6q-18 0 -37 -12q0 12 -12 12h-12q-38 0 -148 12v6l6 13h-6q0 -13 -13 -13h-6q-5 0 -5 7q-7 0 -7 -7l-55 13l-24 -13q-106 19 -106 31q-24 -13 -48 -13q0 13 -13 13h-54q-13 0 -25 6q-12 -6 -25 -6q0 12 -18 12
q-6 0 -6 -6l-31 6h-56q-13 11 -184 31q-5 0 -5 -6q-93 8 -93 32h-18q-21 0 -56 -8q-25 0 -25 26l-18 -14h-18q0 16 -31 20q-15 -6 -18 -6q-64 0 -136 36v-12q-7 0 -48 12v-6l-13 6l-12 -6v13q-12 -7 -18 -7q-9 0 -37 13v-6q-69 17 -69 24l-12 -6q-12 0 -12 12l-12 -6h-7
q-5 0 -5 6l-13 -6q-61 6 -61 18l-12 -6q-16 0 -43 18h-6l-14 -5q0 5 -4 5q0 -5 -6 -5q0 12 -20 12l-12 -7l-43 13l-30 -6q-74 7 -74 18l-12 -6q-63 4 -63 12q-14 -6 -18 -6q-25 10 -25 18q-48 -5 -48 -12q-39 18 -55 18q-5 0 -19 -6l-31 13v-13q-12 0 -24 6q-10 -6 -24 -6
h-14q0 25 -24 25l-6 -12h12v-7h-18q-16 0 -43 13q-14 -6 -18 -6l-43 6v12h12q-6 15 -6 18h-6q0 -30 -19 -30h-18v12l-12 -6l-25 6l-36 -6l4 12l-36 -6q-1 0 -61 6v-6l-13 6h-5l-43 -6q-25 18 -25 31q-40 -19 -49 -19q-50 6 -50 24h-18v-11q-10 0 -49 6h-61v5h-7l-18 -11h-6
v11q-4 0 -7 -1q-6 -1 -12 -4q-47 5 -80 5v13l8 12h-8q0 -12 -12 -12q0 12 -31 12l7 14h-7q-13 -39 -18 -39l-24 13v-13h-19q-12 0 -12 13l-12 -6h-13v12q-11 0 -36 -12v24l-12 -6q0 10 -19 18h-6v-30q-6 0 -6 6l-12 -6q-34 0 -75 12l-6 -12l-246 18l-30 -6q-12 6 -25 6
q0 -6 -6 -6q0 14 -12 14q-6 0 -6 -8q-7 0 -7 8l-36 -8q-103 14 -118 20q-12 -8 -18 -8q-30 0 -86 20q-5 -20 -11 -20q-24 11 -92 26q-5 0 -20 -6l-37 6q-12 0 -24 -6q-12 6 -24 6h-38v13l-11 -7q-118 13 -118 18l-12 -6h-18q-6 0 -6 6l-13 -6l-12 6v-6q-69 13 -86 25
q0 -12 -12 -12q0 12 -12 12v-12q-25 6 -25 12q-15 -6 -18 -6l-44 18v-6q8 0 8 -6q-14 0 -26 6q-57 -6 -86 -6q-1 0 -11 1l-5 1l-6 1q-8 2 -15 3q0 -6 -5 -6v12l-13 -6h-25q-5 0 -5 6l-13 -6l-26 6q-12 -6 -18 -6l8 12q-44 -5 -44 -12l-13 6l-12 -6q-36 6 -36 12l-13 -6h-43
l-30 -6v12q-6 0 -6 -6q-6 0 -18 6l-31 -6q-2 0 -38 6q-21 0 -98 -12l-37 6q-15 -6 -18 -6v12l-18 -12h-99q-12 -1 -12 -12q-14 6 -19 6l-12 -6q-12 6 -25 6q-14 -6 -18 -6v6l-12 -6h-37q-6 0 -6 6q-31 -7 -31 -19l-12 7h-44q-14 0 -24 6q-39 -19 -67 -19h-56l-30 -5v5
l-13 -5h-50q-12 0 -12 11q-4 0 -36 -24h-80l-43 -6v6q-29 -12 -43 -12v6l-12 -6l-12 6q-24 -12 -38 -12h-24q0 -12 -122 -26q-166 -44 -326 -67q0 -6 -74 -25v6l11 19h-5l-25 -30l-12 5q-25 -16 -129 -36q0 -17 -80 -37q0 -6 -43 -31h-18l-13 7q-6 -19 -30 -31q0 6 -6 6
q0 -12 -80 -32q-42 -34 -111 -67q-120 -56 -177 -98q-30 -18 -50 -18q-14 6 -19 6v12h6l13 -6l-7 13q0 49 43 79q-6 0 -6 6q6 0 6 6l14 -6h4q8 30 75 87q27 24 55 36q86 86 148 99q121 72 140 72l43 31q35 21 106 38q36 32 319 98l18 18l13 -6q119 24 135 31q0 6 6 6
q38 0 67 12q14 -6 19 -6q0 15 128 31v-7q54 19 173 37v6l12 -6h55l38 6q12 -6 25 -6q65 24 189 24q0 8 6 8v-8l12 8h18q8 0 8 -8q67 8 67 14q14 -6 18 -6q39 12 56 12h43q12 0 24 -6q20 12 38 12q0 -6 6 -6q0 6 6 6v-6q98 14 98 19q32 -13 43 -13q60 6 93 6l30 -6
q2 13 13 13h5q10 0 19 -25q-6 0 -6 -6h6q0 6 6 6q2 -14 12 -14h6v8q-5 0 -24 12v12h6l12 -6v13h37l12 -7v12zM-5272 -133l-6 -12q14 6 19 6v6h-13zM-5377 -145v-8h12v8h-12zM-5505 -153v-10h6v10h-6zM-5389 -171h6v8l13 -8h5v8q-3 0 -18 6zM-5481 -163v-14q1 -12 12 -12h7v6
h-13v12h13v8h-19zM-5340 -163v-8l12 -6v6zM-5266 -163v-20h7v20h-7zM-5499 -177v-12l24 -18v6q-15 0 -18 24h-6zM-5383 -177l-12 -18h6q1 12 12 12q0 -6 7 -6v6zM-5322 -177v-12l14 -6q-8 14 -8 18h-6zM-5365 -189v-12h6v12h-6zM-5456 -201v-13h5v13h-5zM-5432 -220h19
q0 11 -19 19v-19zM-5322 -201v-19h6v19h-6zM-5408 -220q8 0 19 -5h6v5q-8 0 -25 13v-13zM-5359 -207v-13h7v13h-7zM-5272 -207v-7h13v7h-13zM-5370 -232h11q0 12 -11 12v-12zM-5340 -220v-12h6v12h-6zM-3552 -220q6 -14 6 -18h6v13zM-5377 -244v-6h12v6h-12zM-2950 -244v-6
h13v6h-13zM-5383 -256q0 -5 -6 -19v-6h6q0 4 6 18v7h-6zM-3250 -263v-12h6v12h-6zM-2772 -268v-13h6v13h-6zM-5401 -275l-7 -12h7l6 12h-6zM-2943 -293q6 7 9 13q3 4 3 5q-12 -6 -24 -6q0 -12 12 -12zM-5377 -281v-12h7v12h-7zM-4357 -281v-12q12 0 12 12h-12zM-2870 -281
v-6h12v6h-12zM-2827 -281v-12h6v12h-6zM-2925 -293q2 -13 13 -13h5q0 11 -18 19v-6zM-5426 -311q13 0 13 12v6q-13 -2 -13 -13v-5zM-2754 -293l-4 -13h4l6 13h-6zM-2464 -293v-6h13v6h-13zM-2840 -299v-7h13v7h-13zM-2778 -330v13q-8 0 -37 18q0 -12 37 -31zM-2673 -311v12
q-13 -2 -13 -12h13zM-2901 -306v-5h13v5h-13zM-2551 -317v11q-12 0 -12 -11h12zM-2533 -317v11q-11 0 -11 -11h11zM-5247 -311v-13h6v13h-6zM-5365 -317v-7l13 -6v6zM-2858 -317v-7h13v7h-13zM-2581 -317q0 -19 -31 -19v-6l31 -6l-6 12q18 0 18 12zM-2520 -324l-6 -12h6
l6 12h-6zM-2980 -330l-6 -12v-6h6q0 12 12 12v6h-12zM-3177 -336v-18h6v18h-6zM-3152 -336v-12h5v12h-5zM-2784 -348q0 6 -6 6v-6l12 -6q30 7 30 18h-6zM332 -336q0 -9 -14 -37l26 -18q-12 19 -12 37q12 0 12 12zM-3595 -342l-6 -12h6l6 12h-6zM-3244 -354h12q0 12 -12 12
v-12zM-3030 -342v-6h18v6h-18zM-2490 -354v12q-12 -1 -12 -12h12zM-3042 -348v-12h6v12h-6zM-2821 -348v-6q5 0 19 -6v6l-13 6h-6zM-3565 -354v-6h13v6h-13zM-2520 -354l-13 -19h7q3 13 12 13v-18h6v18zM-2986 -360v-7h12v7h-12zM-2458 -360l-6 -13h6l7 13h-7zM-3104 -367
v-6h13v6h-13zM-2858 -367l-6 -11h6l7 11h-7zM-2754 -385q14 0 14 12v6l-14 -6q0 6 -4 6q4 -10 4 -18zM294 -367v-11h6v11h-6zM-2815 -373v-5q6 0 18 -7h7v7q-8 0 -19 5h-6zM-2569 -373v-12q4 0 18 -6q-6 14 -6 18h-12zM-3577 -378l-6 -13h6l7 13h-7zM-3558 -378v-13h6v13h-6
zM-2740 -403h6q0 12 12 12v13q-10 0 -18 -19v-6zM-2544 -378v-13h6v13h-6zM-2784 -385v-6h12v6h-12zM-2384 -385v-12h5v12h-5zM-3804 -391v-12h6v12h-6zM-3282 -391v-12h6v12h-6zM-2821 -391v-6h12v6h-12zM-2716 -391v-6q4 0 19 -6v6l-13 6h-6zM-2508 -391l-6 -12h6l6 12h-6
zM-3319 -397v-12h7v12h-7zM-2533 -397v-6l13 -6v6zM-2494 -409q19 0 30 -8l6 14l-12 6l-12 -6q0 6 -8 6zM-3565 -403v-6h13v6h-13zM-2840 -403l-5 -14h5l7 14h-7zM-2600 -403v-14h6v14h-6zM-3294 -409q2 -12 12 -12v12h-12zM-2994 -409v-12h8v12h-8zM-2809 -409q0 -5 -6 -20
h13v20h-7zM-3232 -417v-12h6v12h-6zM-3042 -417v-4h12v4h-12zM-2858 -417l-6 -12h6l7 12h-7zM-2508 -417q2 -12 14 -12h4q0 12 -12 12h-6zM-2490 -441h26q-10 24 -18 24q0 -13 -8 -24zM-2451 -421l11 -8v8l-11 4q-13 0 -13 -12zM-2937 -421l-6 -14h6l6 14h-6zM-2790 -421
v-14h6v14h-6zM-2624 -421v-14q12 0 12 14h-12zM-3004 -441h10l8 12q-15 -6 -18 -6v-6zM-2778 -429v-12h6v12h-6zM-2433 -429v-18h6q0 4 6 18h-12zM-2508 -435v-12h6v12h-6zM-2458 -435v-6l12 -6v6zM350 -429v-12q-12 0 -12 12h12zM-3423 -441v-6h12v6h-12zM-2937 -441v-6h12
v6h-12zM-2809 -447v-13h7v13h-7zM-2748 -453v-12h8v12h-8zM-2594 -453v-7h13v7h-13zM-2508 -453v-7l14 -5v5zM-3055 -460v-11h7v11h-7zM-2986 -460v-11h6v11h-6zM-2784 -460l-6 -11h6l6 11h-6zM-2458 -460v-11l12 -7q-5 11 -5 18h-7zM-2821 -465l-6 -13h6l6 13h-6z
M-2533 -465v-13h7v13h-7zM-2490 -471v-13h8v13h-8zM-7128 -478v-6l12 -6v6zM-2968 -490h13q0 12 -13 12v-12zM-2710 -478v-12h6v12h-6zM-2575 -478l-6 -12h6l6 12h-6zM-2526 -490v-6h12v6h-12zM-2587 -502v-12h6v12h-6zM-2514 -502v-6h20v6h-20zM-2533 -521h19q0 13 -12 13z
M-1174 -527q6 -14 6 -18h13v6q0 12 -13 12h-6zM-19 -570v-12h12v12h-12zM-1740 -637v-12h6v12h-6zM-1230 -643v-12h8v12h-8zM-1549 -667v-14h6v14h-6zM-25 -717v-19h12q-6 15 -6 19h-6z" />
    <glyph glyph-name="grave" unicode="`" horiz-adv-x="554" 
d="M339 1119q124 -78 124 -121q0 -21 27 -51h-9q38 -52 53 -96q36 -38 36 -80v-33l-44 -10h-9q-192 41 -232 96q-14 0 -132 139q-153 160 -153 244q75 42 89 42l18 -7q54 13 54 26q137 -97 178 -149z" />
    <glyph glyph-name="a" unicode="a" horiz-adv-x="889" 
d="M537 774q12 8 27 8q0 -8 38 -33q0 -14 33 -27q6 -12 6 -25v-34h12v-13q-24 -2 -24 -26q12 0 12 -6l12 6h103q0 -12 19 -33v-6h-13v-8h13l-7 -11q0 -14 20 -14l-13 -18v-9h13v-18h-13v-20q0 -13 19 -13v-12q0 -27 6 -53l-6 -34q0 -4 6 -20l-6 -38v-14h-19v-6q19 0 19 -27
l-6 -65q6 0 6 -7h-6l6 -12q0 -7 -6 -7q0 -5 6 -20q-5 -91 -26 -91l26 -32v-7q0 -8 -6 -8q12 -19 12 -38v-20q12 0 49 -90q50 -6 36 -59q6 -43 -64 -53q0 -14 -46 -20q0 8 -128 32q-89 62 -110 118q-6 0 -6 7q0 13 21 13v6h-39q-14 98 -38 98q0 -9 -26 -25q-15 6 -20 6
l-7 -13q7 -12 7 -20l-38 -34h-7q0 26 -12 26t-12 -26h-15v14h-18v-6h12l-6 -33h-6l-32 7v-13h-71q-41 0 -109 31h-18v14h-6v-14h-26q0 11 -20 41q-15 0 -25 72h-13v20q0 12 19 12l-19 34v18l13 20v6q-11 0 -20 15l7 31v20q17 0 25 59q37 44 52 106q9 0 38 64l52 78
q50 87 63 87q29 0 52 65l25 20l-7 13v6q68 91 91 91q0 -16 139 -33zM449 493v-31h6q0 8 13 25l-13 6h-6zM339 311v-8q-25 -21 -32 -79q-11 0 -18 -45q-32 0 -32 -58q-6 0 -6 -28q33 28 50 28l-6 13v6h19l-7 12v7q52 50 53 80q44 22 44 64q10 3 25 34l-7 12q15 0 33 52v20
q-12 16 -12 26q-14 0 -52 -57q-18 -18 -38 -61q-15 -6 -20 -6zM635 375v-13h6v13h-6zM245 284v-14h6v14h-6zM660 224v-6h13v6h-13zM679 68v-6h12v6h-12zM576 -141q3 -14 14 -14h6q0 14 -13 14h-7z" />
    <glyph glyph-name="b" unicode="b" horiz-adv-x="747" 
d="M156 1200v-9l16 9l29 -9q7 0 7 9l37 -9h29l14 9q0 -18 37 -22q59 -36 59 -89q-7 -28 -29 -28v-9q0 -48 -7 -95q11 -66 21 -66q-8 -68 -14 -68l6 -13q-21 -27 -21 -45q0 -8 8 -21q-15 -54 -15 -75l7 -30q-5 -28 -15 -28l8 -15q-14 -115 -22 -134q8 -12 8 -21h6
q107 106 207 125l37 7q53 -7 66 -14v14l37 -7l16 7q0 -13 57 -58q39 -96 46 -96l-8 -15v-110q0 -39 -22 -45l6 -15v-6l-86 -171l-16 8q-23 -60 -23 -66l-14 7q0 -17 -29 -30q0 -17 -30 -43q-18 6 -23 6l7 -15q-13 0 -64 -59h-30q0 -13 -16 -13v-8h23v-7q-90 -112 -155 -112
q-53 13 -103 97l-7 51h-53q-19 0 -66 28q-18 38 -66 46q-16 46 -16 66v7q0 16 23 16v8q0 13 -14 13q0 -8 -9 -8v8l23 36h-14v38q0 8 14 60v21q0 17 -7 29q8 94 37 156q-16 46 -16 65l16 24v43q0 46 8 125q-8 0 -8 8l13 7l-5 15q5 44 14 44l-9 16v14l31 45h-15l8 14v22
q0 7 -8 7l8 14v45l-8 15q17 0 30 82l-7 43q14 0 14 16v15q0 5 -7 5q23 29 29 110zM348 1112v-7l13 -8v8zM333 935v-15h7v15h-7zM517 413q0 -14 -58 -69l-119 -198h8q-23 -41 -23 -60l15 -6q38 43 53 43v16h-16q40 47 140 212q0 12 29 24q-6 15 -6 38h-23zM37 57v-8h16v8h-16
zM222 44l16 -8h7v8q0 13 -16 13zM282 29q0 -30 -37 -30q-7 14 -7 21q-9 0 -9 -7q-7 0 -7 7q-30 -7 -50 -7q0 -10 36 -30l7 16l14 -8h45q0 15 14 15v23h-6zM141 20v-7h15v7h-15zM119 -24h29v7q-9 0 -21 8zM90 -46v-7h15v7h-15zM489 -83v-7q8 0 20 -9v16h-20z" />
    <glyph glyph-name="c" unicode="c" horiz-adv-x="647" 
d="M361 577q3 14 13 14v-7l16 7h14q45 -37 45 -66l-7 -36q7 -15 7 -22q-57 -89 -66 -89q-40 0 -90 -126h-29v-6h16l-29 -30q13 -3 13 -15q-28 -57 -36 -66q0 -7 7 -7l-7 -53v-36l7 -14q57 26 169 125q20 0 119 66q35 17 36 30l16 -7q63 28 95 28q97 0 97 -21l-9 -37
q9 -16 9 -23q-155 -45 -155 -95q-50 0 -229 -162q-79 -59 -139 -67q0 8 -9 8v-8q9 0 9 -7h-9q-37 0 -37 15q-7 0 -7 -8q-177 53 -177 147h8l-8 16v14l8 15q-16 0 -16 14v15q0 18 8 30q0 8 -8 8q0 65 30 65v7h-14v8q0 102 94 266q0 15 23 30l-7 13v15q28 0 50 45q39 0 53 50
q64 -29 126 -43zM191 518v-8h15v8h-15zM413 474v-7l14 -8v8zM80 378v-16h8v16h-8zM36 -28v-7l16 -7v7zM346 -42v-15h15v15h-15z" />
    <glyph glyph-name="d" unicode="d" horiz-adv-x="784" 
d="M648 1071q23 8 23 15q118 -39 118 -66l-6 -16q3 -29 13 -29q-16 -26 -29 -117l8 -16q-8 -13 -8 -21h8q-7 -29 -15 -29l7 -16v-21l-7 -74q15 -1 15 -15q-8 -13 -8 -22q16 -1 16 -15q-16 -9 -23 -9q0 -5 7 -5q-6 -52 -14 -52q14 -38 14 -58h-14q0 -52 -15 -156l7 -16
l-15 -28l15 -8q-9 -45 -22 -45l7 -13l-7 -53h7q-21 -51 -21 -58l5 -45q-9 -118 -13 -125q8 -12 8 -29v-38q0 -16 -15 -74q-22 0 -66 30q0 -7 -9 -7v7l-15 -7q-33 22 -43 22l-36 -7v7l6 15q-6 0 -95 38q0 -38 -163 -75h-51q-61 0 -119 43q-56 0 -103 118q13 8 23 8l-8 74
q0 28 104 206q58 83 58 110q37 69 67 75l7 15l74 -8h21q15 0 15 24h16q38 -31 66 -31h13l53 215h8l-8 13q17 97 44 97l-7 13v24q49 189 73 250q18 -15 29 -15zM599 1079h5v-16h-5v16zM714 1027v-7h16v7h-16zM671 968v-7h14v7h-14zM199 -19l16 -9q42 0 212 141l9 37v117
q-15 0 -37 16q-50 0 -74 -74q-52 -17 -96 -126zM141 260v15q-16 0 -16 -15h16z" />
    <glyph glyph-name="e" unicode="e" horiz-adv-x="588" 
d="M401 681q29 8 52 8q36 -28 50 -53q44 0 67 -45v-14q0 -16 -7 -30q14 -47 14 -58q-51 -82 -104 -192q-86 -124 -197 -124l-15 -23v-15q0 -39 7 -126q165 68 235 200h31v-30q0 -11 13 -74q-20 -9 -81 -133q-18 -48 -29 -51l7 -15v-15q-33 0 -51 -36q-15 0 -59 -38
q-111 21 -111 53q-21 0 -132 51q-26 0 -67 44q-43 89 -43 103h6l-6 15v45q0 24 -7 36q0 179 146 383q112 142 222 142q54 -8 59 -8zM305 305q22 0 82 88q14 0 21 51q-75 0 -103 -111v-28z" />
    <glyph glyph-name="f" unicode="f" horiz-adv-x="409" 
d="M267 846h79q0 -9 24 -29h-9q11 -43 45 -52q15 -30 37 -30q0 -7 -7 -7q7 -41 36 -95q0 -8 -7 -8l22 -36q-10 -46 -31 -46v-7h16q0 -36 -16 -36l9 -14v-16l-14 7h-24v-28l29 21v-8q0 -7 -5 -7l5 -14q-8 -28 -20 -28l7 -16q0 -13 -23 -22l7 -15q0 -33 -37 -59q0 -36 -36 -36
l7 -16q-24 -12 -66 -94q0 -9 8 -9q0 -6 -8 -23q8 -40 8 -58h-8l8 -16q0 -36 -15 -36l7 -14v-23q0 -6 -7 -6l15 -31q0 -22 -23 -22q15 -17 15 -29l-7 -15q0 -8 7 -8q-7 -68 -22 -110q15 -1 15 -14v-16l-15 -22h15q0 -66 -21 -66v-7h13v-8q0 -19 -13 -43q6 -15 6 -30v-9
q-22 0 -22 -13l16 -23v-7h-16v-14q22 0 22 -8q0 -37 -14 -37l8 -15l-23 -29v-7h7v14h8l8 -37q-8 -63 -8 -73q8 0 8 -8l-16 -7l8 -14q0 -9 -8 -9l8 -15v-21q0 -15 -15 -15l7 -15v-28h-7v13h-15q0 -11 30 -29q-8 -12 -8 -20q8 0 8 -9l-15 -7l7 -37q0 -16 -16 -16q0 7 -6 7
l-8 -13q46 0 46 -53l-8 -15l51 -111h7l-7 -13q0 -13 15 -45q-22 0 -22 -15l-15 7q-61 -20 -81 -36q0 10 -51 29h-7q0 -14 -8 -14q-96 21 -96 81v6h14q0 16 -14 16v-16h-16q0 38 -14 53q7 0 7 9q-7 0 -7 7h7q-12 30 -22 87q9 12 9 36h-16v38l7 15h-14v9q0 4 7 4
q-16 28 -16 60q0 8 9 8l-9 14v74q0 8 9 8l-9 15v22l9 15q-9 0 -9 5h16l-7 31q7 111 7 148q7 0 7 6h-7l16 46q-9 12 -9 28l9 15v23h6v15q0 15 -6 29q9 22 20 73l-7 37q5 66 15 66l-8 16v7q0 7 8 7l-8 15q0 7 8 7q0 7 -8 7l16 89h-8q8 17 8 23l-23 29l-13 -8h-16l-16 8
q0 -21 -13 -21l-15 5q-22 0 -22 -20h-37q-7 0 -7 7q-8 0 -8 -7l-38 7l-13 -7q-24 15 -36 15q0 -8 -9 -8l-7 13q3 31 22 31l-6 13q12 0 42 23q201 37 229 59l-7 16v7h15v14q0 9 -8 9l8 13q0 18 -8 31l16 29l-8 14l8 36h-8l15 53l-7 16l7 73q-7 14 -7 21q18 0 36 75h8l-8 14
q14 29 14 43h-6q55 141 102 164q0 12 46 36v7zM303 449q7 -12 7 -30h7q26 43 37 96h-8l8 14v30q0 14 -13 14q-30 -57 -38 -124zM37 -348v-15h8v15h-8zM37 -378v-7h15v7h-15zM162 -436v-24q16 0 16 16v8h-16zM0 -583v-8l22 -15v7zM37 -762v-5h15v5h-15zM214 -909v-7h15v7h-15
zM67 -1099v14q-10 0 -22 -23q13 9 22 9z" />
    <glyph glyph-name="g" unicode="g" horiz-adv-x="844" 
d="M505 602l43 9q0 -9 75 -29q56 -34 81 -67l-8 -38q6 -126 24 -126l-8 -13l8 -15l-8 -15q0 -6 21 -87q-6 -18 -6 -23q24 0 43 -105h8q0 9 8 9q16 -46 16 -178q-14 0 -24 -23q0 -73 24 -110l-16 -36q14 -22 20 -80h-4l4 -15v-23l-4 -15h4q0 -7 -4 -7l4 -29q0 -15 -13 -111
q9 -12 9 -30q-16 -1 -16 -15v-21h-8q1 -15 15 -15q-8 -39 -23 -59v-44h-21v-8h14v-14q-12 0 -23 -16l9 -15v-5q-19 -29 -29 -74h-8l-16 6l8 -14q-20 -60 -45 -60v-14h8l15 7v-7q-9 -36 -23 -36q0 7 -6 7q0 -77 -52 -117q9 -16 9 -24q-34 -44 -53 -44q-29 0 -29 -14l14 7h6
q-1 -21 -58 -53q0 -3 -21 -21l-15 8h-8v-8h15v-7q-10 0 -29 -16q-38 8 -60 8q-11 -32 -59 -74q-35 30 -44 30q0 -7 -7 -7l-14 23q6 0 6 7q-57 21 -67 21v23l9 13q-35 46 -45 46l7 36q-12 0 -37 46h-15v7q6 13 15 13q-7 42 -7 60q23 67 23 80h-7q27 68 37 68q-9 12 -9 21
l45 111v21q9 0 51 75l-6 14v8q17 0 65 95q0 7 192 287q7 14 7 31v79q0 52 -22 98h-21q-137 -128 -171 -134q-8 0 -8 8l-28 -8q-77 0 -177 82q-37 37 -37 59q0 7 8 23q-8 37 -8 64v46l8 16q-8 0 -8 4q22 0 22 46h-6l66 103q-9 0 -9 7q13 0 46 75q17 0 50 51q39 47 60 59v7
l36 -7l-15 29q33 12 67 67q53 11 53 29zM298 241l8 -13q-38 0 -103 -184q0 -45 51 -45h8q136 108 184 199l59 87q0 18 -7 30q7 14 7 29q-17 0 -23 31h-13q-59 0 -156 -134h-15zM372 -61v-15h7v15h-7zM528 -90v-9h14v9h-14zM557 -119l7 -16q17 8 22 8v8h-29zM610 -156
q20 0 49 -7q0 7 8 7q0 -7 7 -7q0 22 16 22q30 -7 30 -31h7v24q-15 0 -15 13h-45l-14 -6q0 14 -15 14zM580 -156v-7h14v7h-14zM674 -201l8 15v8h-8q-15 -3 -15 -15zM328 -877l-6 -39q14 -1 14 -14q-14 -1 -14 -16v-6h6q8 0 37 43l-6 16q49 83 59 131h7l-7 15q31 60 57 192h-6
q-33 -16 -67 -117q-13 0 -37 -90q-15 -36 -29 -36q0 -21 -14 -59q6 -18 6 -20zM740 -657v-15h9v15h-9zM740 -681v-7h16v7h-16zM740 -694v-7h16v7h-16zM712 -805v-23h8v23h-8zM696 -877h8v-16h-8v16zM211 -1049v-13h6v13h-6zM469 -1144q6 -18 6 -23q15 0 15 16l-15 7h-6z
M388 -1174v-7h21v7h-21zM395 -1210q1 -15 14 -15h9v15h-23zM343 -1218v-15h7v15h-7zM322 -1233v-14h6v14h-6zM306 -1291h16q0 14 -16 14v-14z" />
    <glyph glyph-name="h" unicode="h" horiz-adv-x="783" 
d="M208 1219l8 -14l14 6q121 -44 163 -125v-15q-13 -16 -37 -156l6 -13q-12 -41 -29 -243q7 -12 7 -30h-14l14 -132q-14 -2 -14 -16v-7h23q0 15 50 96q78 129 148 169q13 -8 23 -8q0 19 37 24q1 -16 13 -16l37 7q89 -36 89 -131q-13 -74 -29 -74l13 -36l-13 -156
q7 -12 7 -36q-14 -73 -14 -82v-90l-16 -20q22 0 30 -112l-7 -37v-89l-23 -36q8 0 8 -7l-30 -23q-18 14 -111 30q-117 82 -117 162q-8 0 -8 8q15 0 15 14v8q0 23 -7 23l7 36v75q0 6 8 6l-15 44q22 50 22 82v8h-15q0 -58 -52 -134l9 -15q-74 -205 -105 -243q-36 -27 -36 -81
h-15v15q-45 -15 -59 -15q-159 45 -192 75l8 37v6l-15 -6h-6v6q4 23 13 23q0 8 -7 20q7 108 15 120l-8 36q0 47 23 89l-8 29l8 14q0 8 -8 8q44 285 59 339h16q-16 30 -16 45l7 14q-7 16 -7 22q0 15 16 45q0 7 -9 7q34 199 59 199l-7 16q48 120 67 235h7zM208 1196v-14h8v14
h-8zM164 739v-8h13v8h-13zM274 717v-7h14v7h-14zM104 607v-16h16v16h-16zM459 371v-38h7q14 0 14 16v22h-21z" />
    <glyph glyph-name="i" unicode="i" horiz-adv-x="448" 
d="M516 1171q0 7 9 7v-7q-11 -8 -22 -90q-79 -31 -119 -102q0 -11 -28 -29l6 -15q0 -20 -111 -44q-24 0 -139 44v22l14 -7h9v7h-16q58 58 73 88q27 0 132 104q24 8 58 16q41 11 90 22q30 -16 44 -16zM214 625l16 8q110 -27 110 -74q-16 -23 -16 -44h9q-9 -45 -15 -45l6 -15
q0 -15 -6 -29q6 -15 6 -29q0 -7 -6 -7l6 -15q-6 -24 -13 -24l7 -13v-23h-14q0 -14 20 -14v-7l-13 -24q7 0 7 -5h-7q7 -16 7 -24q0 -36 -14 -36l7 -14v-45q0 -15 -23 -15q18 -102 30 -102h6q27 20 38 20q60 -2 60 -20q-16 -58 -16 -96l8 -16q0 -72 -110 -118q-78 24 -156 29
v9l-13 -9q-43 0 -97 82h-8l8 14q-22 0 -30 52v7q8 16 8 23q-16 0 -16 14q0 9 8 9l-8 15q8 13 8 21q-8 0 -8 8l16 7l-8 13v9l8 37h-8q8 14 15 66h7l15 -7v7q-7 0 -7 7q28 0 28 16v6h-6l-30 -22v22q0 17 8 31q-8 13 -8 29v14q23 0 30 133l-7 29q0 45 21 45v21l-8 16
q16 0 16 14q-22 7 -22 45q0 10 44 58zM177 315v-14h7v14h-7zM74 294v-9h15v9h-15zM230 65v-16h7v16h-7zM164 57v-13h7v13h-7z" />
    <glyph glyph-name="j" unicode="j" horiz-adv-x="362" 
d="M616 971h7l16 8l7 -44q-12 0 -30 -66q-11 0 -36 -38q-14 0 -14 -21q-9 0 -9 7l-154 -89l-8 16q8 0 8 6h-15q0 -21 -74 -37q-60 0 -95 68q82 53 82 65q0 13 80 67q0 17 89 44q0 -7 7 -7q0 16 110 29q12 -8 29 -8zM226 449q54 -5 119 -59v-39q-16 0 -16 -13h8q0 -7 -8 -7
l8 -37v-9h-16v-7h16q-16 -45 -16 -57l8 -16q0 -20 -28 -132h7l-7 -16v-8l7 -36h-16q16 -58 16 -89q-16 0 -23 -59h7l-14 -28l7 -15q-14 -73 -22 -200h8l-8 -15q8 -12 8 -28q-15 0 -32 -75h-4l4 -13q0 -8 -4 -8l4 -15v-8q0 -15 -20 -15l16 -22v-6q0 -16 -32 -16v-7
q23 0 23 -15v-7q0 -15 -7 -29l7 -15q-15 -45 -23 -45q0 -7 8 -7q-12 -111 -38 -111h-7v-14l16 8v-23q0 -9 -9 -9l9 -13v-7q-29 -1 -29 -30l13 -7q0 -19 -29 -126q-8 0 -8 7q-12 -7 -36 -7l31 -29q-31 0 -31 -46q7 -12 7 -20q-37 -76 -37 -110h-7l-13 7q0 -30 -16 -30h-74
l8 14h-8v-7q-111 36 -118 67h7q-2 35 -37 43q-44 0 -65 147q-8 0 -8 8h8l-8 15v22q0 8 8 8q-8 21 -15 21l7 16v14q0 7 -7 7l15 36q-8 16 -8 24q0 4 2 14q3 12 6 30q-7 24 -12 43q-1 6 -2 11l-1 4q10 141 30 141l-8 15l36 66v16l-7 13q36 0 75 103q69 94 88 111q0 12 88 96
l7 38q0 7 -7 7l7 14v22l-7 52q18 0 23 29l-7 15l13 111h-6q17 81 36 81l-7 74q19 58 30 58l-16 104q41 30 60 30h73zM-10 -430q0 -19 -66 -125q-19 -102 -59 -126q0 -54 -23 -66q0 -7 9 -7q-10 -62 -16 -74q7 -11 7 -29l-7 -29q7 -23 16 -23l-9 -14q16 -61 16 -74h-7
q9 -44 20 -44h8q15 0 15 15q0 6 -7 6l7 15l-7 16l30 73l-9 43l9 16q-15 0 -15 16q25 0 59 169l14 15q-14 29 -14 51q0 13 29 81l-9 45v13l23 31v6h-14zM219 -525v-15h7v15h-7zM-32 -681v-7h13v7h-13zM173 -767v-16h16l-7 -15h7l7 15v16h-23zM137 -959v-8h16v8h-16zM109 -975
v-8h15v8h-15zM71 -1085q0 7 8 7q0 -7 7 -7v16h-7q-16 -2 -16 -16h8zM109 -1093h15q0 -15 -15 -15v15z" />
    <glyph glyph-name="k" unicode="k" horiz-adv-x="684" 
d="M210 1370q87 -25 87 -104q9 0 9 -6v-30q-15 -52 -15 -59v-110q0 -9 -8 -9q8 -13 8 -21l-8 -29q0 -7 8 -7l-8 -38v-147h-14l7 -45l-7 -15l7 -15q-7 -14 -7 -22q0 -12 14 -44q-16 0 -23 -87q7 -96 16 -96q0 -9 -7 -9q7 -51 22 -51q94 79 214 126q0 -18 37 -23q0 -20 21 -43
q0 -25 -88 -45q-76 -42 -89 -66v-15q15 -15 96 -192q7 0 60 -111q27 -21 51 -66l44 -8h7l53 61q37 -5 37 -15q0 -46 5 -112q0 -56 -115 -73q-36 21 -69 21l8 16h-8l-28 -16q-56 0 -82 52q-59 36 -59 74q-35 57 -89 118h-14q0 -29 -14 -29q7 -15 7 -23v-21h7v-7q0 -9 -7 -9
l7 -14v-15q0 -8 -7 -8q7 -12 7 -20q0 -46 8 -172q-8 -12 -8 -29h-7q-9 0 -59 16h-16q-15 0 -28 -7l-82 36q0 -8 -7 -8q-31 28 -59 164q8 0 8 7h-8q0 6 8 6q0 5 -3 25q-5 23 -12 56h7l-7 16q0 7 3 40q5 37 12 92q-8 0 -8 7h14q-14 21 -14 29q8 16 8 24h-8q0 5 8 5l-8 38v7
l14 23v6h-14v46q0 14 23 65l-15 7l6 38v23q0 14 -6 29q6 14 6 30v36l-14 21h14q9 142 23 142q0 6 -7 6q10 126 29 184h-13q1 15 13 15l-7 16q9 50 22 50l-8 37v16l8 37h-8q20 88 38 213l36 8q8 0 8 -8zM150 1326v-7h15v7h-15zM107 1089v-13q14 0 14 13h-14zM217 470h14
q0 9 9 22q-18 -6 -23 -6v-16z" />
    <glyph glyph-name="l" unicode="l" horiz-adv-x="522" 
d="M332 1808l38 7q55 -8 94 -88q11 0 38 -51q-10 0 -30 -53q8 -12 8 -28q0 -29 -24 -29v-9q5 -15 16 -15l-8 -13q8 -41 8 -66q0 -8 -8 -8l8 -15q0 -11 -21 -22q13 -39 13 -60q-3 -29 -21 -29q13 -88 13 -110q-12 0 -20 -66l15 -46q-17 -31 -31 -36q0 -8 7 -8q-7 -72 -20 -88
q13 -2 13 -14v-23q0 -15 -22 -15l16 -21q-8 -66 -30 -66l7 -15v-29q0 -9 -7 -9l7 -14v-30q0 -35 -21 -73q14 -1 14 -15v-22l-30 -9v-5l30 -31q-16 0 -23 -50q9 -16 9 -24h-9q9 -12 9 -21q-16 -28 -24 -74q8 0 8 -7q-29 -11 -29 -23v-7h16l13 7l7 -14q-12 -9 -29 -9v-6
q29 0 29 -14l-15 -9h-5v16q-16 -1 -16 -16q36 -18 36 -28h-7q0 -8 7 -8q0 -14 -7 -14l7 -74v-74q19 -37 30 -37h7q54 58 74 141l30 21h15q18 0 36 -96q-36 -176 -81 -176q-10 -34 -88 -105v-6l7 -15l-14 -7q-7 22 -45 22q-7 0 -7 -7l-30 13q0 -10 -23 -21h-21q-7 0 -7 8
q-23 -15 -45 -15h-7q-62 0 -96 44v22q-46 13 -58 80h8q-22 67 -32 67l9 15v8q-15 0 -15 7t6 7l-14 126h8l-8 15q0 14 14 51q-6 33 -6 52q6 14 6 22q-6 0 -6 7q14 7 30 7v14h-8l-16 -6l-6 15v7q0 25 22 52l-22 14q2 42 22 66h-16v7q0 9 9 9l-9 14q4 14 16 14q-8 38 -22 38
q5 28 22 52q-11 0 -22 21l22 90l-7 13v16q0 52 36 52v6h-7q-15 -6 -22 -6l-7 14l7 15q-7 13 -7 21q24 0 29 61q-14 0 -14 6q20 236 50 294q0 7 -6 23q22 120 37 120l-9 13q29 228 52 228q-13 77 -13 81l36 30h21v-15h16q0 29 73 51zM251 1787v-15h8v15h-8zM414 1160v-15h6
v15h-6zM82 1153v-23q14 0 14 15zM391 1027h16q0 16 -16 16v-16zM361 887v-8h16v8h-16zM370 762v-16h7v16h-7zM23 717q1 -15 15 -15l8 15h-23zM30 695v-6h16v6h-16zM295 666v-15h15v15h-15zM317 547l15 -6q14 0 14 13q0 16 -14 16zM23 525v-15h7v15h-7zM244 467v-15h7v15h-7z
M23 333q15 9 23 9v14q-5 0 -23 6v-29z" />
    <glyph glyph-name="m" unicode="m" horiz-adv-x="1307" 
d="M1140 759l-9 -14l16 8h7q43 -26 43 -37q0 -8 -6 -8q15 -36 15 -59h-9l9 -14l-9 -15q25 0 31 -96l14 -15l-8 -38v-57l8 -45q-8 -22 -14 -22q14 -68 22 -68l-8 -13v-37l8 -36q-8 0 -8 -8h15v-16q-23 0 -23 -14l16 8h7l7 -44q-7 -23 -14 -23q6 -29 14 -29l-7 -14v-9l7 -36
l-14 7q14 -22 14 -44v-103q0 -7 -7 -7l7 -16v-118q0 -6 6 -6q-6 -18 -6 -22q-14 0 -14 22q-58 -30 -74 -45h-36q-141 36 -141 59q0 42 -23 103l15 -6v6q-29 32 -29 60v29l8 15h-8q0 -8 -7 -8v8q7 13 7 21l-14 8l7 14q-7 45 -16 45q0 7 9 7q-9 68 -9 110q0 4 3 16q2 12 6 30
q-15 0 -15 13h6q-6 16 -6 37h-8q-16 0 -102 -258q-63 -206 -90 -206l-36 -16q-126 46 -126 82q0 16 -15 16q0 7 8 7l-8 14v16h15v13h-22q0 8 7 8q-30 405 -51 405h-9v-45q-14 0 -50 -86q-16 -1 -16 -16q9 0 9 -8q-10 0 -45 -132q-61 -103 -74 -103q0 -9 -20 -43h-16v14h-8
q0 -13 -44 -30q0 7 -7 7q0 -14 -15 -14t-15 14q7 0 7 9h-7q0 -12 -30 -23q0 14 -87 30v7l7 14h-7q0 -8 -9 -8l-36 60v37h-15v22h8l14 -9v16q-22 0 -22 16q3 14 15 14q-15 23 -15 44l8 36q-8 16 -8 22q8 16 8 24l-14 29q10 15 21 89q0 6 -7 6l14 104h-7q7 22 16 22l-9 15
q15 89 15 103h-6q0 29 73 36q0 9 6 9q0 -9 8 -9q3 15 15 15q45 -6 59 -6l15 6q28 -15 59 -15h23q0 -15 13 -15v-36q44 -41 44 -51q-26 0 -44 -60q0 -7 8 -7l-8 -38q0 -5 8 -21l-28 -110l13 -8l-6 -15v-23h13q0 18 60 104q31 74 112 183q-9 13 -9 31q100 51 139 51h9
q53 0 81 -66v-65l-15 7l7 -15v-66h13l-29 -60q9 -66 29 -66q0 -9 -5 -22q6 -74 21 -74q30 51 30 74v30q27 0 29 52q8 0 45 94h-8q44 108 126 258v38l15 -9v9l-8 15q101 43 139 43h39zM578 553v-7h16v7h-16zM512 539v-8h16v8h-16zM645 509v-9h15v9h-15zM792 275v-16h7v16h-7z
M1234 59v-15h8v15h-8zM1006 -118v-7h15v7h-15zM1014 -132v-16q15 0 15 16h-15z" />
    <glyph glyph-name="n" unicode="n" horiz-adv-x="826" 
d="M614 618q0 -10 82 -89q11 -31 29 -59q-13 -2 -13 -15q22 0 36 -161l-16 7v-16h16v-15q0 -5 -8 -5q15 -43 15 -97h-7q0 -9 7 -9l-7 -50v-73h21q10 38 66 66q24 0 37 -53q0 -68 -43 -132q0 -48 -81 -65q-16 7 -23 7v-15h-6v15l-37 -7q0 10 -90 29q-34 12 -52 66v7h23l-7 16
q7 0 7 6h-7q-16 0 -16 -22h-6l-7 45q7 14 7 21q-13 9 -23 9v73q0 17 -7 29l16 37q-9 15 -9 23h9l-9 14v7l9 45q0 8 -9 8l9 36v37q0 6 -9 6l9 16v15q0 15 -16 15q-22 -28 -89 -207q-17 -70 -29 -74l6 -16v-7q-18 0 -28 -66q-12 0 -22 -50q-10 0 -44 -97q-16 0 -22 -29
q-14 -7 -30 -7h-23v15h-7v-15h-8l-14 7v-7l-15 7l-13 -7q-16 16 -16 28l-29 -6q-74 14 -74 58l-16 46h9l-22 94q5 23 13 23q-7 51 -13 51l6 15v13q0 9 -6 9l6 15q0 8 -6 8q17 79 29 79q-10 71 -16 81q13 46 30 164q7 0 7 8v73q3 15 16 15v-9l13 9q61 -20 61 -59h8
q13 0 13 14q26 0 53 -66q-9 -13 -9 -23q-7 0 -7 9l-37 -9h-7l-29 23l-7 -14q7 0 7 -9q-23 -7 -30 -28q23 4 23 13l14 -7l16 7v-21h6q15 0 15 14q-8 0 -8 7h29l8 -13h-22v-8h22q0 8 7 8l23 -52q0 -7 -7 -7l7 -39q-7 -91 -7 -94h7q18 0 36 66q14 0 53 103h7q44 0 44 -51h6
q38 20 38 29q-10 0 -30 29h-14l6 16q-16 0 -21 37q15 23 15 37h6l16 -8q0 10 30 28v16l14 -7l15 7q0 -23 14 -23h9q7 0 7 7l14 -7h16l13 7q4 -14 16 -14h7v7h-15v7q52 59 52 75h14zM143 507v16q-15 -4 -15 -16h15zM424 515v-15h6v15h-6zM106 507v-7h15v7h-15zM158 419v-15h8
v15h-8zM31 139v-23h9v23h-9zM548 102v-16h8v16h-8zM364 93l-8 -13h8l7 13h-7zM520 73v-8h14v8h-14zM520 44v-8h14v8h-14zM305 29v-9h14v9h-14z" />
    <glyph glyph-name="o" unicode="o" horiz-adv-x="764" 
d="M134 669v-22h7v22h38q7 0 7 -7q8 0 8 7q142 -28 177 -44q13 8 21 8q0 -15 22 -15v-16q0 -6 -7 -6q0 -43 103 -60q0 -7 8 -7q7 0 7 7l38 -21l-8 14v7h8l21 -13q26 13 44 13q0 -29 53 -50l13 6q0 -15 23 -15v-51q23 -27 23 -51v-15q0 -17 -9 -29q9 -13 9 -30v-23l-16 -21
v-8q0 -8 7 -8q-21 -133 -73 -176q0 -48 -110 -148q-20 -23 -89 -58q0 6 -7 6l7 -13v-8q-118 -35 -118 -45q-174 0 -213 89q-15 0 -53 75l8 13v7q-17 0 -37 90q8 0 8 7h-15q1 59 29 59v7q-10 0 -22 9q0 -16 -16 -16l-7 36q0 18 7 30q-7 36 -13 36q6 67 22 110h-9q9 8 9 68
l15 -6h5l-13 36q14 0 37 80h7q0 -6 8 -6v13h-15q1 16 15 16q0 -9 7 -9v16h-15v43l15 -6v6q0 16 -15 16q30 42 30 51h14zM46 397v-16h8v16h-8zM39 315l-9 -45h16q0 26 8 38zM423 315q0 -18 -9 -30q15 -1 15 -15l-6 -13q38 -29 66 -29h13q0 6 8 21q-21 0 -28 36q-16 30 -23 30
h-36zM710 301v-7h14v7h-14zM318 159l-6 -50q14 -139 36 -139q63 9 134 139q0 19 -141 37q0 13 -15 13h-8z" />
    <glyph glyph-name="p" unicode="p" horiz-adv-x="715" 
d="M212 683l45 7q11 0 29 -29q0 -7 -8 -7l8 -30q-10 -96 -21 -96q0 -9 7 -9q-3 -31 -8 -55q-4 -21 -7 -32q8 -16 8 -23q-8 0 -8 -6h15q0 16 117 95q63 53 170 59q78 0 139 -177v-59q0 -26 -7 -66q7 -15 7 -24q0 -211 -228 -338l-36 7q-38 -6 -38 -21l-36 7h-37
q-37 0 -51 -43l14 -38q-14 -32 -14 -44q6 -44 6 -67h-6l6 -15q0 -14 -13 -14q7 -14 7 -23q-7 -8 -7 -36q13 -2 13 -14l-13 -9q9 -15 13 -66q-12 -7 -21 -7q8 -8 8 -37q-9 0 -15 -43q15 -1 15 -16v-14q0 -16 -15 -16q15 -23 15 -36q-8 0 -8 -8q17 0 21 -43q-15 -52 -21 -52
l8 -16q0 -44 -15 -87q15 -1 15 -16q-15 -23 -15 -37q7 0 7 -7l-15 -6l8 -16v-21q-4 -16 -38 -32l-13 9l-15 -9q-30 9 -30 32l-36 -8q-70 0 -141 161v69l6 13q-6 0 -21 23q7 58 15 74l-8 43q0 23 14 59l-6 14q0 16 15 53q-9 12 -9 29h9l-9 14v9h16v-16h8v22l-24 15
q16 36 16 58l-7 16q15 54 15 66q-3 18 -6 30q-2 12 -2 15q15 27 15 65l-7 16l7 14q-7 13 -7 31l7 13l-7 16q0 7 7 7l-7 37l7 66l-7 15q13 36 13 67q0 2 -1 17l-1 8l-1 10q-1 12 -3 23q14 66 14 74q-14 0 -14 16q14 20 14 50q0 60 -14 60l6 36v74q0 6 8 6q-8 11 -14 74
q32 45 51 45l-7 16q0 9 22 20h38q7 0 7 -7q57 23 66 23t21 -7zM265 108l7 -53q136 38 227 148q0 19 23 52v51q0 110 -29 110q-109 -55 -126 -132q-12 0 -102 -163v-13z" />
    <glyph glyph-name="q" unicode="q" horiz-adv-x="718" 
d="M362 659q17 0 29 -8l14 8q17 0 119 -30q17 7 23 7q25 -52 58 -52q0 16 21 16q53 -10 53 -30l-8 -16q23 0 23 -49l-44 -163q0 -9 7 -22q-8 -97 -23 -97q5 -30 16 -30l-9 -14v-74h-15v-43q15 0 24 -15q-9 -34 -29 -38l5 -15q0 -6 -5 -6l5 -16l-13 -20l21 -16l-8 -15v-51
l-5 -45q5 -10 5 -29h-5l5 -16v-29l-36 -44h7q0 10 24 23h5q-43 -59 -43 -75h7l36 30v-15l-13 -29h13l-5 -16q5 0 5 -6l-13 -7l8 -15v-14l-8 -52q8 0 8 -9q-16 -7 -24 -7l16 -22v-21l-23 14h-7q38 -32 38 -37q0 -14 -24 -14v-8l16 -51l-16 -9q-10 32 -50 32h-8q14 -33 14 -53
q-6 -18 -6 -22q0 -19 66 -89l-23 -15l-15 8q0 -14 -15 -14v-7h8l15 7l30 -23l-8 -30q0 -31 16 -95h-8q0 -7 8 -7q0 -66 -46 -66q0 14 -15 14h-29v-14h-16q-4 0 -4 6l-16 -6q-156 30 -156 154q0 22 -7 52l7 15q-7 13 -7 29l15 51q0 17 -8 30l8 15q0 7 -8 22l16 66
q-8 22 -16 22l8 14q-9 57 -15 68l7 44q0 8 -7 8q23 71 30 140q-15 0 -15 14q16 24 21 125q-6 57 -6 90h-7l-52 -46l-14 9l6 -16v-8l-96 -21l-15 21l-37 -8h-13q-25 27 -75 46q0 28 -37 65l15 31q-15 0 -15 22l9 44q-9 37 -9 59q0 25 23 102h-8q4 47 44 74q0 45 30 45l-7 37
v7q0 8 7 8l-7 14v7q13 0 74 81l-8 16q21 25 29 88q58 7 58 15l16 -8h30q25 0 52 23h7zM237 209q7 -16 7 -23q-25 -25 -45 -139h-8l16 -30q56 24 140 184q23 0 44 132q-8 14 -8 29h8q-8 10 -8 61q-43 -16 -88 -81q0 -43 -44 -103zM104 141v16q-16 -1 -16 -16h16zM613 54
l-8 -15h8l8 15h-8zM531 -249q16 0 16 16v13q-16 -1 -16 -13v-16zM590 -249q12 0 23 22h-8q-15 -1 -15 -13v-9zM547 -270q13 7 28 7v23q-16 -16 -28 -16v-14zM568 -882h15q0 7 7 7q0 -7 7 -7v14h-7q-15 -7 -22 -7v-7z" />
    <glyph glyph-name="r" unicode="r" horiz-adv-x="779" 
d="M502 659q92 0 140 -59h7v-59q0 -7 -7 -7l7 -16v-13q-50 -37 -68 -127q-36 -129 -43 -221h-23v-7h16l-16 -88h7q-12 -39 -20 -119h6l-6 -14v-14h6q35 0 265 198q25 60 37 60q16 0 16 20h13q24 -50 24 -72v-8q0 -8 -8 -8l8 -14q-34 -23 -44 -90q-8 0 -53 -72
q-88 -73 -88 -89h-7l-16 7l-6 -14q6 0 6 -8q-2 0 -37 -29h-6l-15 8l7 -15q0 -33 -73 -45h-16l-22 16q-15 0 -51 -16q-15 7 -22 7v-7q-29 6 -29 16l-15 -9q-89 54 -89 96l7 15q-18 0 -29 67q8 0 8 7q-15 0 -15 16q7 0 7 6h-7q15 36 15 51l-8 16q22 84 58 154l-6 14l22 30v23
q-11 0 -29 21l7 16v6h-16q0 -19 -110 -73q-53 -103 -58 -103l5 -15q-29 -45 -49 -133l7 -13q-51 -119 -134 -119l-29 -24q-12 8 -29 8v8q0 40 37 58l-8 16v22l22 31q0 13 -14 13q9 48 21 66l-7 16q52 92 52 110l66 103l104 73q48 0 214 192q0 36 44 119q15 -8 22 -8zM287 75
v-7q2 -14 14 -14v21h-14zM-30 62v-15h7v15h-7zM294 31v-6h16v6h-16zM52 17q1 -16 14 -16v16h-14zM81 17v-8h15v8h-15zM273 -42v-6h14v6h-14zM294 -64v-15h7v15h-7z" />
    <glyph glyph-name="s" unicode="s" horiz-adv-x="553" 
d="M162 607q6 0 6 8q155 -49 171 -61l14 9h7q0 -16 16 -16l-16 -42q8 0 8 -8q-21 -28 -111 -74q-14 -30 -36 -30v-8q0 -7 7 -7q-44 -95 -60 -95v-16l16 8v-15q10 0 176 60h46q7 0 7 -7l13 7q82 -31 82 -81h8l-8 -16v-7q25 0 37 -59h7l-7 -36v-8q0 -8 7 -8l-66 -117
q0 -43 -96 -133l-14 7l7 -15q-6 -31 -44 -51q-37 -25 -37 -45q-81 -57 -81 -73h-15l-38 7v-15q23 0 23 -15h-7l-16 8v-15h-13v37h-8q0 -44 -7 -44q-47 -36 -88 -44q0 15 -16 15v-15h-81q-15 0 -15 15q8 13 8 29l-15 7l7 51v8l-14 23q124 102 126 117l13 -7h9v7h-16
q79 105 97 105q139 156 139 161q0 13 53 66q0 2 13 44q-39 -14 -44 -37l-14 7h-8v-7h16v-7l-67 -22q0 16 -15 16v-9q15 -1 15 -14l-15 -9h-7v16h-15q0 -6 -6 -22q-51 0 -178 81q7 0 7 7q-18 0 -30 16l9 13v15h-16v38l-8 15h15q0 7 -7 22l7 43v23q18 0 23 44q43 33 43 58
l16 -5q11 0 29 65h8v-23h7q0 23 22 23v7h-15q0 -7 -7 -7l-7 14q10 0 44 31v-8zM129 582h15q0 14 -15 14v-14zM99 486v-9h23v9h-23zM47 404v-23h9v23h-9zM173 212v-7h13v7h-13zM173 -105v-14h13v14h-13zM276 -163h38v15q-12 -8 -38 -8v-7zM248 -222v-16h7v16h-7zM180 -238
v-14h6v14h-6zM113 -245v-7h16v7h-16zM122 -275h22v16q-15 -9 -22 -9v-7zM70 -282v-15h6v15h-6zM92 -282v-6h15v6h-15zM26 -319v-14h7v14h-7zM70 -325v-8h14v8h-14z" />
    <glyph glyph-name="glyph87" horiz-adv-x="552" 
d="M295 860q1 16 15 16h15q0 -12 36 -30q0 -28 16 -43h-7l7 -16v-16q-71 -103 -162 -103q-75 -61 -75 -110v-22h-21v-15q11 0 37 -45l13 -6q96 53 185 73h23l14 -7v15q7 0 23 -8l42 8q90 0 112 -125l-6 -16v-44h-16l7 -15h-7q7 -12 7 -22q-15 -20 -23 -111
q-81 -113 -87 -132l-16 7v-7h9q0 -19 -59 -51v7q-16 -7 -23 -7l7 -15q-15 0 -44 -37q-37 0 -95 -73l-16 7h-14q-7 0 -7 -7l-16 7l-73 -44q0 13 -14 13q-152 -42 -171 -42q-73 33 -73 95l-14 15q8 66 30 66l36 -14q86 0 156 65q22 0 103 68q12 0 66 73q15 4 57 96l16 -8h7
l-7 15l53 111h-31q-33 -25 -118 -60h-7q-35 0 -52 24l-14 -9h-9l-36 29q0 -7 -7 -7q0 16 -21 16v7l6 13q-14 0 -38 68l9 14v8h-15v14l15 -7h7v7h-16q10 66 16 81h-7q0 -6 -9 -6v13q58 74 68 74l-8 16q17 0 29 29q0 18 30 37v7l16 -7q0 36 81 82l36 -9q2 16 14 16
q3 -16 15 -16zM206 692v-15h16v15h-16zM288 492v-7h14v7h-14z" />
    <glyph glyph-name="t" unicode="t" horiz-adv-x="587" 
d="M307 1365q74 -13 118 -73q0 -14 8 -14l-8 -36v-69l-13 -20q13 -2 13 -16v-140q2 -13 16 -13q36 0 192 36h7l15 -7q0 14 52 21q2 -14 13 -14q0 23 141 30v-7q27 14 58 14q39 -7 46 -7q13 7 22 7q38 -54 88 -73q0 -9 -7 -9l7 -52v-21h-44q-17 0 -30 7q-47 -18 -110 -67
l-36 9q-72 -9 -89 -9q0 9 -9 9l-7 -15l-37 6q0 -12 -178 -37v7q-15 0 -57 -43q-45 0 -45 -23v-110h-15q8 -61 23 -82q-16 -23 -16 -36q0 -9 8 -21q-9 -83 -15 -98q7 -12 7 -28h-7l7 -15v-125q0 -16 -7 -30q7 -12 7 -28v-52l-20 -30q12 0 20 -23v-21q0 -8 -7 -8l7 -14
q0 -77 -13 -192q6 -16 6 -29q-17 -15 -29 -15v-9q23 0 23 -13v-7l-16 -23v-38q37 0 37 -36q68 0 192 214q18 47 38 52q13 0 21 -52q-8 -13 -8 -30l8 -38q0 -53 -44 -86l-15 7h-8v-7h16v-9l-8 -15q15 0 15 -5q-15 -48 -43 -61q0 -29 -53 -50q-11 5 -29 5q0 -37 -74 -57h-23
q0 -29 -79 -29q-65 0 -106 73l16 22h-8l-13 -9l-53 135q8 0 8 7q-17 0 -29 66q6 14 6 29q-13 0 -13 15v15q0 7 7 7q-16 27 -16 44q0 23 22 23v14l-22 -14v52q0 16 9 28q-9 12 -9 30l16 8l-7 15v6q0 7 7 7q-5 30 -16 30q13 126 22 141q-7 20 -13 67h-9q-20 -67 -36 -67l7 -15
q-4 -34 -73 -103h-24l-6 -15l-15 8q-23 -16 -36 -16q0 16 -45 30v6l45 60h7l-7 15q87 163 139 413q-7 0 -7 7l15 8l16 -8q0 59 5 81l-14 9h-37q-17 0 -74 -16q-31 0 -36 45h-7q0 -29 -16 -29h-37q-61 0 -132 57l-16 -7q-39 29 -59 29v7q0 11 46 46l22 -16q0 33 51 52
q7 0 7 -7q99 22 273 44q13 -8 29 -8h8q0 15 7 15q9 0 9 -7q66 0 66 73q7 111 15 119q0 7 -8 7q12 131 37 177q-16 0 -16 14v16q2 15 16 15h7q7 0 7 -7zM-275 821v-9h16v9h-16zM-246 799v-7h16v7h-16zM65 783v-14h14v14h-14zM367 547v-6h15v6h-15zM396 547v-6h16v6h-16z
M160 415v-7h15v7h-15zM343 141v-6h16v6h-16zM396 83v-15h9v15h-9zM343 31h9q24 16 44 16l-7 15q-31 -23 -46 -23v-8zM352 17v-16h7v16h-7zM160 -94v-7h15v7h-15zM330 -117q1 16 13 16q0 -8 9 -8v15h-22q-15 -1 -15 -15zM367 -130q2 -15 15 -15v7q0 15 -15 15v-7zM190 -167
v-16h7v16h-7zM359 -175v-16h8v16h-8zM213 -240v-9h15q0 -14 -24 -14v-7h9l36 7v14q-17 0 -29 9h-7zM183 -256v-7h14v7h-14zM412 -263h13v-7h-13v7zM551 -337l-7 -30h7l14 8q-6 16 -6 22h-8z" />
    <glyph glyph-name="u" unicode="u" horiz-adv-x="722" 
d="M140 654q178 -35 178 -88h-15l7 -14q-17 0 -37 -75q-11 0 -23 -22l7 -29q-7 -12 -7 -29h7q-15 -112 -20 -112h-16v-7q23 0 23 -13l-16 -24q16 -1 16 -13l-7 -45q7 -37 7 -74h-7q8 -20 13 -73q-13 -82 -13 -97q8 -38 20 -38h9q52 82 66 82q19 66 44 66l-7 16q11 0 23 21
h-8q18 53 36 53v44q14 29 22 29q0 9 -8 9q6 43 24 64v30q0 8 -9 8q13 28 23 28l-14 30q9 0 57 45h16v-7l-7 -15h21l-6 15v7h6q58 -22 67 -22h29v9h66v-9h-14v-7q14 -19 14 -30l30 23h9q-82 -189 -82 -267q0 -14 -14 -14q14 -52 14 -89v-7l-8 -14h8l-8 -16q0 -20 22 -20v-46
q0 -18 -28 -58q0 -22 -24 -22q-78 26 -154 44v7l-14 -7h-9l-15 7l-21 -36q7 0 7 -8q-9 0 -51 -53q-66 -36 -66 -59h-9q0 39 -21 39v-39q-16 0 -29 -7q-16 13 -126 23v-7q-25 14 -37 14l15 23q-55 0 -73 50h6l-6 16v8h13v7h-13q0 -7 -7 -7q0 17 -8 29h8q-16 26 -16 58v8
l16 -8l13 24q-5 0 -21 7q0 -7 -8 -7v7l16 21v8h-16q0 7 8 7l-8 51l8 52l-8 14q9 20 23 68l-7 14q13 65 20 65l-7 38v23q3 13 16 13q0 7 -9 7q10 108 23 156v111q22 25 22 36h59zM707 397h16v-7h-16v7zM162 265v-16h8v16h-8zM23 131l13 -8h9v16l-16 -8q0 8 -6 8v-8zM45 116
v-23h7v23h-7zM208 65v-16q13 0 13 16h-13zM65 -112v-15h9v15h-9zM59 -222h22v-7h-22v7z" />
    <glyph glyph-name="v" unicode="v" horiz-adv-x="667" 
d="M669 713q10 -21 15 -21l-6 -15v-15l6 -15q-15 -2 -15 -14q0 -8 9 -8q-55 -76 -89 -244q-8 -14 -22 -14v-7h22l-7 -16v-43q0 -7 7 -7q0 -9 -7 -9l7 -36q-10 -103 -22 -103l6 -15v-8h-14q0 -7 8 -7q-22 -139 -60 -183h-7l7 -16q-12 0 -30 -65q-27 -27 -64 -45v7l7 14h-7
q-18 -6 -23 -6l7 -15v-8h-14v29h-16v-14l-14 8h-38l-14 -8v8l-16 -8q-9 8 -28 8v-8q-72 51 -74 67l8 14h-8q0 -7 -8 -7l-20 45q7 0 7 6q-24 0 -37 81q-8 0 -8 9l8 15q-8 0 -8 5h8l-16 31q8 0 8 6h-15l-9 73h9l-9 16l9 16h-9q0 -8 -4 -8v74l-9 44l9 14q-9 12 -9 29v7q0 9 9 9
l-9 15v29q0 9 9 9q-16 26 -16 57q7 0 7 7h-15v46l8 13q-12 0 -29 16q-45 -75 -66 -75l-38 -7l-15 7q-22 -15 -44 -15l-37 24q0 -9 -7 -9q-12 30 -22 30q0 26 58 59q9 21 105 88q0 13 66 45q1 -15 13 -15q0 29 111 29q59 0 89 -66q-8 0 -8 -8h8q0 8 8 8l13 -22l-6 -14
q22 0 22 -45q-9 0 -9 -7h16v-7q0 -9 -7 -9q7 -9 21 -110l-6 -36q6 -14 6 -30l-14 8v-8q23 -7 23 -16l-23 -36h8q0 8 6 8q0 -29 16 -29l-7 -29q0 -64 23 -106q-23 0 -23 -13l29 -30l30 43q0 9 -8 9q9 37 22 37q-7 17 -7 23q12 26 36 185q37 79 60 160q9 0 37 60h7l-7 14
q107 74 155 74q0 -8 -9 -8zM221 618v-16h7v16h-7zM139 573v-7h16v7h-16zM117 536v-7h22v7h-22zM-171 523v-8h15v8h-15zM559 413v-16h23q0 16 -15 16h-8zM162 390q6 -16 6 -23h7v14zM109 270v-5l16 -8v8zM191 249h14l8 16q-13 -8 -22 -8v-8zM213 241v-7l15 -6v6zM257 234
l-8 -13h8l8 13h-8zM221 205v-14q15 0 15 14h-15zM228 155q0 -24 -37 -24v-8h30l15 23v9h-8zM213 109l-8 -16v-7h8q0 7 8 23h-8zM477 102v-9l16 -7v7zM530 102v-16h6v16h-6zM331 93v-13h7v13h-7zM228 86l-15 -21h8q0 15 21 15v6h-14zM249 80v-15h8v15h-8zM367 44v13
q-14 -1 -14 -13h14zM434 44v-15h7v15h-7zM523 44l-7 -15v-9h7q0 16 13 16v8h-13zM236 36v-16h6v16h-6zM285 29l-13 -23h6l16 23h-9zM324 29l-9 -16h9l7 16h-7zM183 -1v14h-8v-14l16 -8l14 22v7q-14 0 -14 -21h-8zM236 13l-8 -14h8l6 14h-6zM278 -1q0 -5 -6 -23h6l7 15v8h-7z
M168 -37v-9l15 -7v7zM272 -46v-15h6v15h-6z" />
    <glyph glyph-name="w" unicode="w" horiz-adv-x="893" 
d="M975 1068q17 0 29 -7q14 7 21 7l30 -16q0 9 7 9q5 -17 52 -75v-36q-24 0 -102 -53q-36 -87 -67 -87q0 7 -7 7l-8 -14h8q0 7 7 7v-7q-16 -90 -37 -90v-6q22 0 22 -8q0 -25 -28 -60l6 -14q-4 -59 -22 -59q0 7 -7 7l-9 -14h16v-16h-37v-57h15v37h15v-8l-9 -15h9
q-43 -162 -67 -230q8 0 8 -5q-16 -4 -16 -16h8l-21 -44h6l-14 -30q8 -16 8 -20q-15 -8 -81 -216q-23 0 -23 -22q0 -42 -96 -80l-15 7q-62 -7 -104 -7v7l-13 -7q-82 45 -82 96l7 14q-14 0 -14 23h-8q-5 0 -51 -53h-15v16h-8q0 -23 -21 -23v-9h21q0 -45 -37 -49q0 9 -7 21
l-13 -8l-30 16q-12 -8 -31 -8q-102 73 -102 126q-38 139 -45 229h-14l7 13v37q0 53 -16 53q9 12 9 20l-9 68q59 0 59 30h9v-16l14 8h22l-8 -15q23 0 38 -29q0 -7 -8 -7q32 -234 59 -288q1 -16 16 -16h6l15 7q0 -7 9 -7l-9 16v7l9 14q-9 0 -9 8q40 39 66 97h8l15 -7l-8 13v7
q43 24 133 29q35 -37 52 -79q-8 0 -8 -8q22 0 22 -37h16q22 41 66 198q8 0 22 53h-7q19 90 45 132q0 7 20 7v7h-16v23l16 -7v7l-7 16l37 80l16 -8q0 90 44 90v6l-8 15q9 0 22 9q-8 12 -8 20q50 117 96 133l-7 15v15q25 0 66 66q5 0 45 45h15zM879 860v-6h14v6h-14zM849 596
v15q-16 -2 -16 -15h16zM776 566v-14h7v14h-7zM820 559v-7h13v7h-13zM797 462v-7h15v7h-15zM82 419v-15q14 0 14 15h-14zM820 381v-6h13v6h-13zM730 80q16 0 16 13h-8q-15 -1 -15 -13h7zM710 -1h13q0 14 -13 14v-14zM192 -76v-14h9v14h-9zM443 -99v-13h9v13h-9zM644 -99v-6
h13v6h-13z" />
    <glyph glyph-name="x" unicode="x" horiz-adv-x="586" 
d="M516 659q23 -5 56 -12v7q21 0 44 -43h-15v-15l15 6l14 -20q0 -9 -7 -9l7 -14v-23l-58 -81l-15 7q0 -49 -23 -49l8 -16q-14 0 -67 -96h-6v14h-7v-7l7 -14q-72 -106 -74 -135l14 -43q-8 0 -8 -7q18 0 23 -29l45 -51q0 -30 42 -105q0 -9 31 -59q0 -13 -15 -13h-22
q-19 13 -30 13t-43 -13q-61 0 -142 102q-13 0 -13 16q-15 -5 -30 -37q7 0 7 -9q-40 -33 -66 -102q-30 -33 -74 -155v-15q0 -7 7 -7q-7 -81 -36 -81q-56 37 -66 37v-8q-45 10 -45 29l8 38h-8q0 91 81 273h9l-9 14q45 102 59 102h7v8h-14q0 18 51 111v44q0 12 -66 139
q-40 108 -66 149v7q6 18 6 22h32l14 -6l-8 13v23h8l14 -7l58 21q10 -21 46 -21v-37q36 -34 44 -74q22 0 22 -37h15q21 22 58 22q-13 26 -13 36l20 15l16 -7l74 89q0 23 59 103q5 0 25 -3zM395 486h14q0 14 -14 14v-14zM498 404v-7h13v7h-13zM491 -127h29v15l-15 -7q0 7 -7 7
z" />
    <glyph glyph-name="y" unicode="y" horiz-adv-x="670" 
d="M267 566q11 -30 36 -30v-44l14 8l9 -45l-15 -6v13h-8v-29h-14l7 -14q-29 -2 -29 -96l-16 8v-16q0 -7 9 -7q0 -7 -9 -7l9 -36q0 -8 -9 -24l9 -13q0 -45 -29 -45v-15h13v15h7v-44h-13l13 -23v-59h9q32 16 117 141q2 30 22 30l-7 13q7 24 15 24q0 5 -8 5q8 25 8 74l16 -6
l-8 13q1 16 13 16q0 -7 8 -7q5 30 23 30h13l-7 -15q7 0 7 6l30 -6h52v-8q15 0 15 14h-15q1 16 15 16h22l-7 -16v-6h7v15h8q4 -39 36 -39v-7h-15v-29h8v16h16l-9 -37q9 0 9 -9q-13 0 -24 -20l15 -24v-20l-15 7v-7q15 -2 15 -16q-6 -82 -15 -82h-7l7 -37l-13 7v-20h-8l-15 7
v-7q7 0 7 -8q-7 0 -7 -8l15 -8v16q14 0 14 -21l-14 -31h8l-23 -50h7q8 12 8 20h8v-7q-8 -29 -8 -52h-8v15h-7v-6q7 -23 15 -23q0 -22 -37 -22v-7q29 0 29 -16l-7 -37l-15 9v-9q11 0 22 -21l-14 -22q7 -14 7 -23q-15 -1 -15 -14q0 -7 8 -7q-15 -104 -30 -126l7 -14
q-6 -31 -16 -31l9 -14v-23q0 -13 -29 -13v-9h20v-14q0 -14 -20 -14v-15h15v-8l-15 -51h7q-23 -54 -23 -74q0 -7 7 -7q-37 -115 -37 -126l9 -15v-7l-16 7l7 -15v-36q0 -13 -13 -13v4q-6 0 -44 -28q0 15 -16 15v-30h16q0 -14 -16 -14h-7v14h-7v-14h-8v21h-7v-14q7 -12 7 -29h8
v22l38 -16q0 25 5 53h31v-16l-16 8l-7 -15v-23q16 0 16 23h13q-6 -14 -6 -36l-16 6v-6q16 -1 16 -15v-8l-31 23l-5 -15h5q0 8 8 8l7 -16q-18 0 -28 -30h-16v-15l16 8h8l5 -29l15 8q0 -8 9 -8v8l-16 7l7 14v7h-15l8 16q-8 0 -8 6h8q18 -6 23 -6v-60q0 -13 -16 -13
q0 13 -15 13v-7q19 0 24 -37q-9 0 -9 -6q22 0 22 -45h-13q7 -36 43 -110q-17 -60 -80 -60q-81 0 -141 147l-14 68l7 37q-7 0 -7 6q7 0 7 7h-7q0 -7 -9 -7v7l9 16q-9 0 -9 7h16v14l-16 -8h-7v15q0 32 30 46q0 6 6 20l-36 -28v15q0 6 7 6l-13 45q0 42 42 73q4 -13 16 -13
l-16 28q9 14 9 22q-15 0 -15 16h15v21h-22v30h13q-5 23 -13 23l7 13l-7 16h13v7h-20v29q14 108 14 119v21h15v7h-15v9q15 23 37 155q15 0 15 57h-9l16 39q-7 14 -7 20q0 37 23 37q-8 63 -32 73q-51 -20 -102 -20q-81 10 -81 36l-15 -7h-8l-29 44q0 18 -36 66v9l7 15h-7
q7 10 7 36h-7q0 6 7 6l-7 16v14l7 15l-22 15q15 52 28 52l-13 59h7l-7 13q0 21 13 45q-6 18 -6 23l15 6l-15 89q11 29 22 29v-13h7v13q-14 0 -14 15l7 38l16 -8h6q0 8 7 22q-7 0 -7 7q7 0 22 7q0 -7 8 -7q0 23 88 23l16 -7v7l13 -7zM238 543v-7h22v7h-22zM164 523v-8h14v8
h-14zM82 441q0 -34 -14 -51h7l22 29h-6l6 14v8h-15zM149 390v-9l15 -6v6zM207 381v-14h8v14h-8zM577 351q14 0 14 -13h8q14 0 14 13q-20 0 -36 16v-16zM111 344l16 -6h7v6q-6 0 -23 7v-7zM452 344v-6h20v6h-20zM518 308v7q-4 17 -37 29q4 -19 37 -36zM569 331v-16
q15 0 15 16h-15zM465 323q7 -12 7 -29h9v21zM538 323v-8h16v8h-16zM599 323v-22h14q-6 16 -6 22h-8zM193 315v-14h14l-14 -23h8l14 23zM415 315v-14h8v14h-8zM149 294v-16h8v16h-8zM502 294v-37h7v37h-7zM423 278v-21h5l-5 -16q10 -36 20 -36l-7 16v13l7 15q-15 0 -15 29h-5
zM547 270v-13q15 0 15 13h-15zM452 265v-8l13 -8v8zM481 265v-24q14 0 14 16zM525 265v-16h8v16h-8zM577 265q7 -16 7 -24h7v16zM554 241v-13h8v13h-8zM599 241q0 -10 -30 -50h8q30 33 30 43v7h-8zM465 221h16q0 13 -16 13v-13zM488 175h14l-7 37v16l14 -7v13h-7
q-14 -1 -14 -13v-46zM407 228v-7h16v7h-16zM82 221v-16h9v16h-9zM525 212v-21h8v21h-8zM613 212q0 -14 -22 -14v-7h16l13 21h-7zM68 205v-14h7v14h-7zM407 205v-7h16v7h-16zM465 205q0 -6 -6 -22h6l7 15v7h-7zM91 198l-9 -15h9l6 15h-6zM407 191q0 -12 -15 -32h7l16 24v8h-8
zM577 183v-15h7v15h-7zM607 159q0 6 6 24h-6q-16 -1 -16 -15zM111 175v-16h8v16h-8zM149 175v-16h8v16h-8zM53 168v-13h6v13h-6zM452 168v-13q13 0 13 13h-13zM481 168l-9 -29l16 -8v37h-7zM525 159q13 0 13 -28h9q0 16 7 28l-16 9q0 -9 -5 -9q0 9 -8 9v-9zM613 159v-13h7
v13h-7zM134 155l-7 -16h7l7 16h-7zM538 116q0 7 -5 7v-7l14 -7h7v14h8l15 -7l-8 15q2 15 15 15l7 -30h-7q7 -12 7 -30h8v23h-8l8 14v23q-9 0 -22 9q0 -10 -39 -39zM452 146v-7l13 -8v8zM423 131v-15h5v15h-5zM149 123l-8 -14h8l8 14h-8zM472 123l-7 -14h7l9 14h-9zM59 109
v-7q9 0 9 -9q-9 0 -9 -7l16 -6v6q-7 0 -7 7q7 0 7 9zM238 109v-16h6v16h-6zM452 109v-16h7v16h-7zM495 102l-7 -16h7l7 16h-7zM518 93v-13l20 -15v15q-13 0 -13 13h-7zM399 86v-6h16v6h-16zM443 86l-7 -13h7l9 13h-9zM562 86l-8 -13v-8h8q0 15 15 15v6h-15zM68 65h14l9 15
q-16 -7 -23 -7v-8zM238 57v-21h6v21h-6zM584 44v-15h7v15h-7zM533 29l-8 -16h8l5 16h-5zM119 20v-14h8v14h-8zM170 6h15l8 14q-15 -7 -23 -7v-7zM377 20v-14h8v14h-8zM459 13v-14h6v14h-6zM533 6v-15h5v15h-5zM97 -1v-16h7v16h-7zM481 -9v-15h7v15h-7zM201 -17v-7h14v7h-14z
M377 -24q8 -12 8 -29h7v23zM569 -24v-22h8v22h-8zM111 -37q8 -16 8 -24h8v15zM547 -53q15 -1 15 -14q-8 0 -8 -9h8l7 15v8q-6 0 -22 7v-7zM443 -61v-15h9v15h-9zM481 -76h14q0 15 -14 15v-15zM509 -61v-6l16 -9v9zM170 -83l-6 -16h6l8 16h-8zM407 -83v-16h8v16h-8zM362 -90
v-15h8v15h-8zM481 -135h7l-7 -13v-15h7q0 18 14 36h-7q0 -8 -7 -8q0 8 -7 8v-8zM525 -193v-8h13v8h-13zM459 -209v-13h6v13h-6zM472 -311v14q-13 -2 -13 -14h13zM481 -297v-7h14v7h-14zM428 -340v-15h8v15h-8zM326 -385v-14h7v14h-7zM472 -509v-8h16v8h-16zM465 -621v-15h7
v15h-7zM472 -665q0 10 9 22q-16 -9 -22 -9q2 -13 13 -13zM303 -688v16q-14 -1 -14 -16h14zM303 -694q0 -15 -7 -15q15 -28 15 -45h6q-6 34 -6 60h-8zM326 -717v-7l7 -14q17 7 22 7v7zM280 -747h16q0 16 -16 16v-16zM355 -738v-24q15 0 15 15v9h-15zM251 -738h9v-16h-9v16z
M333 -747l-7 -15v-5h7q0 5 8 20h-8zM392 -775q0 9 7 21q-13 -8 -22 -8q3 -13 15 -13zM459 -754v-8h13v8h-13zM303 -762v-21q8 -15 8 -22h6v7q-6 14 -6 36h-8zM267 -762v-5l-7 -16h14q0 -8 -7 -8l7 -14v-15h-14q0 37 -16 37q7 17 7 21h16zM326 -783l7 -15v-22l-16 7l-6 -15
v-13h15l-9 13h16v-13q24 21 44 21l-7 15v7l37 -7q0 7 -8 7l8 15v8q-15 -2 -15 -16l-15 8h-15l-7 -37h-14l8 37v8h-8zM415 -820q18 0 44 -44q-5 27 -36 59h13v7q-8 0 -21 7v-29zM385 -813v-15h7v15h-7zM244 -820h16v-21h-16v21zM407 -857q2 -16 16 -16h5l-5 45
q-16 -1 -16 -13v-16zM370 -835q3 -14 15 -14v14h-15zM392 -835v-14h7v14h-7zM267 -849q0 -15 -16 -15v-9h16l7 16v8h-7zM289 -849v-15h7v15h-7zM317 -849v-15h9v15h-9zM333 -849v-15h16v-9q-17 0 -32 -43h9q0 7 7 7q0 -7 8 -7l-8 15l22 28q-6 18 -6 24h-16zM370 -864v-9
q18 0 29 -4v13h-29zM311 -886h15q0 13 -15 13v-13zM355 -886q1 -15 15 -15q0 8 7 8q0 -8 8 -8v8l-15 7h-15zM349 -909v-14h6v14h-6zM311 -930v-9h15v9h-15zM349 -930q0 -4 -8 -29h8q13 0 13 13v16h-13zM399 -952v-23l16 -8v8q-8 17 -8 23h-8zM289 -959v-16h7v16h-7z
M362 -983v16q-13 -3 -13 -16h13zM267 -975v-8l13 -6v6zM377 -983v-22h8v22h-8zM362 -989v-23h8v23h-8zM326 -997v-8h7l-7 -15v-6q0 -12 23 -23v8l-16 21l8 15zM280 -1026q16 0 16 14v7q-16 -1 -16 -15v-6zM377 -1020v-21h8v21h-8zM355 -1026v-15h7v15h-7zM385 -1056l-8 -13
q15 7 22 7v6h-14zM415 -1062l-8 -16v-7h8v16l13 -9v9zM289 -1093v-6h22v6h-22zM303 -1131v16q-14 -1 -14 -16h14zM377 -1122l-7 -15v-7h7q0 7 8 22h-8zM303 -1151v-16h8v16h-8zM385 -1159v-15q14 0 14 15h-14zM392 -1181l-7 -16h7l7 16h-7zM443 -1181v-29h9v29h-9z" />
    <glyph glyph-name="z" unicode="z" horiz-adv-x="678" 
d="M383 750q16 8 26 8l79 -8l-7 -15l42 5h16l-9 -14h9q0 9 10 9l8 -40l-8 -17h8q0 7 9 7q2 -17 17 -17l-17 -30h7q0 7 10 7v-16l-10 -16q18 -1 18 -17q0 -7 -8 -7l8 -16v-57l-8 -16q38 16 114 16h25q9 0 9 -7l16 7h28q21 0 33 -7l45 16q0 -48 34 -111l-112 -27h-114
q-138 0 -138 -31q0 -23 -35 -57q8 0 8 -6q-31 -29 -121 -219q-14 -15 -35 -15v-8h25v-7q-58 -113 -58 -146v-16q2 -17 15 -17h9l106 40q119 72 154 106h43q0 -17 -18 -17l10 -17q0 -6 -10 -6l10 -17v-7q0 -7 -25 -25v-24q-17 0 -44 -55q-44 -34 -61 -34v-7h18v-17
q-55 0 -72 -32q-24 -16 -43 -16h-24q0 -7 -10 -7q-8 0 -8 7l-44 -7l-87 7v-7l-68 32l8 16h-8v-7q-43 0 -87 94l10 17q-19 23 -19 49l9 16l-9 16q0 90 104 289v7h-61q-8 0 -8 8l-16 -8h-28l-18 8v-8q10 0 10 -7h-10q-18 0 -18 15q-7 0 -7 -8q-87 16 -87 49q28 36 165 72v-8
q121 32 131 32q0 -7 7 -7q0 11 53 47q52 151 52 176h-24q-42 0 -149 -47q0 9 -10 9q0 -30 -67 -43l-64 9q0 9 10 9l-10 16q0 10 36 47l-8 18q36 17 36 23l16 -7h8v7h-17v7q233 90 295 90v-8zM523 701v-16h7v16h-7zM392 685l17 -7l9 17h-9q0 -10 -10 -10q0 10 -7 10v-10z
M523 661q7 -16 7 -23h9v16zM340 654v-9h17v9h-17zM193 638v-9h16v9h-16zM428 629q1 -16 14 -16v7q0 18 -14 18v-9zM471 638v-9l17 -9v9zM523 629v-9l26 -14v7zM62 620v-24h9v24h-9zM183 613v-17h10v17h-10zM481 613v-17h7v17h-7zM452 566v-9l19 -9v9zM442 539v-14l19 -9
q-9 19 -9 23h-10zM428 500v-7q43 0 43 -24h10v16l-29 15h-24zM461 414h20q0 14 -20 14v-14zM496 397v-10l18 -7v7zM461 387l-9 -15h9l10 15h-10zM105 356h18l10 16q-18 -7 -28 -7v-9zM350 365l-19 -26h9l17 26h-7zM428 365v-9q8 0 24 -9v9l-15 9h-9zM62 356v-17h9v17h-9z
M481 356v-17h7v17h-7zM176 347v-8l17 -7v7zM263 332l-9 -17h9l6 17h-6zM437 332l-9 -17h9l5 17h-5zM27 324l-10 -16v-9h10q0 16 18 16v9h-18zM166 315v-16q17 0 17 16h-17zM409 308l-10 -15h10l9 15h-9zM226 299v-6h28v6h-28zM139 293v-9h19v9h-19zM200 293v-9h19v9h-19z
M399 236q0 -7 -7 -24h7l10 16v8h-10zM557 -46h16q0 17 -16 17v-17zM331 -198l-24 -31h6l27 31h-9z" />
    <glyph glyph-name="braceleft" unicode="{" horiz-adv-x="601" 
d="M433 1545q84 -39 195 -70q0 -10 16 -10v-61q0 -12 -34 -27l-45 10v-10q-53 9 -114 35q-72 -39 -72 -96l-18 -62q18 -101 37 -124l-9 -18q14 0 26 -36q-8 -15 -8 -26h8l-8 -17v-10l35 -70q-8 -35 -18 -35q25 -113 36 -115l-18 -53q9 -17 9 -27q-14 0 -36 -108
q-30 -46 -132 -130q0 -39 43 -99q0 -14 35 -97q0 -7 10 -26h-10q22 -100 37 -124v-26q-27 0 -27 -35q18 -4 18 -19v-124l-10 -18q21 -7 28 -7q0 -10 -18 -99v-52q0 -20 9 -36q-9 -17 -9 -27h9l-9 -17q17 -61 53 -88l18 8q62 -30 62 -35q35 15 35 27q-10 0 -10 8h18
q0 -26 10 -26q5 0 87 9q28 -59 28 -90v-8l-10 -45h-43l-27 -18l-63 10v-10q-104 22 -140 46l-18 -10q-81 45 -97 45q0 -10 -9 -10q0 37 -53 81q-62 33 -62 186v62l-10 17l18 9q-18 54 -18 132h10l-10 18v45l10 44q-10 0 -10 9l18 8l-8 18v10q0 8 8 8l-8 17q0 27 8 27
q-8 80 -18 80q0 8 10 8l-10 46v34q-10 0 -26 9l8 18v17q-98 0 -140 90v16q40 0 61 98q142 93 142 186l18 18l-10 16l10 18q-10 0 -10 9h10q0 9 -10 9l10 45q-9 103 -18 115q0 8 8 8l-8 45v18l8 18l-17 8q0 300 80 372q26 0 26 17h-17q0 18 88 36q0 8 8 8h54zM168 6v-9h26v9
h-26z" />
    <glyph glyph-name="bar" unicode="|" horiz-adv-x="432" 
d="M253 1641q0 -22 62 -103l-1 -25q-1 -40 -12 -62l8 -52q-13 -85 -14 -136l6 -52q-11 -23 -11 -36l10 -26l-11 -25l8 -24l-11 -50q10 -39 17 -39l-8 -25q17 -49 14 -87l-12 -63q9 -21 9 -38l-10 1l8 -25q0 -13 -9 -13l8 -26l-1 -50q-1 -12 -10 -12q17 -64 27 -64
q-16 -84 -33 -111q9 0 27 -52l-11 -25q-1 -12 8 -12l-22 -125l15 -101l-13 -75q0 -29 16 -126l-14 -88l36 -63q-42 -116 -42 -137l-1 -37q-1 -69 43 -102q-68 -324 -115 -322h-18q-131 29 -127 104q-19 2 -23 126q-11 0 -11 14l21 37l-6 63l18 -1q1 37 -7 37q13 114 21 113
l-8 25l2 114l-24 76q11 25 12 49q-18 42 -18 64l19 13q-22 133 -33 365q-10 0 -10 11v13h19q2 12 -8 12q0 13 10 13q-6 137 -12 163l9 25q-6 99 -5 138l2 39q1 12 -10 12l11 24q2 38 -25 41v12q22 31 31 122h-9q11 25 11 38l-9 26q10 37 20 37q-7 27 -11 188l10 25l-10 27
q4 86 59 86l2 11l-28 1q62 148 135 145h39zM61 1235v-15h18v12z" />
    <glyph glyph-name="braceright" unicode="}" horiz-adv-x="566" 
d="M142 1457q151 -52 194 -134l-8 -16l44 -63q-10 0 -10 -9l18 -9q0 -8 -8 -8q35 -222 35 -231h-10l10 -18l-10 -44l10 -44q-10 -52 -10 -70l10 -46h-10l10 -16v-10l-10 -61q29 -29 143 -81l8 -34l-8 -18q26 -30 26 -71q-97 -77 -97 -115q0 -26 -26 -70q0 -53 -28 -98
q54 -152 54 -185v-10q-36 -55 -36 -87v-99q0 -21 -8 -35q11 -52 26 -52l-8 -90v-44q0 -18 -99 -87q-2 -10 -97 -46q-27 0 -43 10l-53 -10h-9q-120 0 -142 54v27q54 39 221 61q15 19 26 97l-8 18q18 35 18 62h-10q0 9 10 9l-10 44q0 75 45 247l9 54q-9 16 -9 45v8q0 9 9 9
q-26 68 -26 88v36q0 17 79 213q-124 59 -124 115q-26 79 -26 122h8l-8 18q8 207 8 336l-8 36h8q-8 16 -8 27q0 9 8 9q0 124 -133 194l-17 -9h-9l-9 46v17q23 0 45 18h53z" />
    <glyph glyph-name="asciitilde" unicode="~" horiz-adv-x="1216" 
d="M434 644q10 0 10 9q126 0 379 -150h18l18 9q42 -74 115 -74q0 11 74 36q66 38 105 38l27 -38l20 11h38v-39q-41 0 -76 -122q-90 -93 -292 -93q-22 10 -29 10h-29q0 8 -103 37q-19 -11 -29 -11q-2 16 -114 57q-37 19 -37 29q9 0 9 9l-19 -9q-5 0 -151 103q-66 0 -66 18
q-96 -22 -114 -46l-18 10q-35 -19 -76 -19q-69 0 -94 55v38q93 70 217 103q104 21 104 38q18 -9 29 -9q29 10 29 18z" />
    <glyph glyph-name="exclamdown" unicode="&#xa1;" horiz-adv-x="672" 
 />
    <glyph glyph-name="cent" unicode="&#xa2;" horiz-adv-x="1139" 
 />
    <glyph glyph-name="sterling" unicode="&#xa3;" 
 />
    <glyph glyph-name="currency" unicode="&#xa4;" 
 />
    <glyph glyph-name="yen" unicode="&#xa5;" horiz-adv-x="1262" 
 />
    <glyph glyph-name="brokenbar" unicode="&#xa6;" 
 />
    <glyph glyph-name="section" unicode="&#xa7;" 
 />
    <glyph glyph-name="dieresis" unicode="&#xa8;" horiz-adv-x="1024" 
 />
    <glyph glyph-name="copyright" unicode="&#xa9;" horiz-adv-x="1674" 
 />
    <glyph glyph-name="ordfeminine" unicode="&#xaa;" horiz-adv-x="648" 
 />
    <glyph glyph-name="guillemotleft" unicode="&#xab;" horiz-adv-x="944" 
 />
    <glyph glyph-name="logicalnot" unicode="&#xac;" 
 />
    <glyph glyph-name="registered" unicode="&#xae;" horiz-adv-x="1674" 
 />
    <glyph glyph-name="macron" unicode="&#xaf;" horiz-adv-x="670" 
 />
    <glyph glyph-name="degree" unicode="&#xb0;" horiz-adv-x="674" 
 />
    <glyph glyph-name="plusminus" unicode="&#xb1;" 
 />
    <glyph glyph-name="uni00B2" unicode="&#xb2;" 
 />
    <glyph glyph-name="uni00B3" unicode="&#xb3;" 
 />
    <glyph glyph-name="acute" unicode="&#xb4;" horiz-adv-x="1024" 
 />
    <glyph glyph-name="mu" unicode="&#xb5;" horiz-adv-x="361" 
 />
    <glyph glyph-name="paragraph" unicode="&#xb6;" horiz-adv-x="1024" 
 />
    <glyph glyph-name="periodcentered" unicode="&#xb7;" horiz-adv-x="508" 
 />
    <glyph glyph-name="periodcentered" unicode="&#x2219;" horiz-adv-x="508" 
 />
    <glyph glyph-name="cedilla" unicode="&#xb8;" horiz-adv-x="1024" 
 />
    <glyph glyph-name="uni00B9" unicode="&#xb9;" 
 />
    <glyph glyph-name="ordmasculine" unicode="&#xba;" horiz-adv-x="718" 
 />
    <glyph glyph-name="guillemotright" unicode="&#xbb;" horiz-adv-x="944" 
 />
    <glyph glyph-name="onequarter" unicode="&#xbc;" horiz-adv-x="1708" 
 />
    <glyph glyph-name="onehalf" unicode="&#xbd;" horiz-adv-x="1964" 
 />
    <glyph glyph-name="threequarters" unicode="&#xbe;" horiz-adv-x="1708" 
 />
    <glyph glyph-name="questiondown" unicode="&#xbf;" horiz-adv-x="748" 
 />
    <glyph glyph-name="Agrave" unicode="&#xc0;" horiz-adv-x="1540" 
 />
    <glyph glyph-name="Aacute" unicode="&#xc1;" horiz-adv-x="1540" 
 />
    <glyph glyph-name="Acircumflex" unicode="&#xc2;" horiz-adv-x="1540" 
 />
    <glyph glyph-name="Atilde" unicode="&#xc3;" horiz-adv-x="1540" 
 />
    <glyph glyph-name="Adieresis" unicode="&#xc4;" horiz-adv-x="1540" 
 />
    <glyph glyph-name="Aring" unicode="&#xc5;" horiz-adv-x="1540" 
 />
    <glyph glyph-name="AE" unicode="&#xc6;" horiz-adv-x="2118" 
 />
    <glyph glyph-name="Ccedilla" unicode="&#xc7;" horiz-adv-x="1399" 
 />
    <glyph glyph-name="Egrave" unicode="&#xc8;" horiz-adv-x="1151" 
 />
    <glyph glyph-name="Eacute" unicode="&#xc9;" horiz-adv-x="1151" 
 />
    <glyph glyph-name="Ecircumflex" unicode="&#xca;" horiz-adv-x="1151" 
 />
    <glyph glyph-name="Edieresis" unicode="&#xcb;" horiz-adv-x="1151" 
 />
    <glyph glyph-name="Igrave" unicode="&#xcc;" horiz-adv-x="657" 
 />
    <glyph glyph-name="Iacute" unicode="&#xcd;" horiz-adv-x="657" 
 />
    <glyph glyph-name="Icircumflex" unicode="&#xce;" horiz-adv-x="657" 
 />
    <glyph glyph-name="Idieresis" unicode="&#xcf;" horiz-adv-x="657" 
 />
    <glyph glyph-name="Eth" unicode="&#xd0;" horiz-adv-x="1518" 
 />
    <glyph glyph-name="Ntilde" unicode="&#xd1;" horiz-adv-x="1554" 
 />
    <glyph glyph-name="Ograve" unicode="&#xd2;" horiz-adv-x="1614" 
 />
    <glyph glyph-name="Oacute" unicode="&#xd3;" horiz-adv-x="1614" 
 />
    <glyph glyph-name="Ocircumflex" unicode="&#xd4;" horiz-adv-x="1614" 
 />
    <glyph glyph-name="Otilde" unicode="&#xd5;" horiz-adv-x="1614" 
 />
    <glyph glyph-name="Odieresis" unicode="&#xd6;" horiz-adv-x="1614" 
 />
    <glyph glyph-name="multiply" unicode="&#xd7;" 
 />
    <glyph glyph-name="Oslash" unicode="&#xd8;" horiz-adv-x="1614" 
 />
    <glyph glyph-name="Ugrave" unicode="&#xd9;" horiz-adv-x="1501" 
 />
    <glyph glyph-name="Uacute" unicode="&#xda;" horiz-adv-x="1501" 
 />
    <glyph glyph-name="Ucircumflex" unicode="&#xdb;" horiz-adv-x="1501" 
 />
    <glyph glyph-name="Udieresis" unicode="&#xdc;" horiz-adv-x="1501" 
 />
    <glyph glyph-name="Yacute" unicode="&#xdd;" horiz-adv-x="1233" 
 />
    <glyph glyph-name="Thorn" unicode="&#xde;" horiz-adv-x="1120" 
 />
    <glyph glyph-name="germandbls" unicode="&#xdf;" horiz-adv-x="1251" 
 />
    <glyph glyph-name="agrave" unicode="&#xe0;" horiz-adv-x="922" 
 />
    <glyph glyph-name="aacute" unicode="&#xe1;" horiz-adv-x="922" 
 />
    <glyph glyph-name="acircumflex" unicode="&#xe2;" horiz-adv-x="922" 
 />
    <glyph glyph-name="atilde" unicode="&#xe3;" horiz-adv-x="922" 
 />
    <glyph glyph-name="adieresis" unicode="&#xe4;" horiz-adv-x="922" 
 />
    <glyph glyph-name="aring" unicode="&#xe5;" horiz-adv-x="922" 
 />
    <glyph glyph-name="ae" unicode="&#xe6;" horiz-adv-x="1454" 
 />
    <glyph glyph-name="ccedilla" unicode="&#xe7;" horiz-adv-x="905" 
 />
    <glyph glyph-name="egrave" unicode="&#xe8;" horiz-adv-x="909" 
 />
    <glyph glyph-name="eacute" unicode="&#xe9;" horiz-adv-x="909" 
 />
    <glyph glyph-name="ecircumflex" unicode="&#xea;" horiz-adv-x="909" 
 />
    <glyph glyph-name="edieresis" unicode="&#xeb;" horiz-adv-x="909" 
 />
    <glyph glyph-name="igrave" unicode="&#xec;" horiz-adv-x="514" 
 />
    <glyph glyph-name="iacute" unicode="&#xed;" horiz-adv-x="514" 
 />
    <glyph glyph-name="icircumflex" unicode="&#xee;" horiz-adv-x="514" 
 />
    <glyph glyph-name="idieresis" unicode="&#xef;" horiz-adv-x="514" 
 />
    <glyph glyph-name="eth" unicode="&#xf0;" horiz-adv-x="1139" 
 />
    <glyph glyph-name="ntilde" unicode="&#xf1;" horiz-adv-x="1108" 
 />
    <glyph glyph-name="ograve" unicode="&#xf2;" horiz-adv-x="1010" 
 />
    <glyph glyph-name="oacute" unicode="&#xf3;" horiz-adv-x="1010" 
 />
    <glyph glyph-name="ocircumflex" unicode="&#xf4;" horiz-adv-x="1010" 
 />
    <glyph glyph-name="otilde" unicode="&#xf5;" horiz-adv-x="1010" 
 />
    <glyph glyph-name="odieresis" unicode="&#xf6;" horiz-adv-x="1010" 
 />
    <glyph glyph-name="divide" unicode="&#xf7;" 
 />
    <glyph glyph-name="oslash" unicode="&#xf8;" horiz-adv-x="1010" 
 />
    <glyph glyph-name="ugrave" unicode="&#xf9;" horiz-adv-x="1059" 
 />
    <glyph glyph-name="uacute" unicode="&#xfa;" horiz-adv-x="1059" 
 />
    <glyph glyph-name="ucircumflex" unicode="&#xfb;" horiz-adv-x="1059" 
 />
    <glyph glyph-name="udieresis" unicode="&#xfc;" horiz-adv-x="1059" 
 />
    <glyph glyph-name="yacute" unicode="&#xfd;" horiz-adv-x="868" 
 />
    <glyph glyph-name="thorn" unicode="&#xfe;" horiz-adv-x="1010" 
 />
    <glyph glyph-name="ydieresis" unicode="&#xff;" horiz-adv-x="868" 
 />
    <glyph glyph-name="dotlessi" unicode="&#x131;" horiz-adv-x="514" 
 />
    <glyph glyph-name="circumflex" unicode="&#x2c6;" horiz-adv-x="1024" 
 />
    <glyph glyph-name="caron" unicode="&#x2c7;" horiz-adv-x="1024" 
 />
    <glyph glyph-name="uni02C9" unicode="&#x2c9;" horiz-adv-x="1024" 
 />
    <glyph glyph-name="breve" unicode="&#x2d8;" horiz-adv-x="1024" 
 />
    <glyph glyph-name="dotaccent" unicode="&#x2d9;" horiz-adv-x="1024" 
 />
    <glyph glyph-name="ring" unicode="&#x2da;" horiz-adv-x="1024" 
 />
    <glyph glyph-name="ogonek" unicode="&#x2db;" horiz-adv-x="1024" 
 />
    <glyph glyph-name="tilde" unicode="&#x2dc;" horiz-adv-x="1024" 
 />
    <glyph glyph-name="hungarumlaut" unicode="&#x2dd;" horiz-adv-x="1024" 
 />
    <glyph glyph-name="endash" unicode="&#x2013;" horiz-adv-x="1108" 
 />
    <glyph glyph-name="emdash" unicode="&#x2014;" horiz-adv-x="2048" 
 />
    <glyph glyph-name="quoteleft" unicode="&#x2018;" horiz-adv-x="557" 
 />
    <glyph glyph-name="quoteright" unicode="&#x2019;" horiz-adv-x="557" 
 />
    <glyph glyph-name="quotesinglbase" unicode="&#x201a;" horiz-adv-x="557" 
 />
    <glyph glyph-name="quotedblleft" unicode="&#x201c;" horiz-adv-x="910" 
 />
    <glyph glyph-name="quotedblright" unicode="&#x201d;" horiz-adv-x="910" 
 />
    <glyph glyph-name="quotedblbase" unicode="&#x201e;" horiz-adv-x="910" 
 />
    <glyph glyph-name="dagger" unicode="&#x2020;" 
 />
    <glyph glyph-name="daggerdbl" unicode="&#x2021;" 
 />
    <glyph glyph-name="bullet" unicode="&#x2022;" horiz-adv-x="1024" 
 />
    <glyph glyph-name="ellipsis" unicode="&#x2026;" horiz-adv-x="2048" 
 />
    <glyph glyph-name="guilsinglleft" unicode="&#x2039;" horiz-adv-x="631" 
 />
    <glyph glyph-name="guilsinglright" unicode="&#x203a;" horiz-adv-x="631" 
 />
    <glyph glyph-name="fraction" unicode="&#x2044;" horiz-adv-x="342" 
 />
    <glyph glyph-name="fraction" unicode="&#x2215;" horiz-adv-x="342" 
 />
    <glyph glyph-name="franc" unicode="&#x20a3;" 
 />
    <glyph glyph-name="lira" unicode="&#x20a4;" 
 />
    <glyph glyph-name="peseta" unicode="&#x20a7;" horiz-adv-x="2028" 
 />
    <glyph glyph-name="Euro" unicode="&#x20ac;" 
 />
    <glyph glyph-name="uni2116" unicode="&#x2116;" horiz-adv-x="2271" 
 />
    <glyph glyph-name="trademark" unicode="&#x2122;" horiz-adv-x="1497" 
 />
    <glyph glyph-name="partialdiff" unicode="&#x2202;" 
 />
    <glyph glyph-name="Delta" unicode="&#x2206;" horiz-adv-x="1081" 
 />
    <glyph glyph-name="product" unicode="&#x220f;" horiz-adv-x="1515" 
 />
    <glyph glyph-name="summation" unicode="&#x2211;" horiz-adv-x="1206" 
 />
    <glyph glyph-name="minus" unicode="&#x2212;" 
 />
    <glyph glyph-name="radical" unicode="&#x221a;" 
 />
    <glyph glyph-name="infinity" unicode="&#x221e;" 
 />
    <glyph glyph-name="integral" unicode="&#x222b;" horiz-adv-x="665" 
 />
    <glyph glyph-name="approxequal" unicode="&#x2248;" 
 />
    <glyph glyph-name="lessequal" unicode="&#x2264;" 
 />
    <glyph glyph-name="greaterequal" unicode="&#x2265;" 
 />
    <glyph glyph-name="uniF001" unicode="&#xf001;" horiz-adv-x="1073" 
 />
    <glyph glyph-name="uniF001" unicode="&#xfb01;" horiz-adv-x="1073" 
 />
    <glyph glyph-name="uniF002" unicode="&#xf002;" horiz-adv-x="1081" 
 />
    <glyph glyph-name="uniF002" unicode="&#xfb02;" horiz-adv-x="1081" 
 />
    </font>
</defs>
</svg>
